Truculenta-72ptCondensed.ufo
<glyph name="exclam" format="2">
  <advance width="216"/>
  <unicode hex="0021"/>
  <outline>
    <contour>
      <point x="78" y="238" type="curve"/>
      <point x="138" y="240" type="line"/>
      <point x="138" y="240"/>
      <point x="140" y="349"/>
      <point x="141" y="425" type="curve"/>
      <point x="143" y="500"/>
      <point x="151" y="709"/>
      <point x="151" y="709" type="curve"/>
      <point x="65" y="704" type="line"/>
      <point x="65" y="704"/>
      <point x="71" y="533"/>
      <point x="74" y="423" type="curve"/>
      <point x="76" y="315"/>
      <point x="78" y="238"/>
    </contour>
    <contour>
      <point x="150" y="0" type="line"/>
      <point x="143" y="135" type="line"/>
      <point x="73" y="133" type="line"/>
      <point x="69" y="0" type="line"/>
    </contour>
  </outline>
</glyph>
<glyph name="quotedbl" format="2">
  <advance width="380"/>
  <unicode hex="0022"/>
  <outline>
    <contour>
      <point x="225" y="493" type="curve"/>
      <point x="290" y="503" type="line"/>
      <point x="290" y="503"/>
      <point x="297" y="574"/>
      <point x="306" y="615" type="curve" smooth="yes"/>
      <point x="312" y="657"/>
      <point x="325" y="701"/>
      <point x="325" y="701" type="curve"/>
      <point x="231" y="702" type="line"/>
      <point x="231" y="702"/>
      <point x="232" y="654"/>
      <point x="229" y="604" type="curve" smooth="yes"/>
      <point x="228" y="551"/>
      <point x="225" y="493"/>
    </contour>
    <contour>
      <point x="67" y="490" type="curve"/>
      <point x="131" y="505" type="line"/>
      <point x="131" y="505"/>
      <point x="132" y="577"/>
      <point x="137" y="618" type="curve" smooth="yes"/>
      <point x="140" y="661"/>
      <point x="149" y="706"/>
      <point x="149" y="706" type="curve"/>
      <point x="55" y="698" type="line"/>
      <point x="55" y="698"/>
      <point x="60" y="651"/>
      <point x="62" y="601" type="curve" smooth="yes"/>
      <point x="65" y="548"/>
      <point x="67" y="490"/>
    </contour>
  </outline>
</glyph>
<glyph name="numbersign" format="2">
  <advance width="690"/>
  <unicode hex="0023"/>
  <outline>
    <contour>
      <point x="99" y="-1" type="line"/>
      <point x="172" y="3" type="line"/>
      <point x="254" y="374" type="line"/>
      <point x="335" y="700" type="line"/>
      <point x="264" y="696" type="line"/>
      <point x="199" y="385" type="line"/>
    </contour>
    <contour>
      <point x="40" y="175" type="line"/>
      <point x="40" y="175"/>
      <point x="218" y="180"/>
      <point x="339" y="179" type="curve" smooth="yes"/>
      <point x="464" y="178"/>
      <point x="604" y="177"/>
      <point x="604" y="177" type="curve"/>
      <point x="600" y="240" type="line"/>
      <point x="600" y="240"/>
      <point x="459" y="237"/>
      <point x="342" y="237" type="curve" smooth="yes"/>
      <point x="230" y="237"/>
      <point x="42" y="240"/>
      <point x="42" y="240" type="curve"/>
    </contour>
    <contour>
      <point x="350" y="-2" type="line"/>
      <point x="423" y="1" type="line"/>
      <point x="502" y="363" type="line"/>
      <point x="583" y="686" type="line"/>
      <point x="512" y="687" type="line"/>
      <point x="450" y="385" type="line"/>
    </contour>
    <contour>
      <point x="90" y="462" type="line"/>
      <point x="90" y="462"/>
      <point x="269" y="467"/>
      <point x="390" y="466" type="curve" smooth="yes"/>
      <point x="514" y="465"/>
      <point x="650" y="463"/>
      <point x="650" y="463" type="curve"/>
      <point x="650" y="527" type="line"/>
      <point x="650" y="527"/>
      <point x="509" y="524"/>
      <point x="392" y="524" type="curve" smooth="yes"/>
      <point x="280" y="524"/>
      <point x="82" y="527"/>
      <point x="82" y="527" type="curve"/>
    </contour>
  </outline>
</glyph>
<glyph name="dollar" format="2">
  <advance width="416"/>
  <unicode hex="0024"/>
  <outline>
    <contour>
      <point x="214" y="-11" type="curve" smooth="yes"/>
      <point x="297" y="-11"/>
      <point x="342" y="47"/>
      <point x="342" y="142" type="curve"/>
      <point x="342" y="242"/>
      <point x="240" y="316"/>
      <point x="201" y="356" type="curve" smooth="yes"/>
      <point x="162" y="396"/>
      <point x="126" y="445"/>
      <point x="126" y="523" type="curve" smooth="yes"/>
      <point x="126" y="605"/>
      <point x="158" y="645"/>
      <point x="217" y="645" type="curve" smooth="yes"/>
      <point x="261" y="645"/>
      <point x="291" y="603"/>
      <point x="291" y="538" type="curve" smooth="yes"/>
      <point x="291" y="497"/>
      <point x="289" y="465"/>
      <point x="282" y="405" type="curve"/>
      <point x="344" y="409" type="line"/>
      <point x="348" y="457"/>
      <point x="351" y="495"/>
      <point x="351" y="547" type="curve" smooth="yes"/>
      <point x="351" y="665"/>
      <point x="282" y="703"/>
      <point x="218" y="703" type="curve"/>
      <point x="129" y="703"/>
      <point x="67" y="642"/>
      <point x="67" y="535" type="curve" smooth="yes"/>
      <point x="67" y="434"/>
      <point x="90" y="378"/>
      <point x="159" y="313" type="curve" smooth="yes"/>
      <point x="229" y="246"/>
      <point x="282" y="201"/>
      <point x="282" y="134" type="curve"/>
      <point x="282" y="87"/>
      <point x="262" y="46"/>
      <point x="205" y="46" type="curve" smooth="yes"/>
      <point x="172" y="46"/>
      <point x="123" y="65"/>
      <point x="123" y="136" type="curve" smooth="yes"/>
      <point x="123" y="165"/>
      <point x="124" y="189"/>
      <point x="126" y="215" type="curve"/>
      <point x="70" y="214" type="line"/>
      <point x="66" y="184"/>
      <point x="65" y="166"/>
      <point x="65" y="140" type="curve" smooth="yes"/>
      <point x="65" y="50"/>
      <point x="112" y="-11"/>
    </contour>
    <contour>
      <point x="236" y="-110" type="line"/>
      <point x="236" y="-110"/>
      <point x="227" y="166"/>
      <point x="227" y="315" type="curve"/>
      <point x="227" y="464"/>
      <point x="240" y="798"/>
      <point x="240" y="798" type="curve"/>
      <point x="189" y="801" type="line"/>
      <point x="189" y="801"/>
      <point x="192" y="545"/>
      <point x="192" y="326" type="curve"/>
      <point x="192" y="106"/>
      <point x="185" y="-109"/>
      <point x="185" y="-109" type="curve"/>
    </contour>
  </outline>
</glyph>
<glyph name="percent" format="2">
  <advance width="714"/>
  <unicode hex="0025"/>
  <outline>
    <contour>
      <point x="192" y="0" type="curve"/>
      <point x="258" y="0" type="line"/>
      <point x="285" y="75"/>
      <point x="346" y="249"/>
      <point x="388" y="357" type="curve" smooth="yes"/>
      <point x="437" y="484"/>
      <point x="499" y="630"/>
      <point x="526" y="693" type="curve"/>
      <point x="460" y="693" type="line"/>
      <point x="434" y="622"/>
      <point x="380" y="478"/>
      <point x="333" y="356" type="curve" smooth="yes"/>
      <point x="295" y="257"/>
      <point x="227" y="85"/>
    </contour>
    <contour>
      <point x="169" y="367" type="curve" smooth="yes"/>
      <point x="251" y="367"/>
      <point x="291" y="430"/>
      <point x="291" y="538" type="curve" smooth="yes"/>
      <point x="291" y="636"/>
      <point x="260" y="699"/>
      <point x="183" y="699" type="curve" smooth="yes"/>
      <point x="100" y="699"/>
      <point x="57" y="647"/>
      <point x="57" y="539" type="curve" smooth="yes"/>
      <point x="57" y="421"/>
      <point x="97" y="367"/>
    </contour>
    <contour>
      <point x="171" y="424" type="curve" smooth="yes"/>
      <point x="137" y="424"/>
      <point x="112" y="456"/>
      <point x="112" y="537" type="curve" smooth="yes"/>
      <point x="112" y="610"/>
      <point x="132" y="645"/>
      <point x="176" y="645" type="curve" smooth="yes"/>
      <point x="211" y="645"/>
      <point x="236" y="622"/>
      <point x="236" y="542" type="curve" smooth="yes"/>
      <point x="236" y="482"/>
      <point x="228" y="424"/>
    </contour>
    <contour>
      <point x="531" y="-1" type="curve" smooth="yes"/>
      <point x="614" y="-1"/>
      <point x="657" y="56"/>
      <point x="657" y="164" type="curve" smooth="yes"/>
      <point x="657" y="282"/>
      <point x="617" y="331"/>
      <point x="545" y="331" type="curve" smooth="yes"/>
      <point x="462" y="331"/>
      <point x="423" y="273"/>
      <point x="423" y="166" type="curve" smooth="yes"/>
      <point x="423" y="68"/>
      <point x="454" y="-1"/>
    </contour>
    <contour>
      <point x="537" y="53" type="curve" smooth="yes"/>
      <point x="502" y="53"/>
      <point x="478" y="81"/>
      <point x="478" y="161" type="curve" smooth="yes"/>
      <point x="478" y="221"/>
      <point x="485" y="274"/>
      <point x="543" y="274" type="curve" smooth="yes"/>
      <point x="576" y="274"/>
      <point x="601" y="248"/>
      <point x="601" y="166" type="curve" smooth="yes"/>
      <point x="601" y="93"/>
      <point x="582" y="53"/>
    </contour>
  </outline>
</glyph>
<glyph name="quotesingle" format="2">
  <advance width="204"/>
  <unicode hex="0027"/>
  <outline>
    <contour>
      <point x="67" y="490" type="curve"/>
      <point x="131" y="505" type="line"/>
      <point x="131" y="505"/>
      <point x="132" y="577"/>
      <point x="137" y="618" type="curve"/>
      <point x="140" y="661"/>
      <point x="149" y="706"/>
      <point x="149" y="706" type="curve"/>
      <point x="55" y="698" type="line"/>
      <point x="55" y="698"/>
      <point x="60" y="651"/>
      <point x="62" y="601" type="curve"/>
      <point x="65" y="548"/>
      <point x="67" y="490"/>
    </contour>
  </outline>
</glyph>
<glyph name="parenleft" format="2">
  <advance width="265"/>
  <unicode hex="0028"/>
  <outline>
    <contour>
      <point x="182" y="-140" type="curve"/>
      <point x="199" y="-88" type="line"/>
      <point x="125" y="-17"/>
      <point x="128" y="136"/>
      <point x="128" y="281" type="curve" smooth="yes"/>
      <point x="128" y="427"/>
      <point x="125" y="580"/>
      <point x="199" y="651" type="curve"/>
      <point x="182" y="703" type="line"/>
      <point x="104" y="673"/>
      <point x="65" y="579"/>
      <point x="65" y="281" type="curve" smooth="yes"/>
      <point x="65" y="-16"/>
      <point x="104" y="-110"/>
    </contour>
  </outline>
</glyph>
<glyph name="parenright" format="2">
  <advance width="265"/>
  <unicode hex="0029"/>
  <outline>
    <contour>
      <point x="82" y="703" type="curve"/>
      <point x="65" y="651" type="line"/>
      <point x="139" y="580"/>
      <point x="136" y="427"/>
      <point x="136" y="282" type="curve" smooth="yes"/>
      <point x="136" y="136"/>
      <point x="139" y="-17"/>
      <point x="65" y="-88" type="curve"/>
      <point x="82" y="-140" type="line"/>
      <point x="160" y="-110"/>
      <point x="199" y="-16"/>
      <point x="199" y="282" type="curve" smooth="yes"/>
      <point x="199" y="579"/>
      <point x="160" y="673"/>
    </contour>
  </outline>
</glyph>
<glyph name="asterisk" format="2">
  <advance width="504"/>
  <unicode hex="002A"/>
  <outline>
    <contour>
      <point x="387" y="427" type="curve"/>
      <point x="439" y="473" type="line"/>
      <point x="439" y="473"/>
      <point x="303" y="551"/>
      <point x="256" y="578" type="curve"/>
      <point x="207" y="607"/>
      <point x="110" y="678"/>
      <point x="110" y="678" type="curve"/>
      <point x="65" y="623" type="line"/>
      <point x="65" y="623"/>
      <point x="184" y="564"/>
      <point x="237" y="533" type="curve"/>
      <point x="288" y="504"/>
      <point x="387" y="427"/>
    </contour>
    <contour>
      <point x="101" y="415" type="line"/>
      <point x="101" y="415"/>
      <point x="218" y="504"/>
      <point x="269" y="533" type="curve"/>
      <point x="322" y="564"/>
      <point x="430" y="623"/>
      <point x="430" y="623" type="curve"/>
      <point x="411" y="687" type="line"/>
      <point x="411" y="687"/>
      <point x="299" y="607"/>
      <point x="250" y="578" type="curve"/>
      <point x="203" y="551"/>
      <point x="76" y="473"/>
      <point x="76" y="473" type="curve"/>
    </contour>
    <contour>
      <point x="291" y="357" type="line"/>
      <point x="291" y="357"/>
      <point x="279" y="495"/>
      <point x="279" y="562" type="curve"/>
      <point x="279" y="631"/>
      <point x="289" y="736"/>
      <point x="289" y="736" type="curve"/>
      <point x="220" y="743" type="line"/>
      <point x="220" y="743"/>
      <point x="227" y="626"/>
      <point x="228" y="561" type="curve"/>
      <point x="230" y="499"/>
      <point x="221" y="364"/>
      <point x="221" y="364" type="curve"/>
    </contour>
  </outline>
</glyph>
<glyph name="plus" format="2">
  <advance width="400"/>
  <unicode hex="002B"/>
  <outline>
    <contour>
      <point x="235" y="148" type="line"/>
      <point x="235" y="148"/>
      <point x="226" y="235"/>
      <point x="226" y="302" type="curve"/>
      <point x="226" y="371"/>
      <point x="233" y="447"/>
      <point x="233" y="447" type="curve"/>
      <point x="164" y="443" type="line"/>
      <point x="164" y="443"/>
      <point x="168" y="366"/>
      <point x="169" y="301" type="curve"/>
      <point x="171" y="239"/>
      <point x="165" y="144"/>
      <point x="165" y="144" type="curve"/>
    </contour>
    <contour>
      <point x="65" y="258" type="line"/>
      <point x="65" y="258"/>
      <point x="152" y="264"/>
      <point x="211" y="264" type="curve"/>
      <point x="272" y="264"/>
      <point x="319" y="259"/>
      <point x="319" y="259" type="curve"/>
      <point x="335" y="324" type="line"/>
      <point x="335" y="324"/>
      <point x="267" y="321"/>
      <point x="210" y="320" type="curve"/>
      <point x="155" y="320"/>
      <point x="72" y="321"/>
      <point x="72" y="321" type="curve"/>
    </contour>
  </outline>
</glyph>
<glyph name="comma" format="2">
  <advance width="211"/>
  <unicode hex="002C"/>
  <outline>
    <contour>
      <point x="109" y="-134" type="line"/>
      <point x="132" y="-96"/>
      <point x="146" y="-50"/>
      <point x="146" y="1" type="curve" smooth="yes"/>
      <point x="146" y="125" type="line"/>
      <point x="65" y="118" type="line"/>
      <point x="67" y="0" type="line"/>
      <point x="106" y="-3" type="line"/>
      <point x="106" y="-44"/>
      <point x="96" y="-79"/>
      <point x="74" y="-117" type="curve"/>
    </contour>
  </outline>
</glyph>
<glyph name="hyphen" format="2">
  <advance width="281"/>
  <unicode hex="002D"/>
  <outline>
    <contour>
      <point x="45" y="259" type="line"/>
      <point x="45" y="259"/>
      <point x="92" y="261"/>
      <point x="137" y="261" type="curve"/>
      <point x="180" y="261"/>
      <point x="236" y="259"/>
      <point x="236" y="259" type="curve"/>
      <point x="234" y="321" type="line"/>
      <point x="234" y="321"/>
      <point x="189" y="317"/>
      <point x="142" y="318" type="curve"/>
      <point x="94" y="319"/>
      <point x="49" y="321"/>
      <point x="49" y="321" type="curve"/>
    </contour>
  </outline>
</glyph>
<glyph name="period" format="2">
  <advance width="207"/>
  <unicode hex="002E"/>
  <outline>
    <contour>
      <point x="139" y="0" type="line"/>
      <point x="142" y="132" type="line"/>
      <point x="65" y="126" type="line"/>
      <point x="67" y="0" type="line"/>
    </contour>
  </outline>
</glyph>
<glyph name="slash" format="2">
  <advance width="255"/>
  <unicode hex="002F"/>
  <outline>
    <contour>
      <point x="13" y="-1" type="curve"/>
      <point x="80" y="0" type="line"/>
      <point x="80" y="0"/>
      <point x="124" y="197"/>
      <point x="157" y="340" type="curve"/>
      <point x="190" y="484"/>
      <point x="242" y="695"/>
      <point x="242" y="695" type="curve"/>
      <point x="174" y="697" type="line"/>
      <point x="174" y="697"/>
      <point x="135" y="485"/>
      <point x="101" y="339" type="curve"/>
      <point x="68" y="193"/>
      <point x="13" y="-1"/>
    </contour>
  </outline>
</glyph>
<glyph name="zero" format="2">
  <advance width="384"/>
  <unicode hex="0030"/>
  <outline>
    <contour>
      <point x="185" y="-10" type="curve" smooth="yes"/>
      <point x="324" y="-10"/>
      <point x="336" y="147"/>
      <point x="336" y="342" type="curve" smooth="yes"/>
      <point x="336" y="548"/>
      <point x="333" y="707"/>
      <point x="199" y="707" type="curve" smooth="yes"/>
      <point x="65" y="707"/>
      <point x="48" y="545"/>
      <point x="48" y="343" type="curve" smooth="yes"/>
      <point x="48" y="134"/>
      <point x="54" y="-10"/>
    </contour>
    <contour>
      <point x="189" y="45" type="curve" smooth="yes"/>
      <point x="117" y="45"/>
      <point x="112" y="162"/>
      <point x="112" y="338" type="curve" smooth="yes"/>
      <point x="112" y="468"/>
      <point x="118" y="649"/>
      <point x="196" y="649" type="curve" smooth="yes"/>
      <point x="273" y="649"/>
      <point x="274" y="480"/>
      <point x="274" y="353" type="curve" smooth="yes"/>
      <point x="274" y="199"/>
      <point x="267" y="45"/>
    </contour>
  </outline>
</glyph>
<glyph name="one" format="2">
  <advance width="225"/>
  <unicode hex="0031"/>
  <outline>
    <contour>
      <point x="98" y="0" type="curve"/>
      <point x="172" y="0" type="line"/>
      <point x="172" y="0"/>
      <point x="167" y="170"/>
      <point x="167" y="341" type="curve" smooth="yes"/>
      <point x="167" y="512"/>
      <point x="173" y="694"/>
      <point x="173" y="694" type="curve"/>
      <point x="138" y="694" type="line"/>
      <point x="101" y="619" type="line"/>
      <point x="102" y="543"/>
      <point x="103" y="419"/>
      <point x="103" y="342" type="curve" smooth="yes"/>
      <point x="103" y="226"/>
      <point x="98" y="0"/>
    </contour>
    <contour>
      <point x="14" y="588" type="line"/>
      <point x="52" y="588"/>
      <point x="100" y="597"/>
      <point x="132" y="609" type="curve"/>
      <point x="138" y="694" type="line"/>
      <point x="108" y="668"/>
      <point x="49" y="652"/>
      <point x="10" y="645" type="curve"/>
    </contour>
  </outline>
</glyph>
<glyph name="two" format="2">
  <advance width="358"/>
  <unicode hex="0032"/>
  <outline>
    <contour>
      <point x="88" y="40" type="line"/>
      <point x="174" y="122"/>
      <point x="308" y="351"/>
      <point x="308" y="518" type="curve" smooth="yes"/>
      <point x="308" y="643"/>
      <point x="253" y="700"/>
      <point x="183" y="700" type="curve" smooth="yes"/>
      <point x="124" y="700"/>
      <point x="43" y="670"/>
      <point x="43" y="535" type="curve" smooth="yes"/>
      <point x="43" y="495"/>
      <point x="46" y="451"/>
      <point x="49" y="423" type="curve"/>
      <point x="116" y="424" type="line"/>
      <point x="112" y="454"/>
      <point x="108" y="489"/>
      <point x="108" y="525" type="curve" smooth="yes"/>
      <point x="108" y="603"/>
      <point x="137" y="639"/>
      <point x="178" y="639" type="curve" smooth="yes"/>
      <point x="223" y="639"/>
      <point x="244" y="596"/>
      <point x="244" y="506" type="curve" smooth="yes"/>
      <point x="244" y="360"/>
      <point x="132" y="169"/>
      <point x="30" y="57" type="curve"/>
    </contour>
    <contour>
      <point x="28" y="-4" type="line"/>
      <point x="66" y="-2"/>
      <point x="128" y="-1"/>
      <point x="174" y="0" type="curve" smooth="yes"/>
      <point x="217" y="1"/>
      <point x="273" y="0"/>
      <point x="315" y="0" type="curve"/>
      <point x="314" y="64" type="line"/>
      <point x="281" y="60"/>
      <point x="228" y="59"/>
      <point x="185" y="58" type="curve" smooth="yes"/>
      <point x="140" y="57"/>
      <point x="82" y="57"/>
      <point x="30" y="57" type="curve"/>
    </contour>
  </outline>
</glyph>
<glyph name="three" format="2">
  <advance width="329"/>
  <unicode hex="0033"/>
  <outline>
    <contour>
      <point x="161" y="-10" type="curve"/>
      <point x="248" y="-10"/>
      <point x="298" y="45"/>
      <point x="296" y="147" type="curve"/>
      <point x="295" y="247"/>
      <point x="237" y="295"/>
      <point x="206" y="298" type="curve"/>
      <point x="269" y="332"/>
      <point x="290" y="407"/>
      <point x="290" y="502" type="curve" smooth="yes"/>
      <point x="290" y="636"/>
      <point x="246" y="697"/>
      <point x="157" y="697" type="curve" smooth="yes"/>
      <point x="97" y="697"/>
      <point x="27" y="658"/>
      <point x="29" y="543" type="curve"/>
      <point x="91" y="543" type="line"/>
      <point x="90" y="593"/>
      <point x="113" y="639"/>
      <point x="155" y="639" type="curve"/>
      <point x="210" y="639"/>
      <point x="226" y="590"/>
      <point x="226" y="496" type="curve" smooth="yes"/>
      <point x="226" y="376"/>
      <point x="175" y="323"/>
      <point x="125" y="323" type="curve"/>
      <point x="108" y="323"/>
      <point x="94" y="324"/>
      <point x="81" y="325" type="curve"/>
      <point x="83" y="262" type="line"/>
      <point x="96" y="264"/>
      <point x="117" y="264"/>
      <point x="130" y="264" type="curve"/>
      <point x="177" y="264"/>
      <point x="232" y="247"/>
      <point x="234" y="139" type="curve"/>
      <point x="235" y="85"/>
      <point x="214" y="48"/>
      <point x="162" y="48" type="curve"/>
      <point x="123" y="48"/>
      <point x="90" y="67"/>
      <point x="89" y="115" type="curve"/>
      <point x="28" y="114" type="line"/>
      <point x="29" y="52"/>
      <point x="63" y="-10"/>
    </contour>
  </outline>
</glyph>
<glyph name="four" format="2">
  <advance width="355"/>
  <unicode hex="0034"/>
  <outline>
    <contour>
      <point x="73" y="177" type="line"/>
      <point x="73" y="177"/>
      <point x="100" y="286"/>
      <point x="148" y="435" type="curve" smooth="yes"/>
      <point x="169" y="499"/>
      <point x="191" y="577"/>
      <point x="208" y="624" type="curve"/>
      <point x="226" y="673"/>
      <point x="269" y="696"/>
      <point x="269" y="696" type="curve"/>
      <point x="169" y="700" type="line"/>
      <point x="169" y="700"/>
      <point x="126" y="552"/>
      <point x="94" y="444" type="curve" smooth="yes"/>
      <point x="67" y="353"/>
      <point x="16" y="209"/>
      <point x="16" y="209" type="curve"/>
    </contour>
    <contour>
      <point x="31" y="146" type="line"/>
      <point x="31" y="146"/>
      <point x="114" y="150"/>
      <point x="176" y="151" type="curve" smooth="yes"/>
      <point x="241" y="152"/>
      <point x="336" y="151"/>
      <point x="336" y="151" type="curve"/>
      <point x="336" y="216" type="line"/>
      <point x="336" y="216"/>
      <point x="244" y="210"/>
      <point x="175" y="207" type="curve" smooth="yes"/>
      <point x="108" y="205"/>
      <point x="16" y="209"/>
      <point x="16" y="209" type="curve"/>
    </contour>
    <contour>
      <point x="198" y="-3" type="curve"/>
      <point x="268" y="0" type="line"/>
      <point x="268" y="0"/>
      <point x="265" y="207"/>
      <point x="265" y="378" type="curve" smooth="yes"/>
      <point x="265" y="549"/>
      <point x="269" y="696"/>
      <point x="269" y="696" type="curve"/>
      <point x="199" y="687" type="line"/>
      <point x="199" y="687"/>
      <point x="202" y="497"/>
      <point x="202" y="380" type="curve" smooth="yes"/>
      <point x="202" y="264"/>
      <point x="198" y="-3"/>
    </contour>
  </outline>
</glyph>
<glyph name="five" format="2">
  <advance width="349"/>
  <unicode hex="0035"/>
  <outline>
    <contour>
      <point x="168" y="-10" type="curve"/>
      <point x="249" y="-10"/>
      <point x="321" y="40"/>
      <point x="321" y="223" type="curve"/>
      <point x="321" y="324"/>
      <point x="296" y="444"/>
      <point x="192" y="444" type="curve"/>
      <point x="151" y="444"/>
      <point x="111" y="402"/>
      <point x="96" y="382" type="curve"/>
      <point x="106" y="301" type="line"/>
      <point x="114" y="336"/>
      <point x="142" y="383"/>
      <point x="184" y="383" type="curve"/>
      <point x="237" y="383"/>
      <point x="257" y="313"/>
      <point x="257" y="235" type="curve"/>
      <point x="257" y="88"/>
      <point x="216" y="50"/>
      <point x="170" y="50" type="curve"/>
      <point x="120" y="50"/>
      <point x="96" y="71"/>
      <point x="96" y="151" type="curve"/>
      <point x="33" y="147" type="line"/>
      <point x="33" y="27"/>
      <point x="97" y="-10"/>
    </contour>
    <contour>
      <point x="106" y="301" type="line"/>
      <point x="106" y="301"/>
      <point x="113" y="426"/>
      <point x="116" y="502" type="curve"/>
      <point x="118" y="583"/>
      <point x="124" y="696"/>
      <point x="124" y="696" type="curve"/>
      <point x="54" y="702" type="line"/>
      <point x="54" y="702"/>
      <point x="56" y="590"/>
      <point x="54" y="505" type="curve"/>
      <point x="52" y="422"/>
      <point x="44" y="297"/>
      <point x="44" y="297" type="curve"/>
    </contour>
    <contour>
      <point x="77" y="636" type="line"/>
      <point x="77" y="636"/>
      <point x="130" y="639"/>
      <point x="182" y="639" type="curve"/>
      <point x="230" y="639"/>
      <point x="295" y="637"/>
      <point x="295" y="637" type="curve"/>
      <point x="299" y="697" type="line"/>
      <point x="299" y="697"/>
      <point x="233" y="697"/>
      <point x="180" y="698" type="curve"/>
      <point x="126" y="699"/>
      <point x="54" y="701"/>
      <point x="54" y="701" type="curve"/>
    </contour>
  </outline>
</glyph>
<glyph name="six" format="2">
  <advance width="366"/>
  <unicode hex="0036"/>
  <outline>
    <contour>
      <point x="191" y="-10" type="curve"/>
      <point x="265" y="-10"/>
      <point x="324" y="50"/>
      <point x="324" y="183" type="curve"/>
      <point x="324" y="312"/>
      <point x="284" y="385"/>
      <point x="196" y="385" type="curve"/>
      <point x="129" y="385"/>
      <point x="97" y="340"/>
      <point x="83" y="302" type="curve"/>
      <point x="107" y="213" type="line"/>
      <point x="107" y="287"/>
      <point x="147" y="324"/>
      <point x="194" y="324" type="curve"/>
      <point x="240" y="324"/>
      <point x="261" y="270"/>
      <point x="261" y="191" type="curve"/>
      <point x="261" y="88"/>
      <point x="229" y="50"/>
      <point x="190" y="50" type="curve"/>
      <point x="105" y="50"/>
      <point x="107" y="167"/>
      <point x="107" y="300" type="curve" smooth="yes"/>
      <point x="107" y="484"/>
      <point x="116" y="655"/>
      <point x="202" y="655" type="curve" smooth="yes"/>
      <point x="237" y="655"/>
      <point x="254" y="611"/>
      <point x="254" y="546" type="curve" smooth="yes"/>
      <point x="254" y="526"/>
      <point x="253" y="505"/>
      <point x="250" y="482" type="curve"/>
      <point x="313" y="484" type="line"/>
      <point x="318" y="511"/>
      <point x="319" y="531"/>
      <point x="319" y="557" type="curve" smooth="yes"/>
      <point x="319" y="623"/>
      <point x="293" y="713"/>
      <point x="208" y="713" type="curve" smooth="yes"/>
      <point x="91" y="713"/>
      <point x="43" y="622"/>
      <point x="43" y="321" type="curve"/>
      <point x="43" y="76"/>
      <point x="81" y="-10"/>
    </contour>
  </outline>
</glyph>
<glyph name="seven" format="2">
  <advance width="281"/>
  <unicode hex="0037"/>
  <outline>
    <contour>
      <point x="69" y="-1" type="curve"/>
      <point x="145" y="0" type="line"/>
      <point x="138" y="114"/>
      <point x="143" y="274"/>
      <point x="172" y="386" type="curve" smooth="yes"/>
      <point x="194" y="469"/>
      <point x="238" y="572"/>
      <point x="265" y="627" type="curve"/>
      <point x="265" y="700" type="line"/>
      <point x="212" y="662"/>
      <point x="153" y="519"/>
      <point x="120" y="412" type="curve" smooth="yes"/>
      <point x="83" y="293"/>
      <point x="69" y="107"/>
    </contour>
    <contour>
      <point x="12" y="633" type="line"/>
      <point x="38" y="634"/>
      <point x="86" y="635"/>
      <point x="120" y="635" type="curve"/>
      <point x="154" y="635"/>
      <point x="219" y="636"/>
      <point x="258" y="637" type="curve"/>
      <point x="265" y="700" type="line"/>
      <point x="229" y="699"/>
      <point x="169" y="697"/>
      <point x="133" y="698" type="curve"/>
      <point x="97" y="699"/>
      <point x="42" y="700"/>
      <point x="11" y="700" type="curve"/>
    </contour>
  </outline>
</glyph>
<glyph name="eight" format="2">
  <advance width="348"/>
  <unicode hex="0038"/>
  <outline>
    <contour>
      <point x="166" y="274" type="curve"/>
      <point x="246" y="274"/>
      <point x="305" y="330"/>
      <point x="305" y="481" type="curve"/>
      <point x="305" y="623"/>
      <point x="273" y="707"/>
      <point x="178" y="707" type="curve"/>
      <point x="77" y="707"/>
      <point x="43" y="608"/>
      <point x="43" y="471" type="curve"/>
      <point x="43" y="345"/>
      <point x="96" y="274"/>
    </contour>
    <contour>
      <point x="165" y="-10" type="curve"/>
      <point x="258" y="-10"/>
      <point x="321" y="34"/>
      <point x="321" y="155" type="curve"/>
      <point x="321" y="253"/>
      <point x="285" y="330"/>
      <point x="179" y="330" type="curve"/>
      <point x="64" y="330"/>
      <point x="27" y="241"/>
      <point x="27" y="147" type="curve"/>
      <point x="27" y="46"/>
      <point x="82" y="-10"/>
    </contour>
    <contour>
      <point x="174" y="45" type="curve"/>
      <point x="118" y="45"/>
      <point x="89" y="78"/>
      <point x="89" y="156" type="curve"/>
      <point x="89" y="236"/>
      <point x="126" y="274"/>
      <point x="174" y="274" type="curve"/>
      <point x="223" y="274"/>
      <point x="259" y="243"/>
      <point x="259" y="150" type="curve"/>
      <point x="259" y="78"/>
      <point x="235" y="45"/>
    </contour>
    <contour>
      <point x="174" y="330" type="curve"/>
      <point x="131" y="330"/>
      <point x="107" y="385"/>
      <point x="107" y="483" type="curve"/>
      <point x="107" y="601"/>
      <point x="132" y="646"/>
      <point x="177" y="646" type="curve"/>
      <point x="222" y="646"/>
      <point x="242" y="611"/>
      <point x="242" y="476" type="curve"/>
      <point x="242" y="385"/>
      <point x="217" y="330"/>
    </contour>
  </outline>
</glyph>
<glyph name="nine" format="2">
  <advance width="360"/>
  <unicode hex="0039"/>
  <outline>
    <contour>
      <point x="154" y="-10" type="curve"/>
      <point x="274" y="-10"/>
      <point x="317" y="72"/>
      <point x="317" y="380" type="curve"/>
      <point x="317" y="624"/>
      <point x="283" y="709"/>
      <point x="173" y="709" type="curve"/>
      <point x="99" y="709"/>
      <point x="36" y="640"/>
      <point x="36" y="490" type="curve"/>
      <point x="36" y="358"/>
      <point x="76" y="261"/>
      <point x="164" y="261" type="curve"/>
      <point x="236" y="261"/>
      <point x="271" y="324"/>
      <point x="277" y="362" type="curve"/>
      <point x="253" y="470" type="line"/>
      <point x="253" y="396"/>
      <point x="231" y="321"/>
      <point x="169" y="321" type="curve"/>
      <point x="115" y="321"/>
      <point x="99" y="400"/>
      <point x="99" y="482" type="curve"/>
      <point x="99" y="602"/>
      <point x="131" y="653"/>
      <point x="175" y="653" type="curve"/>
      <point x="262" y="653"/>
      <point x="253" y="525"/>
      <point x="253" y="331" type="curve" smooth="yes"/>
      <point x="253" y="191"/>
      <point x="247" y="48"/>
      <point x="161" y="48" type="curve"/>
      <point x="118" y="48"/>
      <point x="104" y="79"/>
      <point x="104" y="129" type="curve"/>
      <point x="104" y="145"/>
      <point x="105" y="171"/>
      <point x="108" y="183" type="curve"/>
      <point x="46" y="181" type="line"/>
      <point x="42" y="162"/>
      <point x="41" y="144"/>
      <point x="41" y="117" type="curve"/>
      <point x="41" y="31"/>
      <point x="94" y="-10"/>
    </contour>
  </outline>
</glyph>
<glyph name="colon" format="2">
  <advance width="206"/>
  <unicode hex="003A"/>
  <outline>
    <contour>
      <point x="141" y="0" type="line"/>
      <point x="141" y="138" type="line"/>
      <point x="65" y="131" type="line"/>
      <point x="68" y="0" type="line"/>
    </contour>
    <contour>
      <point x="141" y="423" type="line"/>
      <point x="141" y="560" type="line"/>
      <point x="65" y="553" type="line"/>
      <point x="68" y="423" type="line"/>
    </contour>
  </outline>
</glyph>
<glyph name="semicolon" format="2">
  <advance width="211"/>
  <unicode hex="003B"/>
  <outline>
    <contour>
      <point x="109" y="-134" type="line"/>
      <point x="132" y="-96"/>
      <point x="146" y="-50"/>
      <point x="146" y="1" type="curve" smooth="yes"/>
      <point x="146" y="125" type="line"/>
      <point x="65" y="118" type="line"/>
      <point x="67" y="0" type="line"/>
      <point x="106" y="-3" type="line"/>
      <point x="106" y="-44"/>
      <point x="96" y="-79"/>
      <point x="74" y="-117" type="curve"/>
    </contour>
    <contour>
      <point x="144" y="423" type="line"/>
      <point x="144" y="560" type="line"/>
      <point x="68" y="553" type="line"/>
      <point x="71" y="423" type="line"/>
    </contour>
  </outline>
</glyph>
<glyph name="less" format="2">
  <advance width="508"/>
  <unicode hex="003C"/>
  <outline>
    <contour>
      <point x="428" y="476" type="line"/>
      <point x="394" y="460"/>
      <point x="288" y="410"/>
      <point x="235" y="385" type="curve"/>
      <point x="168" y="354"/>
      <point x="82" y="310"/>
      <point x="82" y="310" type="curve"/>
      <point x="75" y="249" type="line"/>
      <point x="75" y="249"/>
      <point x="200" y="303"/>
      <point x="272" y="332" type="curve"/>
      <point x="346" y="360"/>
      <point x="433" y="395"/>
      <point x="433" y="395" type="curve"/>
    </contour>
    <contour>
      <point x="433" y="104" type="curve"/>
      <point x="429" y="185" type="line"/>
      <point x="429" y="185"/>
      <point x="330" y="218"/>
      <point x="263" y="242" type="curve"/>
      <point x="193" y="267"/>
      <point x="82" y="310"/>
      <point x="82" y="310" type="curve"/>
      <point x="75" y="249" type="line"/>
      <point x="75" y="249"/>
      <point x="178" y="208"/>
      <point x="251" y="180" type="curve"/>
      <point x="310" y="161"/>
      <point x="393" y="124"/>
    </contour>
  </outline>
</glyph>
<glyph name="greater" format="2">
  <advance width="508"/>
  <unicode hex="003E"/>
  <outline>
    <contour>
      <point x="80" y="104" type="line"/>
      <point x="80" y="104"/>
      <point x="210" y="165"/>
      <point x="273" y="195" type="curve"/>
      <point x="340" y="226"/>
      <point x="426" y="270"/>
      <point x="426" y="270" type="curve"/>
      <point x="433" y="331" type="line"/>
      <point x="433" y="331"/>
      <point x="308" y="277"/>
      <point x="236" y="248" type="curve"/>
      <point x="162" y="220"/>
      <point x="75" y="185"/>
      <point x="75" y="185" type="curve"/>
    </contour>
    <contour>
      <point x="75" y="476" type="curve"/>
      <point x="79" y="395" type="line"/>
      <point x="79" y="395"/>
      <point x="178" y="362"/>
      <point x="245" y="338" type="curve"/>
      <point x="315" y="313"/>
      <point x="426" y="270"/>
      <point x="426" y="270" type="curve"/>
      <point x="433" y="331" type="line"/>
      <point x="433" y="331"/>
      <point x="330" y="372"/>
      <point x="257" y="400" type="curve"/>
      <point x="192" y="423"/>
      <point x="94" y="467"/>
    </contour>
  </outline>
</glyph>
<glyph name="question" format="2">
  <advance width="395"/>
  <unicode hex="003F"/>
  <outline>
    <contour>
      <point x="225" y="215" type="line"/>
      <point x="221" y="235"/>
      <point x="218" y="251"/>
      <point x="218" y="276" type="curve" smooth="yes"/>
      <point x="218" y="323"/>
      <point x="239" y="349"/>
      <point x="263" y="378" type="curve" smooth="yes"/>
      <point x="294" y="417"/>
      <point x="330" y="463"/>
      <point x="330" y="571" type="curve" smooth="yes"/>
      <point x="330" y="667"/>
      <point x="274" y="715"/>
      <point x="205" y="715" type="curve" smooth="yes"/>
      <point x="145" y="715"/>
      <point x="65" y="695"/>
      <point x="65" y="560" type="curve" smooth="yes"/>
      <point x="65" y="520"/>
      <point x="69" y="483"/>
      <point x="76" y="456" type="curve"/>
      <point x="140" y="455" type="line"/>
      <point x="134" y="485"/>
      <point x="130" y="514"/>
      <point x="130" y="551" type="curve" smooth="yes"/>
      <point x="130" y="629"/>
      <point x="158" y="654"/>
      <point x="199" y="654" type="curve" smooth="yes"/>
      <point x="244" y="654"/>
      <point x="266" y="610"/>
      <point x="266" y="569" type="curve" smooth="yes"/>
      <point x="266" y="488"/>
      <point x="238" y="447"/>
      <point x="210" y="410" type="curve" smooth="yes"/>
      <point x="182" y="374"/>
      <point x="155" y="342"/>
      <point x="155" y="282" type="curve" smooth="yes"/>
      <point x="155" y="257"/>
      <point x="158" y="231"/>
      <point x="161" y="216" type="curve"/>
    </contour>
    <contour>
      <point x="238" y="-3" type="line"/>
      <point x="229" y="128" type="line"/>
      <point x="159" y="126" type="line"/>
      <point x="158" y="0" type="line"/>
    </contour>
  </outline>
</glyph>
<glyph name="at" format="2">
  <advance width="812"/>
  <unicode hex="0040"/>
  <outline>
    <contour>
      <point x="388" y="-154" type="curve" smooth="yes"/>
      <point x="489" y="-154"/>
      <point x="577" y="-138"/>
      <point x="649" y="-102" type="curve"/>
      <point x="625" y="-59" type="line"/>
      <point x="564" y="-90"/>
      <point x="480" y="-105"/>
      <point x="388" y="-105" type="curve" smooth="yes"/>
      <point x="210" y="-105"/>
      <point x="117" y="18"/>
      <point x="117" y="234" type="curve" smooth="yes"/>
      <point x="117" y="490"/>
      <point x="263" y="649"/>
      <point x="438" y="649" type="curve" smooth="yes"/>
      <point x="598" y="649"/>
      <point x="695" y="557"/>
      <point x="695" y="347" type="curve" smooth="yes"/>
      <point x="695" y="133"/>
      <point x="612" y="39"/>
      <point x="541" y="39" type="curve" smooth="yes"/>
      <point x="494" y="39"/>
      <point x="492" y="81"/>
      <point x="492" y="114" type="curve" smooth="yes"/>
      <point x="492" y="165"/>
      <point x="524" y="401"/>
      <point x="550" y="565" type="curve"/>
      <point x="489" y="555" type="line"/>
      <point x="483" y="497" type="line"/>
      <point x="475" y="534"/>
      <point x="454" y="561"/>
      <point x="414" y="561" type="curve" smooth="yes"/>
      <point x="287" y="561"/>
      <point x="241" y="322"/>
      <point x="241" y="147" type="curve" smooth="yes"/>
      <point x="241" y="45"/>
      <point x="277" y="-10"/>
      <point x="335" y="-10" type="curve" smooth="yes"/>
      <point x="382" y="-10"/>
      <point x="415" y="22"/>
      <point x="438" y="71" type="curve"/>
      <point x="445" y="31"/>
      <point x="468" y="-10"/>
      <point x="532" y="-10" type="curve" smooth="yes"/>
      <point x="675" y="-10"/>
      <point x="749" y="155"/>
      <point x="749" y="347" type="curve" smooth="yes"/>
      <point x="749" y="582"/>
      <point x="619" y="698"/>
      <point x="438" y="698" type="curve" smooth="yes"/>
      <point x="223" y="698"/>
      <point x="62" y="503"/>
      <point x="62" y="234" type="curve" smooth="yes"/>
      <point x="62" y="-10"/>
      <point x="169" y="-154"/>
    </contour>
    <contour>
      <point x="349" y="45" type="curve" smooth="yes"/>
      <point x="310" y="45"/>
      <point x="299" y="84"/>
      <point x="299" y="157" type="curve" smooth="yes"/>
      <point x="299" y="283"/>
      <point x="337" y="505"/>
      <point x="414" y="505" type="curve" smooth="yes"/>
      <point x="460" y="505"/>
      <point x="470" y="433"/>
      <point x="462" y="362" type="curve" smooth="yes"/>
      <point x="449" y="251" type="line" smooth="yes"/>
      <point x="434" y="119"/>
      <point x="401" y="45"/>
    </contour>
  </outline>
</glyph>
<glyph name="A" format="2">
  <advance width="335"/>
  <unicode hex="0041"/>
  <anchor x="163" y="0" name="bottom"/>
  <anchor x="290" y="0" name="ogonek"/>
  <anchor x="168" y="693" name="top"/>
  <outline>
    <contour>
      <point x="247" y="-6" type="curve"/>
      <point x="323" y="-1" type="line"/>
      <point x="308" y="78"/>
      <point x="282" y="230"/>
      <point x="263" y="359" type="curve"/>
      <point x="245" y="491"/>
      <point x="229" y="633"/>
      <point x="222" y="704" type="curve"/>
      <point x="114" y="702" type="line"/>
      <point x="163" y="642" type="line"/>
      <point x="175" y="579"/>
      <point x="194" y="433"/>
      <point x="204" y="349" type="curve"/>
      <point x="220" y="221"/>
      <point x="238" y="71"/>
    </contour>
    <contour>
      <point x="65" y="164" type="line"/>
      <point x="261" y="171" type="line"/>
      <point x="261" y="224" type="line"/>
      <point x="65" y="228" type="line"/>
    </contour>
    <contour>
      <point x="82" y="5" type="line"/>
      <point x="93" y="90"/>
      <point x="112" y="242"/>
      <point x="127" y="349" type="curve"/>
      <point x="144" y="475"/>
      <point x="157" y="573"/>
      <point x="169" y="636" type="curve"/>
      <point x="222" y="704" type="line"/>
      <point x="114" y="702" type="line"/>
      <point x="106" y="631"/>
      <point x="89" y="489"/>
      <point x="70" y="359" type="curve"/>
      <point x="50" y="231"/>
      <point x="25" y="82"/>
      <point x="12" y="6" type="curve"/>
    </contour>
  </outline>
</glyph>
<glyph name="B" format="2">
  <advance width="333"/>
  <unicode hex="0042"/>
  <outline>
    <contour>
      <point x="104" y="213" type="line"/>
      <point x="233" y="213"/>
      <point x="300" y="276"/>
      <point x="300" y="472" type="curve"/>
      <point x="300" y="669"/>
      <point x="251" y="719"/>
      <point x="154" y="719" type="curve"/>
      <point x="117" y="719"/>
      <point x="83" y="716"/>
      <point x="51" y="713" type="curve"/>
      <point x="74" y="652" type="line"/>
      <point x="99" y="658"/>
      <point x="115" y="661"/>
      <point x="161" y="661" type="curve"/>
      <point x="210" y="661"/>
      <point x="237" y="616"/>
      <point x="237" y="469" type="curve"/>
      <point x="237" y="303"/>
      <point x="195" y="260"/>
      <point x="100" y="260" type="curve"/>
    </contour>
    <contour>
      <point x="161" y="-10" type="curve"/>
      <point x="245" y="-10"/>
      <point x="307" y="34"/>
      <point x="307" y="124" type="curve"/>
      <point x="307" y="217"/>
      <point x="240" y="260"/>
      <point x="100" y="260" type="curve"/>
      <point x="104" y="206" type="line"/>
      <point x="118" y="207"/>
      <point x="131" y="207"/>
      <point x="142" y="206" type="curve" smooth="yes"/>
      <point x="219" y="203"/>
      <point x="244" y="173"/>
      <point x="244" y="126" type="curve" smooth="yes"/>
      <point x="244" y="76"/>
      <point x="217" y="48"/>
      <point x="164" y="48" type="curve"/>
      <point x="138" y="48"/>
      <point x="107" y="53"/>
      <point x="82" y="56" type="curve"/>
      <point x="48" y="-6" type="line"/>
      <point x="80" y="-9"/>
      <point x="124" y="-10"/>
    </contour>
    <contour>
      <point x="48" y="-6" type="curve"/>
      <point x="118" y="4" type="line"/>
      <point x="118" y="4"/>
      <point x="113" y="218"/>
      <point x="113" y="335" type="curve"/>
      <point x="113" y="451"/>
      <point x="122" y="704"/>
      <point x="122" y="704" type="curve"/>
      <point x="51" y="713" type="line"/>
      <point x="51" y="713"/>
      <point x="52" y="504"/>
      <point x="52" y="333" type="curve"/>
      <point x="52" y="162"/>
      <point x="48" y="-6"/>
    </contour>
  </outline>
</glyph>
<glyph name="C" format="2">
  <advance width="332"/>
  <unicode hex="0043"/>
  <anchor x="170" y="0" name="bottom"/>
  <anchor x="178" y="693" name="top"/>
  <outline>
    <contour>
      <point x="176" y="-10" type="curve"/>
      <point x="249" y="-10"/>
      <point x="294" y="46"/>
      <point x="294" y="122" type="curve" smooth="yes"/>
      <point x="294" y="144"/>
      <point x="292" y="184"/>
      <point x="288" y="208" type="curve"/>
      <point x="228" y="206" type="line"/>
      <point x="231" y="170"/>
      <point x="232" y="145"/>
      <point x="232" y="125" type="curve" smooth="yes"/>
      <point x="232" y="81"/>
      <point x="212" y="49"/>
      <point x="178" y="49" type="curve" smooth="yes"/>
      <point x="124" y="49"/>
      <point x="109" y="83"/>
      <point x="105" y="152" type="curve" smooth="yes"/>
      <point x="103" y="185"/>
      <point x="102" y="252"/>
      <point x="102" y="336" type="curve" smooth="yes"/>
      <point x="102" y="399"/>
      <point x="107" y="522"/>
      <point x="116" y="568" type="curve" smooth="yes"/>
      <point x="127" y="626"/>
      <point x="145" y="642"/>
      <point x="182" y="642" type="curve" smooth="yes"/>
      <point x="202" y="642"/>
      <point x="236" y="631"/>
      <point x="236" y="555" type="curve" smooth="yes"/>
      <point x="236" y="476"/>
      <point x="232" y="428"/>
      <point x="223" y="353" type="curve"/>
      <point x="285" y="352" type="line"/>
      <point x="295" y="420"/>
      <point x="300" y="490"/>
      <point x="299" y="556" type="curve" smooth="yes"/>
      <point x="298" y="650"/>
      <point x="251" y="701"/>
      <point x="184" y="701" type="curve" smooth="yes"/>
      <point x="112" y="701"/>
      <point x="71" y="656"/>
      <point x="58" y="601" type="curve" smooth="yes"/>
      <point x="38" y="516"/>
      <point x="37" y="413"/>
      <point x="37" y="340" type="curve" smooth="yes"/>
      <point x="37" y="261"/>
      <point x="35" y="196"/>
      <point x="42" y="127" type="curve" smooth="yes"/>
      <point x="51" y="36"/>
      <point x="89" y="-10"/>
    </contour>
  </outline>
</glyph>
<glyph name="D" format="2">
  <advance width="346"/>
  <unicode hex="0044"/>
  <anchor x="107" y="348" name="center"/>
  <anchor x="163" y="693" name="top"/>
  <outline>
    <contour>
      <point x="161" y="-10" type="curve"/>
      <point x="299" y="-10"/>
      <point x="309" y="159"/>
      <point x="309" y="359" type="curve" smooth="yes"/>
      <point x="309" y="614"/>
      <point x="281" y="708"/>
      <point x="151" y="708" type="curve" smooth="yes"/>
      <point x="114" y="708"/>
      <point x="80" y="705"/>
      <point x="48" y="702" type="curve"/>
      <point x="71" y="640" type="line"/>
      <point x="90" y="646"/>
      <point x="120" y="651"/>
      <point x="155" y="651" type="curve"/>
      <point x="237" y="651"/>
      <point x="246" y="540"/>
      <point x="246" y="354" type="curve" smooth="yes"/>
      <point x="246" y="119"/>
      <point x="220" y="53"/>
      <point x="159" y="53" type="curve"/>
      <point x="139" y="53"/>
      <point x="112" y="55"/>
      <point x="96" y="60" type="curve"/>
      <point x="51" y="-3" type="line"/>
      <point x="91" y="-8"/>
      <point x="113" y="-10"/>
    </contour>
    <contour>
      <point x="51" y="-3" type="curve"/>
      <point x="119" y="-3" type="line"/>
      <point x="117" y="104"/>
      <point x="115" y="277"/>
      <point x="115" y="361" type="curve"/>
      <point x="116" y="459"/>
      <point x="117" y="616"/>
      <point x="118" y="692" type="curve"/>
      <point x="48" y="702" type="line"/>
      <point x="51" y="630"/>
      <point x="55" y="488"/>
      <point x="55" y="363" type="curve"/>
      <point x="55" y="238"/>
      <point x="53" y="81"/>
    </contour>
  </outline>
</glyph>
<glyph name="E" format="2">
  <advance width="303"/>
  <unicode hex="0045"/>
  <anchor x="163" y="0" name="bottom"/>
  <anchor x="266" y="-3" name="ogonek"/>
  <anchor x="165" y="693" name="top"/>
  <outline>
    <contour>
      <point x="48" y="-5" type="curve"/>
      <point x="119" y="5" type="line"/>
      <point x="119" y="5"/>
      <point x="115" y="277"/>
      <point x="115" y="393" type="curve"/>
      <point x="115" y="509"/>
      <point x="118" y="690"/>
      <point x="118" y="690" type="curve"/>
      <point x="48" y="699" type="line"/>
      <point x="48" y="699"/>
      <point x="51" y="562"/>
      <point x="51" y="391" type="curve"/>
      <point x="51" y="220"/>
      <point x="48" y="-5"/>
    </contour>
    <contour>
      <point x="48" y="-5" type="line"/>
      <point x="278" y="0" type="line"/>
      <point x="278" y="57" type="line"/>
      <point x="92" y="62" type="line"/>
    </contour>
    <contour>
      <point x="87" y="205" type="line"/>
      <point x="273" y="209" type="line"/>
      <point x="275" y="266" type="line"/>
      <point x="87" y="269" type="line"/>
    </contour>
    <contour>
      <point x="80" y="629" type="line"/>
      <point x="266" y="630" type="line"/>
      <point x="266" y="693" type="line"/>
      <point x="48" y="699" type="line"/>
    </contour>
  </outline>
</glyph>
<glyph name="F" format="2">
  <advance width="286"/>
  <unicode hex="0046"/>
  <outline>
    <contour>
      <point x="48" y="-3" type="curve"/>
      <point x="119" y="0" type="line"/>
      <point x="119" y="0"/>
      <point x="115" y="206"/>
      <point x="115" y="322" type="curve"/>
      <point x="115" y="438"/>
      <point x="119" y="699"/>
      <point x="119" y="699" type="curve"/>
      <point x="49" y="709" type="line"/>
      <point x="49" y="709"/>
      <point x="52" y="495"/>
      <point x="52" y="324" type="curve"/>
      <point x="52" y="153"/>
      <point x="48" y="-3"/>
    </contour>
    <contour>
      <point x="89" y="243" type="line"/>
      <point x="271" y="252" type="line"/>
      <point x="269" y="305" type="line"/>
      <point x="89" y="307" type="line"/>
    </contour>
    <contour>
      <point x="92" y="642" type="line"/>
      <point x="262" y="644" type="line"/>
      <point x="265" y="702" type="line"/>
      <point x="49" y="709" type="line"/>
    </contour>
  </outline>
</glyph>
<glyph name="G" format="2">
  <advance width="333"/>
  <unicode hex="0047"/>
  <anchor x="170" y="0" name="bottom"/>
  <anchor x="172" y="693" name="top"/>
  <outline>
    <contour>
      <point x="37" y="347" type="curve" smooth="yes"/>
      <point x="37" y="267"/>
      <point x="40" y="203"/>
      <point x="45" y="129" type="curve" smooth="yes"/>
      <point x="51" y="38"/>
      <point x="95" y="-7"/>
      <point x="164" y="-7" type="curve" smooth="yes"/>
      <point x="204" y="-7"/>
      <point x="234" y="10"/>
      <point x="254" y="34" type="curve"/>
      <point x="272" y="0" type="line"/>
      <point x="298" y="0" type="line"/>
      <point x="292" y="254" type="line"/>
      <point x="175" y="256" type="line"/>
      <point x="175" y="198" type="line"/>
      <point x="234" y="200" type="line"/>
      <point x="236" y="176"/>
      <point x="235" y="156"/>
      <point x="235" y="141" type="curve" smooth="yes"/>
      <point x="235" y="92"/>
      <point x="221" y="51"/>
      <point x="179" y="51" type="curve" smooth="yes"/>
      <point x="125" y="51"/>
      <point x="111" y="86"/>
      <point x="108" y="154" type="curve" smooth="yes"/>
      <point x="106" y="188"/>
      <point x="102" y="258"/>
      <point x="102" y="342" type="curve" smooth="yes"/>
      <point x="102" y="406"/>
      <point x="101" y="519"/>
      <point x="108" y="565" type="curve" smooth="yes"/>
      <point x="119" y="632"/>
      <point x="138" y="651"/>
      <point x="174" y="651" type="curve" smooth="yes"/>
      <point x="199" y="651"/>
      <point x="232" y="636"/>
      <point x="232" y="561" type="curve" smooth="yes"/>
      <point x="232" y="514"/>
      <point x="228" y="461"/>
      <point x="218" y="386" type="curve"/>
      <point x="281" y="386" type="line"/>
      <point x="288" y="456"/>
      <point x="293" y="519"/>
      <point x="293" y="566" type="curve" smooth="yes"/>
      <point x="293" y="659"/>
      <point x="243" y="710"/>
      <point x="175" y="710" type="curve" smooth="yes"/>
      <point x="96" y="710"/>
      <point x="56" y="656"/>
      <point x="47" y="586" type="curve" smooth="yes"/>
      <point x="35" y="492"/>
      <point x="37" y="419"/>
    </contour>
  </outline>
</glyph>
<glyph name="H" format="2">
  <advance width="364"/>
  <unicode hex="0048"/>
  <anchor x="180" y="0" name="bottom"/>
  <anchor x="179" y="459" name="center"/>
  <anchor x="179" y="693" name="top"/>
  <outline>
    <contour>
      <point x="242" y="0" type="curve"/>
      <point x="313" y="0" type="line"/>
      <point x="313" y="0"/>
      <point x="309" y="212"/>
      <point x="309" y="383" type="curve"/>
      <point x="309" y="554"/>
      <point x="316" y="708"/>
      <point x="316" y="708" type="curve"/>
      <point x="246" y="706" type="line"/>
      <point x="246" y="706"/>
      <point x="249" y="497"/>
      <point x="249" y="381" type="curve"/>
      <point x="249" y="265"/>
      <point x="242" y="0"/>
    </contour>
    <contour>
      <point x="88" y="247" type="line"/>
      <point x="88" y="194" type="line"/>
      <point x="284" y="190" type="line"/>
      <point x="284" y="254" type="line"/>
    </contour>
    <contour>
      <point x="51" y="2" type="curve"/>
      <point x="119" y="3" type="line"/>
      <point x="119" y="3"/>
      <point x="115" y="235"/>
      <point x="115" y="352" type="curve"/>
      <point x="115" y="468"/>
      <point x="118" y="698"/>
      <point x="118" y="698" type="curve"/>
      <point x="48" y="694" type="line"/>
      <point x="48" y="694"/>
      <point x="55" y="524"/>
      <point x="55" y="353" type="curve"/>
      <point x="55" y="183"/>
      <point x="51" y="2"/>
    </contour>
  </outline>
</glyph>
<glyph name="I" format="2">
  <advance width="164"/>
  <unicode hex="0049"/>
  <anchor x="80" y="0" name="bottom"/>
  <anchor x="83" y="0" name="ogonek"/>
  <anchor x="82" y="693" name="top"/>
  <outline>
    <contour>
      <point x="47" y="699" type="line"/>
      <point x="49" y="657"/>
      <point x="48" y="487"/>
      <point x="48" y="328" type="curve"/>
      <point x="48" y="157"/>
      <point x="43" y="1"/>
      <point x="43" y="1" type="curve"/>
      <point x="116" y="-1" type="line"/>
      <point x="116" y="-1"/>
      <point x="111" y="213"/>
      <point x="111" y="330" type="curve"/>
      <point x="111" y="446"/>
      <point x="121" y="701"/>
      <point x="121" y="701" type="curve"/>
    </contour>
  </outline>
</glyph>
<glyph name="J" format="2">
  <advance width="298"/>
  <unicode hex="004A"/>
  <anchor x="217" y="693" name="top"/>
  <outline>
    <contour>
      <point x="130" y="-10" type="curve"/>
      <point x="225" y="-10"/>
      <point x="251" y="62"/>
      <point x="251" y="161" type="curve"/>
      <point x="251" y="231"/>
      <point x="251" y="334"/>
      <point x="251" y="402" type="curve"/>
      <point x="251" y="492"/>
      <point x="251" y="604"/>
      <point x="253" y="697" type="curve"/>
      <point x="182" y="695" type="line"/>
      <point x="186" y="608"/>
      <point x="187" y="464"/>
      <point x="187" y="396" type="curve"/>
      <point x="188" y="319"/>
      <point x="188" y="213"/>
      <point x="188" y="173" type="curve"/>
      <point x="188" y="72"/>
      <point x="174" y="48"/>
      <point x="132" y="48" type="curve"/>
      <point x="87" y="48"/>
      <point x="79" y="85"/>
      <point x="79" y="137" type="curve"/>
      <point x="79" y="177"/>
      <point x="79" y="218"/>
      <point x="87" y="298" type="curve"/>
      <point x="23" y="299" type="line"/>
      <point x="20" y="248"/>
      <point x="16" y="202"/>
      <point x="16" y="136" type="curve"/>
      <point x="16" y="65"/>
      <point x="35" y="-10"/>
    </contour>
  </outline>
</glyph>
<glyph name="K" format="2">
  <advance width="319"/>
  <unicode hex="004B"/>
  <anchor x="174" y="0" name="bottom"/>
  <outline>
    <contour>
      <point x="244" y="1" type="curve"/>
      <point x="333" y="5" type="line"/>
      <point x="271" y="104"/>
      <point x="212" y="207"/>
      <point x="168" y="301" type="curve"/>
      <point x="204" y="405"/>
      <point x="280" y="605"/>
      <point x="326" y="704" type="curve"/>
      <point x="251" y="702" type="line"/>
      <point x="223" y="609"/>
      <point x="161" y="435"/>
      <point x="99" y="281" type="curve"/>
      <point x="150" y="190"/>
      <point x="208" y="89"/>
    </contour>
    <contour>
      <point x="48" y="0" type="curve"/>
      <point x="121" y="0" type="line"/>
      <point x="121" y="0"/>
      <point x="117" y="212"/>
      <point x="117" y="357" type="curve"/>
      <point x="117" y="503"/>
      <point x="123" y="702"/>
      <point x="123" y="702" type="curve"/>
      <point x="51" y="703" type="line"/>
      <point x="51" y="703"/>
      <point x="54" y="499"/>
      <point x="54" y="356" type="curve"/>
      <point x="54" y="213"/>
      <point x="48" y="0"/>
    </contour>
  </outline>
</glyph>
<glyph name="M" format="2">
  <advance width="499"/>
  <unicode hex="004D"/>
  <outline>
    <contour>
      <point x="48" y="-1" type="curve"/>
      <point x="110" y="-1" type="line"/>
      <point x="110" y="-1"/>
      <point x="107" y="251"/>
      <point x="107" y="367" type="curve" smooth="yes"/>
      <point x="107" y="439"/>
      <point x="106" y="512"/>
      <point x="106" y="584" type="curve"/>
      <point x="117" y="524"/>
      <point x="130" y="454"/>
      <point x="142" y="381" type="curve" smooth="yes"/>
      <point x="172" y="201"/>
      <point x="206" y="10"/>
      <point x="206" y="10" type="curve"/>
      <point x="287" y="7" type="line"/>
      <point x="287" y="7"/>
      <point x="322" y="200"/>
      <point x="350" y="377" type="curve" smooth="yes"/>
      <point x="362" y="452"/>
      <point x="375" y="526"/>
      <point x="386" y="587" type="curve"/>
      <point x="386" y="523"/>
      <point x="387" y="449"/>
      <point x="387" y="394" type="curve" smooth="yes"/>
      <point x="387" y="318"/>
      <point x="385" y="0"/>
      <point x="385" y="0" type="curve"/>
      <point x="451" y="-2" type="line"/>
      <point x="451" y="-2"/>
      <point x="447" y="205"/>
      <point x="447" y="376" type="curve" smooth="yes"/>
      <point x="447" y="547"/>
      <point x="450" y="697"/>
      <point x="450" y="697" type="curve"/>
      <point x="349" y="697" type="line"/>
      <point x="330" y="583"/>
      <point x="312" y="467"/>
      <point x="293" y="353" type="curve" smooth="yes"/>
      <point x="279" y="271"/>
      <point x="260" y="146"/>
      <point x="247" y="75" type="curve"/>
      <point x="234" y="150"/>
      <point x="214" y="266"/>
      <point x="201" y="349" type="curve" smooth="yes"/>
      <point x="174" y="522"/>
      <point x="142" y="704"/>
      <point x="142" y="704" type="curve"/>
      <point x="49" y="702" type="line"/>
      <point x="49" y="702"/>
      <point x="52" y="520"/>
      <point x="52" y="349" type="curve" smooth="yes"/>
      <point x="52" y="178"/>
      <point x="48" y="-1"/>
    </contour>
  </outline>
</glyph>
<glyph name="N" format="2">
  <advance width="373"/>
  <unicode hex="004E"/>
  <anchor x="189" y="0" name="bottom"/>
  <anchor x="192" y="693" name="top"/>
  <outline>
    <contour>
      <point x="48" y="704" type="line"/>
      <point x="48" y="704"/>
      <point x="54" y="527"/>
      <point x="54" y="356" type="curve" smooth="yes"/>
      <point x="54" y="185"/>
      <point x="51" y="1"/>
      <point x="51" y="1" type="curve"/>
      <point x="111" y="0" type="line"/>
      <point x="111" y="0"/>
      <point x="108" y="238"/>
      <point x="108" y="354" type="curve" smooth="yes"/>
      <point x="108" y="420"/>
      <point x="107" y="487"/>
      <point x="107" y="553" type="curve"/>
      <point x="124" y="489"/>
      <point x="142" y="403"/>
      <point x="157" y="344" type="curve" smooth="yes"/>
      <point x="199" y="174"/>
      <point x="230" y="1"/>
      <point x="230" y="1" type="curve"/>
      <point x="323" y="9" type="line"/>
      <point x="323" y="9"/>
      <point x="319" y="212"/>
      <point x="319" y="383" type="curve" smooth="yes"/>
      <point x="319" y="554"/>
      <point x="325" y="715"/>
      <point x="325" y="715" type="curve"/>
      <point x="262" y="715" type="line"/>
      <point x="262" y="715"/>
      <point x="265" y="497"/>
      <point x="265" y="381" type="curve" smooth="yes"/>
      <point x="265" y="324"/>
      <point x="266" y="229"/>
      <point x="266" y="150" type="curve"/>
      <point x="254" y="201"/>
      <point x="236" y="276"/>
      <point x="213" y="369" type="curve" smooth="yes"/>
      <point x="169" y="545"/>
      <point x="138" y="704"/>
      <point x="138" y="704" type="curve"/>
    </contour>
  </outline>
</glyph>
<glyph name="P" format="2">
  <advance width="313"/>
  <unicode hex="0050"/>
  <outline>
    <contour>
      <point x="102" y="211" type="line"/>
      <point x="230" y="211"/>
      <point x="299" y="261"/>
      <point x="299" y="457" type="curve"/>
      <point x="299" y="654"/>
      <point x="248" y="713"/>
      <point x="151" y="713" type="curve" smooth="yes"/>
      <point x="114" y="713"/>
      <point x="81" y="712"/>
      <point x="49" y="710" type="curve"/>
      <point x="71" y="650" type="line"/>
      <point x="98" y="654"/>
      <point x="120" y="656"/>
      <point x="147" y="656" type="curve" smooth="yes"/>
      <point x="208" y="656"/>
      <point x="236" y="601"/>
      <point x="236" y="454" type="curve"/>
      <point x="236" y="288"/>
      <point x="193" y="272"/>
      <point x="98" y="272" type="curve"/>
    </contour>
    <contour>
      <point x="48" y="-6" type="curve"/>
      <point x="120" y="-2" type="line"/>
      <point x="118" y="103"/>
      <point x="116" y="274"/>
      <point x="116" y="359" type="curve"/>
      <point x="116" y="457"/>
      <point x="120" y="612"/>
      <point x="122" y="703" type="curve"/>
      <point x="49" y="710" type="line"/>
      <point x="50" y="632"/>
      <point x="52" y="482"/>
      <point x="52" y="357" type="curve"/>
      <point x="52" y="232"/>
      <point x="50" y="77"/>
    </contour>
  </outline>
</glyph>
<glyph name="Q" format="2">
  <advance width="353"/>
  <unicode hex="0051"/>
  <outline>
    <contour>
      <point x="169" y="-5" type="curve"/>
      <point x="249" y="-5"/>
      <point x="283" y="47"/>
      <point x="296" y="106" type="curve" smooth="yes"/>
      <point x="314" y="186"/>
      <point x="316" y="283"/>
      <point x="316" y="355" type="curve" smooth="yes"/>
      <point x="316" y="435"/>
      <point x="315" y="500"/>
      <point x="308" y="569" type="curve" smooth="yes"/>
      <point x="299" y="660"/>
      <point x="252" y="705"/>
      <point x="185" y="705" type="curve" smooth="yes"/>
      <point x="110" y="705"/>
      <point x="61" y="668"/>
      <point x="48" y="563" type="curve" smooth="yes"/>
      <point x="43" y="522"/>
      <point x="37" y="410"/>
      <point x="37" y="357" type="curve" smooth="yes"/>
      <point x="37" y="304"/>
      <point x="37" y="212"/>
      <point x="45" y="146" type="curve" smooth="yes"/>
      <point x="57" y="48"/>
      <point x="81" y="-5"/>
    </contour>
    <contour>
      <point x="172" y="47" type="curve"/>
      <point x="141" y="47"/>
      <point x="118" y="67"/>
      <point x="109" y="155" type="curve" smooth="yes"/>
      <point x="102" y="237"/>
      <point x="104" y="296"/>
      <point x="104" y="345" type="curve" smooth="yes"/>
      <point x="104" y="395"/>
      <point x="107" y="509"/>
      <point x="114" y="563" type="curve" smooth="yes"/>
      <point x="119" y="609"/>
      <point x="141" y="651"/>
      <point x="181" y="651" type="curve" smooth="yes"/>
      <point x="225" y="651"/>
      <point x="241" y="612"/>
      <point x="244" y="544" type="curve" smooth="yes"/>
      <point x="245" y="511"/>
      <point x="248" y="444"/>
      <point x="248" y="360" type="curve" smooth="yes"/>
      <point x="248" y="297"/>
      <point x="248" y="224"/>
      <point x="246" y="176" type="curve" smooth="yes"/>
      <point x="241" y="55"/>
      <point x="206" y="47"/>
    </contour>
    <contour>
      <point x="297" y="-69" type="line"/>
      <point x="346" y="-25" type="line"/>
      <point x="188" y="138" type="line"/>
      <point x="155" y="104" type="line"/>
    </contour>
  </outline>
</glyph>
<glyph name="R" format="2">
  <advance width="342"/>
  <unicode hex="0052"/>
  <anchor x="178" y="0" name="bottom"/>
  <anchor x="165" y="693" name="top"/>
  <outline>
    <contour>
      <point x="101" y="219" type="line"/>
      <point x="226" y="219"/>
      <point x="298" y="269"/>
      <point x="298" y="466" type="curve"/>
      <point x="298" y="651"/>
      <point x="247" y="708"/>
      <point x="151" y="708" type="curve"/>
      <point x="113" y="708"/>
      <point x="81" y="707"/>
      <point x="48" y="705" type="curve"/>
      <point x="71" y="644" type="line"/>
      <point x="97" y="649"/>
      <point x="119" y="651"/>
      <point x="146" y="651" type="curve"/>
      <point x="207" y="651"/>
      <point x="235" y="598"/>
      <point x="235" y="462" type="curve"/>
      <point x="235" y="296"/>
      <point x="189" y="281"/>
      <point x="97" y="281" type="curve"/>
    </contour>
    <contour>
      <point x="48" y="-6" type="curve"/>
      <point x="119" y="0" type="line"/>
      <point x="117" y="102"/>
      <point x="115" y="269"/>
      <point x="115" y="354" type="curve"/>
      <point x="115" y="439"/>
      <point x="118" y="600"/>
      <point x="121" y="698" type="curve"/>
      <point x="48" y="705" type="line"/>
      <point x="50" y="627"/>
      <point x="52" y="477"/>
      <point x="52" y="352" type="curve"/>
      <point x="52" y="227"/>
      <point x="50" y="74"/>
    </contour>
    <contour>
      <point x="245" y="-6" type="curve"/>
      <point x="329" y="-3" type="line"/>
      <point x="280" y="103"/>
      <point x="240" y="203"/>
      <point x="208" y="301" type="curve"/>
      <point x="147" y="271" type="line"/>
      <point x="187" y="173"/>
      <point x="219" y="85"/>
    </contour>
  </outline>
</glyph>
<glyph name="S" format="2">
  <advance width="329"/>
  <unicode hex="0053"/>
  <anchor x="155" y="0" name="bottom"/>
  <anchor x="171" y="693" name="top"/>
  <outline>
    <contour>
      <point x="159" y="-10" type="curve"/>
      <point x="236" y="-10"/>
      <point x="295" y="39"/>
      <point x="295" y="141" type="curve"/>
      <point x="295" y="241"/>
      <point x="200" y="303"/>
      <point x="164" y="343" type="curve"/>
      <point x="127" y="383"/>
      <point x="94" y="433"/>
      <point x="94" y="510" type="curve"/>
      <point x="94" y="600"/>
      <point x="117" y="645"/>
      <point x="165" y="645" type="curve"/>
      <point x="206" y="645"/>
      <point x="229" y="594"/>
      <point x="229" y="529" type="curve"/>
      <point x="229" y="488"/>
      <point x="228" y="449"/>
      <point x="222" y="394" type="curve"/>
      <point x="288" y="394" type="line"/>
      <point x="293" y="445"/>
      <point x="294" y="466"/>
      <point x="294" y="539" type="curve"/>
      <point x="294" y="674"/>
      <point x="220" y="704"/>
      <point x="161" y="704" type="curve"/>
      <point x="91" y="704"/>
      <point x="29" y="647"/>
      <point x="29" y="522" type="curve"/>
      <point x="29" y="422"/>
      <point x="51" y="365"/>
      <point x="115" y="300" type="curve"/>
      <point x="180" y="233"/>
      <point x="229" y="201"/>
      <point x="229" y="134" type="curve"/>
      <point x="229" y="79"/>
      <point x="202" y="47"/>
      <point x="155" y="47" type="curve"/>
      <point x="114" y="47"/>
      <point x="94" y="75"/>
      <point x="94" y="138" type="curve"/>
      <point x="94" y="167"/>
      <point x="94" y="186"/>
      <point x="96" y="217" type="curve"/>
      <point x="36" y="217" type="line"/>
      <point x="32" y="192"/>
      <point x="30" y="167"/>
      <point x="30" y="141" type="curve"/>
      <point x="30" y="79"/>
      <point x="47" y="-10"/>
    </contour>
  </outline>
</glyph>
<glyph name="T" format="2">
  <advance width="281"/>
  <unicode hex="0054"/>
  <anchor x="138" y="1" name="bottom"/>
  <anchor x="137" y="347" name="center"/>
  <anchor x="138" y="693" name="top"/>
  <outline>
    <contour>
      <point x="98" y="2" type="curve"/>
      <point x="176" y="-1" type="line"/>
      <point x="176" y="-1"/>
      <point x="171" y="201"/>
      <point x="171" y="372" type="curve"/>
      <point x="171" y="543"/>
      <point x="175" y="684"/>
      <point x="175" y="684" type="curve"/>
      <point x="102" y="685" type="line"/>
      <point x="102" y="685"/>
      <point x="107" y="498"/>
      <point x="107" y="381" type="curve"/>
      <point x="108" y="278"/>
      <point x="101" y="52"/>
    </contour>
    <contour>
      <point x="-9" y="634" type="line"/>
      <point x="-9" y="634"/>
      <point x="86" y="639"/>
      <point x="136" y="640" type="curve"/>
      <point x="186" y="640"/>
      <point x="290" y="642"/>
      <point x="290" y="642" type="curve"/>
      <point x="287" y="704" type="line"/>
      <point x="287" y="704"/>
      <point x="172" y="702"/>
      <point x="123" y="702" type="curve"/>
      <point x="74" y="702"/>
      <point x="-6" y="701"/>
      <point x="-6" y="701" type="curve"/>
    </contour>
  </outline>
</glyph>
<glyph name="U" format="2">
  <advance width="352"/>
  <unicode hex="0055"/>
  <anchor x="177" y="0" name="bottom"/>
  <anchor x="207" y="0" name="ogonek"/>
  <anchor x="178" y="693" name="top"/>
  <anchor x="254" y="693" name="topright"/>
  <outline>
    <contour>
      <point x="179" y="-10" type="curve"/>
      <point x="281" y="-10"/>
      <point x="305" y="77"/>
      <point x="305" y="163" type="curve"/>
      <point x="305" y="193"/>
      <point x="305" y="278"/>
      <point x="304" y="392" type="curve"/>
      <point x="304" y="524"/>
      <point x="306" y="617"/>
      <point x="307" y="706" type="curve"/>
      <point x="238" y="707" type="line"/>
      <point x="240" y="645"/>
      <point x="243" y="521"/>
      <point x="244" y="394" type="curve"/>
      <point x="244" y="272"/>
      <point x="243" y="180"/>
      <point x="243" y="160" type="curve"/>
      <point x="243" y="94"/>
      <point x="226" y="47"/>
      <point x="178" y="47" type="curve"/>
      <point x="132" y="47"/>
      <point x="110" y="76"/>
      <point x="110" y="173" type="curve"/>
      <point x="110" y="213"/>
      <point x="110" y="319"/>
      <point x="111" y="396" type="curve"/>
      <point x="112" y="464"/>
      <point x="113" y="607"/>
      <point x="116" y="695" type="curve"/>
      <point x="45" y="696" type="line"/>
      <point x="48" y="603"/>
      <point x="48" y="492"/>
      <point x="48" y="402" type="curve"/>
      <point x="48" y="334"/>
      <point x="47" y="231"/>
      <point x="47" y="161" type="curve"/>
      <point x="47" y="47"/>
      <point x="91" y="-10"/>
    </contour>
  </outline>
</glyph>
<glyph name="V" format="2">
  <advance width="330"/>
  <unicode hex="0056"/>
  <outline>
    <contour>
      <point x="9" y="712" type="line"/>
      <point x="9" y="712"/>
      <point x="42" y="527"/>
      <point x="67" y="350" type="curve" smooth="yes"/>
      <point x="93" y="169"/>
      <point x="112" y="3"/>
      <point x="112" y="3" type="curve"/>
      <point x="220" y="0" type="line"/>
      <point x="220" y="0"/>
      <point x="237" y="172"/>
      <point x="264" y="350" type="curve" smooth="yes"/>
      <point x="290" y="526"/>
      <point x="321" y="708"/>
      <point x="321" y="708" type="curve"/>
      <point x="250" y="705" type="line"/>
      <point x="250" y="705"/>
      <point x="226" y="507"/>
      <point x="206" y="359" type="curve" smooth="yes"/>
      <point x="190" y="241"/>
      <point x="178" y="146"/>
      <point x="167" y="84" type="curve"/>
      <point x="155" y="152"/>
      <point x="138" y="282"/>
      <point x="129" y="359" type="curve" smooth="yes"/>
      <point x="114" y="477"/>
      <point x="100" y="595"/>
      <point x="85" y="713" type="curve"/>
    </contour>
  </outline>
</glyph>
<glyph name="W" format="2">
  <advance width="567"/>
  <unicode hex="0057"/>
  <anchor x="280" y="693" name="top"/>
  <outline>
    <contour>
      <point x="219" y="0" type="line"/>
      <point x="228" y="73"/>
      <point x="245" y="218"/>
      <point x="263" y="347" type="curve" smooth="yes"/>
      <point x="269" y="391"/>
      <point x="276" y="457"/>
      <point x="282" y="502" type="curve"/>
      <point x="288" y="455"/>
      <point x="295" y="390"/>
      <point x="301" y="342" type="curve" smooth="yes"/>
      <point x="318" y="210"/>
      <point x="337" y="70"/>
      <point x="346" y="1" type="curve"/>
      <point x="453" y="0" type="line"/>
      <point x="461" y="71"/>
      <point x="478" y="212"/>
      <point x="498" y="342" type="curve" smooth="yes"/>
      <point x="517" y="470"/>
      <point x="543" y="630"/>
      <point x="558" y="714" type="curve"/>
      <point x="487" y="713" type="line"/>
      <point x="476" y="621"/>
      <point x="455" y="459"/>
      <point x="440" y="351" type="curve" smooth="yes"/>
      <point x="424" y="234"/>
      <point x="413" y="146"/>
      <point x="401" y="85" type="curve"/>
      <point x="389" y="153"/>
      <point x="372" y="275"/>
      <point x="362" y="351" type="curve" smooth="yes"/>
      <point x="347" y="479"/>
      <point x="332" y="598"/>
      <point x="326" y="651" type="curve"/>
      <point x="243" y="650" type="line"/>
      <point x="236" y="588"/>
      <point x="221" y="465"/>
      <point x="206" y="357" type="curve" smooth="yes"/>
      <point x="190" y="239"/>
      <point x="178" y="146"/>
      <point x="166" y="83" type="curve"/>
      <point x="154" y="153"/>
      <point x="137" y="281"/>
      <point x="128" y="357" type="curve" smooth="yes"/>
      <point x="114" y="472"/>
      <point x="99" y="586"/>
      <point x="85" y="701" type="curve"/>
      <point x="9" y="701" type="line"/>
      <point x="23" y="625"/>
      <point x="48" y="477"/>
      <point x="66" y="347" type="curve" smooth="yes"/>
      <point x="85" y="216"/>
      <point x="103" y="72"/>
      <point x="111" y="0" type="curve"/>
    </contour>
  </outline>
</glyph>
<glyph name="X" format="2">
  <advance width="307"/>
  <unicode hex="0058"/>
  <outline>
    <contour>
      <point x="-12" y="-2" type="curve"/>
      <point x="64" y="-1" type="line"/>
      <point x="64" y="-1"/>
      <point x="114" y="175"/>
      <point x="174" y="350" type="curve"/>
      <point x="233" y="521"/>
      <point x="303" y="691"/>
      <point x="303" y="691" type="curve"/>
      <point x="227" y="692" type="line"/>
      <point x="227" y="692"/>
      <point x="177" y="527"/>
      <point x="120" y="359" type="curve"/>
      <point x="60" y="184"/>
      <point x="-12" y="-2"/>
    </contour>
    <contour>
      <point x="238" y="-6" type="curve"/>
      <point x="319" y="-4" type="line"/>
      <point x="319" y="-4"/>
      <point x="245" y="196"/>
      <point x="190" y="369" type="curve"/>
      <point x="136" y="536"/>
      <point x="92" y="688"/>
      <point x="92" y="688" type="curve"/>
      <point x="12" y="690" type="line"/>
      <point x="12" y="690"/>
      <point x="79" y="516"/>
      <point x="135" y="346" type="curve"/>
      <point x="191" y="173"/>
      <point x="238" y="-6"/>
    </contour>
  </outline>
</glyph>
<glyph name="Y" format="2">
  <advance width="277"/>
  <unicode hex="0059"/>
  <anchor x="135" y="0" name="bottom"/>
  <anchor x="137" y="693" name="top"/>
  <outline>
    <contour>
      <point x="100" y="0" type="curve"/>
      <point x="169" y="1" type="line"/>
      <point x="169" y="1"/>
      <point x="166" y="114"/>
      <point x="163" y="224" type="curve"/>
      <point x="101" y="233" type="line"/>
      <point x="104" y="71"/>
      <point x="100" y="0"/>
    </contour>
    <contour>
      <point x="-15" y="704" type="line"/>
      <point x="-15" y="704"/>
      <point x="18" y="569"/>
      <point x="46" y="435" type="curve" smooth="yes"/>
      <point x="75" y="301"/>
      <point x="104" y="141"/>
      <point x="104" y="141" type="curve"/>
      <point x="164" y="141" type="line"/>
      <point x="164" y="141"/>
      <point x="192" y="281"/>
      <point x="226" y="434" type="curve" smooth="yes"/>
      <point x="256" y="568"/>
      <point x="292" y="698"/>
      <point x="292" y="698" type="curve"/>
      <point x="213" y="696" type="line"/>
      <point x="213" y="696"/>
      <point x="188" y="548"/>
      <point x="166" y="438" type="curve" smooth="yes"/>
      <point x="156" y="388"/>
      <point x="145" y="334"/>
      <point x="136" y="295" type="curve"/>
      <point x="127" y="341"/>
      <point x="116" y="399"/>
      <point x="108" y="442" type="curve" smooth="yes"/>
      <point x="84" y="576"/>
      <point x="66" y="704"/>
      <point x="66" y="704" type="curve"/>
    </contour>
  </outline>
</glyph>
<glyph name="Z" format="2">
  <advance width="273"/>
  <unicode hex="005A"/>
  <anchor x="135" y="693" name="top"/>
  <outline>
    <contour>
      <point x="23" y="693" type="curve"/>
      <point x="20" y="630" type="line"/>
      <point x="20" y="630"/>
      <point x="71" y="633"/>
      <point x="126" y="633" type="curve" smooth="yes"/>
      <point x="149" y="633"/>
      <point x="159" y="632"/>
      <point x="182" y="632" type="curve"/>
      <point x="161" y="546"/>
      <point x="133" y="450"/>
      <point x="103" y="352" type="curve" smooth="yes"/>
      <point x="73" y="254"/>
      <point x="40" y="155"/>
      <point x="8" y="62" type="curve"/>
      <point x="11" y="1" type="line"/>
      <point x="11" y="1"/>
      <point x="81" y="3"/>
      <point x="137" y="3" type="curve" smooth="yes"/>
      <point x="185" y="2"/>
      <point x="214" y="1"/>
      <point x="262" y="0" type="curve"/>
      <point x="265" y="65" type="line"/>
      <point x="221" y="64"/>
      <point x="197" y="64"/>
      <point x="153" y="62" type="curve" smooth="yes"/>
      <point x="130" y="61"/>
      <point x="111" y="62"/>
      <point x="82" y="62" type="curve"/>
      <point x="111" y="166"/>
      <point x="136" y="252"/>
      <point x="162" y="334" type="curve" smooth="yes"/>
      <point x="193" y="432"/>
      <point x="223" y="523"/>
      <point x="259" y="630" type="curve"/>
      <point x="257" y="695" type="line"/>
      <point x="213" y="694"/>
      <point x="188" y="693"/>
      <point x="144" y="692" type="curve" smooth="yes"/>
      <point x="98" y="691"/>
      <point x="49" y="691"/>
    </contour>
  </outline>
</glyph>
<glyph name="bracketleft" format="2">
  <advance width="317"/>
  <unicode hex="005B"/>
  <outline>
    <contour>
      <point x="65" y="-137" type="curve"/>
      <point x="134" y="-130" type="line"/>
      <point x="134" y="-130"/>
      <point x="134" y="179"/>
      <point x="134" y="315" type="curve"/>
      <point x="134" y="452"/>
      <point x="134" y="671"/>
      <point x="134" y="671" type="curve"/>
      <point x="72" y="691" type="line"/>
      <point x="72" y="691"/>
      <point x="76" y="505"/>
      <point x="76" y="304" type="curve"/>
      <point x="76" y="104"/>
      <point x="65" y="-137"/>
    </contour>
    <contour>
      <point x="65" y="-137" type="line"/>
      <point x="115" y="-135"/>
      <point x="248" y="-130"/>
      <point x="248" y="-130" type="curve"/>
      <point x="251" y="-75" type="line"/>
      <point x="251" y="-75"/>
      <point x="140" y="-74"/>
      <point x="90" y="-71" type="curve"/>
    </contour>
    <contour>
      <point x="99" y="631" type="line"/>
      <point x="149" y="632"/>
      <point x="252" y="633"/>
      <point x="252" y="633" type="curve"/>
      <point x="245" y="693" type="line"/>
      <point x="245" y="693"/>
      <point x="120" y="691"/>
      <point x="72" y="691" type="curve"/>
    </contour>
  </outline>
</glyph>
<glyph name="backslash" format="2">
  <advance width="255"/>
  <unicode hex="005C"/>
  <outline>
    <contour>
      <point x="242" y="-1" type="line"/>
      <point x="210" y="98"/>
      <point x="185" y="203"/>
      <point x="154" y="339" type="curve" smooth="yes"/>
      <point x="121" y="479"/>
      <point x="100" y="571"/>
      <point x="81" y="697" type="curve"/>
      <point x="13" y="695" type="line"/>
      <point x="40" y="577"/>
      <point x="67" y="475"/>
      <point x="98" y="340" type="curve" smooth="yes"/>
      <point x="130" y="203"/>
      <point x="155" y="96"/>
      <point x="175" y="0" type="curve"/>
    </contour>
  </outline>
</glyph>
<glyph name="bracketright" format="2">
  <advance width="317"/>
  <unicode hex="005D"/>
  <outline>
    <contour>
      <point x="246" y="-135" type="line"/>
      <point x="245" y="-6"/>
      <point x="243" y="123"/>
      <point x="242" y="252" type="curve"/>
      <point x="246" y="399"/>
      <point x="249" y="546"/>
      <point x="253" y="693" type="curve"/>
      <point x="184" y="686" type="line"/>
      <point x="184" y="538"/>
      <point x="184" y="389"/>
      <point x="184" y="241" type="curve"/>
      <point x="184" y="122"/>
      <point x="184" y="4"/>
      <point x="184" y="-115" type="curve"/>
    </contour>
    <contour>
      <point x="73" y="-137" type="line"/>
      <point x="131" y="-136"/>
      <point x="188" y="-136"/>
      <point x="246" y="-135" type="curve"/>
      <point x="219" y="-75" type="line"/>
      <point x="168" y="-76"/>
      <point x="117" y="-76"/>
      <point x="66" y="-77" type="curve"/>
    </contour>
    <contour>
      <point x="67" y="632" type="line"/>
      <point x="86" y="633"/>
      <point x="178" y="632"/>
      <point x="228" y="628" type="curve"/>
      <point x="253" y="694" type="line"/>
      <point x="217" y="693"/>
      <point x="127" y="689"/>
      <point x="70" y="687" type="curve"/>
    </contour>
  </outline>
</glyph>
<glyph name="underscore" format="2">
  <advance width="318"/>
  <unicode hex="005F"/>
  <outline>
    <contour>
      <point x="28" y="-111" type="line"/>
      <point x="28" y="-111"/>
      <point x="108" y="-108"/>
      <point x="160" y="-107" type="curve" smooth="yes"/>
      <point x="215" y="-106"/>
      <point x="284" y="-108"/>
      <point x="284" y="-108" type="curve"/>
      <point x="291" y="-46" type="line"/>
      <point x="291" y="-46"/>
      <point x="213" y="-49"/>
      <point x="155" y="-50" type="curve" smooth="yes"/>
      <point x="98" y="-52"/>
      <point x="27" y="-48"/>
      <point x="27" y="-48" type="curve"/>
    </contour>
  </outline>
</glyph>
<glyph name="grave" format="2">
  <advance width="212"/>
  <unicode hex="0060"/>
  <anchor x="117" y="555" name="_top"/>
  <outline>
    <contour>
      <point x="142" y="621" type="curve"/>
      <point x="172" y="648" type="line"/>
      <point x="172" y="648"/>
      <point x="150" y="664"/>
      <point x="124" y="684" type="curve"/>
      <point x="100" y="702"/>
      <point x="78" y="722"/>
      <point x="78" y="722" type="curve"/>
      <point x="40" y="676" type="line"/>
      <point x="40" y="676"/>
      <point x="66" y="665"/>
      <point x="89" y="652" type="curve"/>
      <point x="111" y="640"/>
      <point x="142" y="621"/>
    </contour>
  </outline>
</glyph>
<glyph name="a" format="2">
  <advance width="275"/>
  <unicode hex="0061"/>
  <anchor x="133" y="0" name="bottom"/>
  <anchor x="229" y="-3" name="ogonek"/>
  <anchor x="133" y="555" name="top"/>
  <outline>
    <contour>
      <point x="184" y="0" type="line"/>
      <point x="242" y="0" type="line"/>
      <point x="235" y="277" type="line"/>
      <point x="238" y="423" type="line" smooth="yes"/>
      <point x="239" y="489"/>
      <point x="226" y="565"/>
      <point x="139" y="565" type="curve" smooth="yes"/>
      <point x="72" y="565"/>
      <point x="34" y="513"/>
      <point x="34" y="443" type="curve" smooth="yes"/>
      <point x="34" y="406"/>
      <point x="37" y="390"/>
      <point x="41" y="368" type="curve"/>
      <point x="94" y="371" type="line"/>
      <point x="90" y="392"/>
      <point x="88" y="424"/>
      <point x="88" y="445" type="curve" smooth="yes"/>
      <point x="88" y="491"/>
      <point x="107" y="517"/>
      <point x="137" y="517" type="curve" smooth="yes"/>
      <point x="173" y="517"/>
      <point x="189" y="494"/>
      <point x="188" y="412" type="curve" smooth="yes"/>
      <point x="186" y="113" type="line"/>
    </contour>
    <contour>
      <point x="102" y="-10" type="curve" smooth="yes"/>
      <point x="198" y="-10"/>
      <point x="221" y="141"/>
      <point x="224" y="303" type="curve"/>
      <point x="187" y="239" type="line"/>
      <point x="187" y="118"/>
      <point x="159" y="45"/>
      <point x="116" y="45" type="curve" smooth="yes"/>
      <point x="87" y="45"/>
      <point x="76" y="67"/>
      <point x="76" y="112" type="curve" smooth="yes"/>
      <point x="76" y="168"/>
      <point x="102" y="206"/>
      <point x="143" y="251" type="curve" smooth="yes"/>
      <point x="176" y="287"/>
      <point x="215" y="320"/>
      <point x="215" y="410" type="curve"/>
      <point x="188" y="412" type="line"/>
      <point x="188" y="351"/>
      <point x="145" y="314"/>
      <point x="104" y="273" type="curve" smooth="yes"/>
      <point x="62" y="231"/>
      <point x="24" y="184"/>
      <point x="24" y="109" type="curve" smooth="yes"/>
      <point x="24" y="34"/>
      <point x="49" y="-10"/>
    </contour>
  </outline>
</glyph>
<glyph name="b" format="2">
  <advance width="312"/>
  <unicode hex="0062"/>
  <outline>
    <contour>
      <point x="169" y="-7" type="curve"/>
      <point x="231" y="-7"/>
      <point x="262" y="45"/>
      <point x="267" y="122" type="curve"/>
      <point x="274" y="227"/>
      <point x="275" y="323"/>
      <point x="275" y="417" type="curve"/>
      <point x="275" y="504"/>
      <point x="248" y="564"/>
      <point x="184" y="564" type="curve"/>
      <point x="83" y="564"/>
      <point x="74" y="354"/>
      <point x="74" y="271" type="curve"/>
      <point x="103" y="313" type="line"/>
      <point x="103" y="434"/>
      <point x="136" y="504"/>
      <point x="173" y="504" type="curve"/>
      <point x="212" y="504"/>
      <point x="220" y="451"/>
      <point x="220" y="400" type="curve"/>
      <point x="220" y="354"/>
      <point x="217" y="208"/>
      <point x="212" y="137" type="curve"/>
      <point x="209" y="95"/>
      <point x="197" y="53"/>
      <point x="163" y="53" type="curve"/>
      <point x="126" y="53"/>
      <point x="103" y="114"/>
      <point x="103" y="235" type="curve"/>
      <point x="74" y="277" type="line"/>
      <point x="74" y="194"/>
      <point x="68" y="-7"/>
    </contour>
    <contour>
      <point x="100" y="-1" type="line"/>
      <point x="102" y="96" type="line"/>
      <point x="102" y="176"/>
      <point x="103" y="276"/>
      <point x="103" y="344" type="curve"/>
      <point x="103" y="490"/>
      <point x="107" y="691"/>
      <point x="107" y="691" type="curve"/>
      <point x="41" y="686" type="line"/>
      <point x="41" y="686"/>
      <point x="48" y="489"/>
      <point x="48" y="345" type="curve"/>
      <point x="48" y="202"/>
      <point x="44" y="1"/>
      <point x="44" y="1" type="curve"/>
    </contour>
  </outline>
</glyph>
<glyph name="c" format="2">
  <advance width="291"/>
  <unicode hex="0063"/>
  <anchor x="153" y="0" name="bottom"/>
  <anchor x="157" y="555" name="top"/>
  <outline>
    <contour>
      <point x="149" y="-13" type="curve"/>
      <point x="234" y="-13"/>
      <point x="264" y="55"/>
      <point x="264" y="110" type="curve"/>
      <point x="264" y="148"/>
      <point x="262" y="172"/>
      <point x="261" y="187" type="curve"/>
      <point x="206" y="185" type="line"/>
      <point x="207" y="165"/>
      <point x="209" y="131"/>
      <point x="208" y="99" type="curve"/>
      <point x="206" y="69"/>
      <point x="189" y="40"/>
      <point x="155" y="40" type="curve"/>
      <point x="119" y="40"/>
      <point x="107" y="70"/>
      <point x="101" y="124" type="curve"/>
      <point x="98" y="151"/>
      <point x="96" y="202"/>
      <point x="96" y="270" type="curve"/>
      <point x="96" y="322"/>
      <point x="98" y="377"/>
      <point x="101" y="416" type="curve"/>
      <point x="108" y="486"/>
      <point x="120" y="507"/>
      <point x="160" y="507" type="curve"/>
      <point x="194" y="507"/>
      <point x="206" y="482"/>
      <point x="206" y="425" type="curve"/>
      <point x="206" y="396"/>
      <point x="204" y="346"/>
      <point x="198" y="306" type="curve"/>
      <point x="254" y="305" type="line"/>
      <point x="259" y="344"/>
      <point x="262" y="376"/>
      <point x="262" y="438" type="curve"/>
      <point x="262" y="532"/>
      <point x="209" y="563"/>
      <point x="168" y="563" type="curve"/>
      <point x="103" y="563"/>
      <point x="54" y="539"/>
      <point x="44" y="430" type="curve"/>
      <point x="40" y="381"/>
      <point x="37" y="320"/>
      <point x="37" y="272" type="curve"/>
      <point x="37" y="207"/>
      <point x="40" y="155"/>
      <point x="48" y="99" type="curve"/>
      <point x="58" y="26"/>
      <point x="93" y="-13"/>
    </contour>
  </outline>
</glyph>
<glyph name="d" format="2">
  <advance width="310"/>
  <unicode hex="0064"/>
  <anchor x="219" y="625" name="center"/>
  <anchor x="285" y="470" name="topright"/>
  <outline>
    <contour>
      <point x="37" y="276" type="curve" smooth="yes"/>
      <point x="37" y="211"/>
      <point x="39" y="157"/>
      <point x="46" y="101" type="curve" smooth="yes"/>
      <point x="54" y="27"/>
      <point x="86" y="-10"/>
      <point x="137" y="-10" type="curve" smooth="yes"/>
      <point x="176" y="-10"/>
      <point x="199" y="13"/>
      <point x="214" y="50" type="curve"/>
      <point x="214" y="0" type="line"/>
      <point x="272" y="0" type="line"/>
      <point x="269" y="132"/>
      <point x="268" y="222"/>
      <point x="268" y="353" type="curve" smooth="yes"/>
      <point x="268" y="448"/>
      <point x="270" y="551"/>
      <point x="274" y="693" type="curve"/>
      <point x="210" y="689" type="line"/>
      <point x="211" y="632"/>
      <point x="212" y="578"/>
      <point x="213" y="522" type="curve"/>
      <point x="199" y="550"/>
      <point x="178" y="566"/>
      <point x="146" y="566" type="curve" smooth="yes"/>
      <point x="96" y="566"/>
      <point x="64" y="532"/>
      <point x="52" y="476" type="curve" smooth="yes"/>
      <point x="38" y="410"/>
      <point x="37" y="335"/>
    </contour>
    <contour>
      <point x="95" y="272" type="curve" smooth="yes"/>
      <point x="95" y="324"/>
      <point x="97" y="367"/>
      <point x="100" y="406" type="curve" smooth="yes"/>
      <point x="108" y="492"/>
      <point x="121" y="510"/>
      <point x="153" y="510" type="curve" smooth="yes"/>
      <point x="179" y="510"/>
      <point x="200" y="488"/>
      <point x="206" y="429" type="curve" smooth="yes"/>
      <point x="213" y="362"/>
      <point x="213" y="333"/>
      <point x="213" y="293" type="curve" smooth="yes"/>
      <point x="213" y="253"/>
      <point x="208" y="156"/>
      <point x="203" y="112" type="curve" smooth="yes"/>
      <point x="198" y="75"/>
      <point x="182" y="43"/>
      <point x="152" y="43" type="curve" smooth="yes"/>
      <point x="119" y="43"/>
      <point x="105" y="70"/>
      <point x="101" y="128" type="curve" smooth="yes"/>
      <point x="99" y="155"/>
      <point x="95" y="204"/>
    </contour>
  </outline>
</glyph>
<glyph name="e" format="2">
  <advance width="293"/>
  <unicode hex="0065"/>
  <anchor x="155" y="0" name="bottom"/>
  <anchor x="193" y="-5" name="ogonek"/>
  <anchor x="160" y="555" name="top"/>
  <outline>
    <contour>
      <point x="152" y="-12" type="curve"/>
      <point x="248" y="-12"/>
      <point x="264" y="60"/>
      <point x="264" y="113" type="curve"/>
      <point x="264" y="139"/>
      <point x="262" y="170"/>
      <point x="259" y="185" type="curve"/>
      <point x="203" y="185" type="line"/>
      <point x="206" y="171"/>
      <point x="210" y="142"/>
      <point x="208" y="110" type="curve"/>
      <point x="206" y="73"/>
      <point x="196" y="41"/>
      <point x="158" y="41" type="curve"/>
      <point x="122" y="41"/>
      <point x="107" y="61"/>
      <point x="102" y="115" type="curve"/>
      <point x="99" y="141"/>
      <point x="96" y="219"/>
      <point x="96" y="288" type="curve"/>
      <point x="96" y="339"/>
      <point x="98" y="369"/>
      <point x="102" y="407" type="curve"/>
      <point x="108" y="477"/>
      <point x="117" y="508"/>
      <point x="157" y="508" type="curve"/>
      <point x="192" y="508"/>
      <point x="201" y="471"/>
      <point x="201" y="414" type="curve" smooth="yes"/>
      <point x="201" y="385"/>
      <point x="199" y="351"/>
      <point x="196" y="314" type="curve"/>
      <point x="254" y="263" type="line"/>
      <point x="258" y="305"/>
      <point x="262" y="364"/>
      <point x="262" y="426" type="curve"/>
      <point x="262" y="539"/>
      <point x="210" y="564"/>
      <point x="168" y="564" type="curve"/>
      <point x="103" y="564"/>
      <point x="54" y="530"/>
      <point x="44" y="421" type="curve"/>
      <point x="40" y="372"/>
      <point x="37" y="337"/>
      <point x="37" y="289" type="curve"/>
      <point x="37" y="224"/>
      <point x="41" y="145"/>
      <point x="49" y="89" type="curve"/>
      <point x="58" y="16"/>
      <point x="96" y="-12"/>
    </contour>
    <contour>
      <point x="58" y="256" type="line"/>
      <point x="140" y="261"/>
      <point x="254" y="263"/>
      <point x="254" y="263" type="curve"/>
      <point x="254" y="316" type="line"/>
      <point x="57" y="314" type="line"/>
    </contour>
  </outline>
</glyph>
<glyph name="g" format="2">
  <advance width="308"/>
  <unicode hex="0067"/>
  <anchor x="167" y="555" name="top"/>
  <outline>
    <contour>
      <point x="144" y="-156" type="curve"/>
      <point x="222" y="-156"/>
      <point x="268" y="-104"/>
      <point x="268" y="-14" type="curve"/>
      <point x="267" y="49"/>
      <point x="266" y="171"/>
      <point x="266" y="278" type="curve"/>
      <point x="266" y="384"/>
      <point x="273" y="498"/>
      <point x="279" y="555" type="curve"/>
      <point x="216" y="555" type="line"/>
      <point x="214" y="517"/>
      <point x="210" y="415"/>
      <point x="210" y="276" type="curve"/>
      <point x="210" y="172"/>
      <point x="209" y="50"/>
      <point x="209" y="-12" type="curve"/>
      <point x="209" y="-75"/>
      <point x="182" y="-105"/>
      <point x="149" y="-105" type="curve"/>
      <point x="116" y="-105"/>
      <point x="104" y="-85"/>
      <point x="104" y="-60" type="curve" smooth="yes"/>
      <point x="104" y="-56"/>
      <point x="104" y="-52"/>
      <point x="105" y="-48" type="curve"/>
      <point x="48" y="-58" type="line"/>
      <point x="48" y="-64"/>
      <point x="47" y="-70"/>
      <point x="47" y="-76" type="curve"/>
      <point x="47" y="-114"/>
      <point x="75" y="-156"/>
    </contour>
    <contour>
      <point x="136" y="-9" type="curve"/>
      <point x="238" y="-9"/>
      <point x="240" y="192"/>
      <point x="240" y="275" type="curve"/>
      <point x="210" y="233" type="line"/>
      <point x="210" y="112"/>
      <point x="182" y="47"/>
      <point x="144" y="47" type="curve"/>
      <point x="116" y="47"/>
      <point x="108" y="66"/>
      <point x="102" y="110" type="curve"/>
      <point x="99" y="136"/>
      <point x="95" y="214"/>
      <point x="95" y="282" type="curve"/>
      <point x="95" y="334"/>
      <point x="101" y="385"/>
      <point x="103" y="419" type="curve"/>
      <point x="109" y="486"/>
      <point x="125" y="508"/>
      <point x="154" y="508" type="curve"/>
      <point x="191" y="508"/>
      <point x="210" y="432"/>
      <point x="210" y="311" type="curve"/>
      <point x="240" y="269" type="line"/>
      <point x="240" y="492"/>
      <point x="213" y="563"/>
      <point x="146" y="563" type="curve"/>
      <point x="86" y="563"/>
      <point x="58" y="514"/>
      <point x="47" y="434" type="curve"/>
      <point x="41" y="397"/>
      <point x="37" y="329"/>
      <point x="37" y="281" type="curve"/>
      <point x="37" y="216"/>
      <point x="41" y="136"/>
      <point x="49" y="85" type="curve"/>
      <point x="60" y="23"/>
      <point x="97" y="-9"/>
    </contour>
  </outline>
</glyph>
<glyph name="h" format="2">
  <advance width="309"/>
  <unicode hex="0068"/>
  <anchor x="148" y="0" name="bottom"/>
  <anchor x="112" y="618" name="center"/>
  <anchor x="74" y="669" name="top"/>
  <outline>
    <contour>
      <point x="41" y="0" type="curve"/>
      <point x="107" y="0" type="line"/>
      <point x="107" y="0"/>
      <point x="101" y="176"/>
      <point x="101" y="320" type="curve"/>
      <point x="101" y="463"/>
      <point x="108" y="703"/>
      <point x="108" y="703" type="curve"/>
      <point x="41" y="703" type="line"/>
      <point x="41" y="703"/>
      <point x="44" y="491"/>
      <point x="44" y="346" type="curve"/>
      <point x="44" y="200"/>
      <point x="41" y="0"/>
    </contour>
    <contour>
      <point x="267" y="0" type="line"/>
      <point x="264" y="51"/>
      <point x="262" y="108"/>
      <point x="262" y="240" type="curve" smooth="yes"/>
      <point x="262" y="337"/>
      <point x="262" y="385"/>
      <point x="262" y="441" type="curve" smooth="yes"/>
      <point x="262" y="526"/>
      <point x="238" y="560"/>
      <point x="190" y="560" type="curve" smooth="yes"/>
      <point x="93" y="560"/>
      <point x="78" y="390"/>
      <point x="78" y="277" type="curve"/>
      <point x="101" y="320" type="line"/>
      <point x="101" y="441"/>
      <point x="138" y="507"/>
      <point x="176" y="507" type="curve" smooth="yes"/>
      <point x="196" y="507"/>
      <point x="207" y="486"/>
      <point x="207" y="437" type="curve" smooth="yes"/>
      <point x="207" y="393"/>
      <point x="207" y="337"/>
      <point x="207" y="239" type="curve" smooth="yes"/>
      <point x="207" y="118"/>
      <point x="203" y="59"/>
      <point x="200" y="1" type="curve"/>
    </contour>
  </outline>
</glyph>
<glyph name="i" format="2">
  <advance width="172"/>
  <unicode hex="0069"/>
  <anchor x="86" y="0" name="bottom"/>
  <anchor x="109" y="-2" name="ogonek"/>
  <outline>
    <contour>
      <point x="122" y="0" type="line"/>
      <point x="122" y="0"/>
      <point x="115" y="141"/>
      <point x="115" y="285" type="curve"/>
      <point x="115" y="428"/>
      <point x="119" y="557"/>
      <point x="119" y="557" type="curve"/>
      <point x="53" y="556" type="line"/>
      <point x="53" y="556"/>
      <point x="60" y="432"/>
      <point x="60" y="286" type="curve"/>
      <point x="60" y="140"/>
      <point x="53" y="1"/>
      <point x="53" y="1" type="curve"/>
    </contour>
    <contour>
      <point x="117" y="617" type="line"/>
      <point x="120" y="702" type="line"/>
      <point x="53" y="698" type="line"/>
      <point x="55" y="613" type="line"/>
    </contour>
  </outline>
</glyph>
<glyph name="k" format="2">
  <advance width="287"/>
  <unicode hex="006B"/>
  <anchor x="156" y="0" name="bottom"/>
  <outline>
    <contour>
      <point x="232" y="0" type="curve"/>
      <point x="308" y="3" type="line"/>
      <point x="246" y="103"/>
      <point x="194" y="203"/>
      <point x="150" y="297" type="curve"/>
      <point x="191" y="393"/>
      <point x="232" y="478"/>
      <point x="276" y="559" type="curve"/>
      <point x="211" y="561" type="line"/>
      <point x="181" y="485"/>
      <point x="146" y="404"/>
      <point x="86" y="289" type="curve"/>
      <point x="137" y="197"/>
      <point x="195" y="88"/>
    </contour>
    <contour>
      <point x="41" y="0" type="curve"/>
      <point x="109" y="1" type="line"/>
      <point x="109" y="1"/>
      <point x="102" y="213"/>
      <point x="102" y="359" type="curve"/>
      <point x="102" y="504"/>
      <point x="109" y="698"/>
      <point x="109" y="698" type="curve"/>
      <point x="44" y="700" type="line"/>
      <point x="44" y="700"/>
      <point x="47" y="501"/>
      <point x="47" y="357" type="curve"/>
      <point x="47" y="214"/>
      <point x="41" y="0"/>
    </contour>
  </outline>
</glyph>
<glyph name="l" format="2">
  <advance width="153"/>
  <unicode hex="006C"/>
  <anchor x="78" y="0" name="bottom"/>
  <anchor x="75" y="359" name="center"/>
  <anchor x="77" y="693" name="top"/>
  <anchor x="259" y="473" name="topright"/>
  <outline>
    <contour>
      <point x="45" y="0" type="curve"/>
      <point x="113" y="8" type="line"/>
      <point x="109" y="96"/>
      <point x="103" y="251"/>
      <point x="103" y="358" type="curve"/>
      <point x="103" y="465"/>
      <point x="109" y="615"/>
      <point x="113" y="698" type="curve"/>
      <point x="46" y="697" type="line"/>
      <point x="47" y="612"/>
      <point x="48" y="461"/>
      <point x="48" y="357" type="curve"/>
      <point x="48" y="221"/>
      <point x="48" y="61"/>
    </contour>
  </outline>
</glyph>
<glyph name="m" format="2">
  <advance width="475"/>
  <unicode hex="006D"/>
  <outline>
    <contour>
      <point x="205" y="1" type="curve"/>
      <point x="272" y="1" type="line"/>
      <point x="269" y="52"/>
      <point x="267" y="188"/>
      <point x="267" y="320" type="curve" smooth="yes"/>
      <point x="267" y="477"/>
      <point x="278" y="560"/>
      <point x="200" y="560" type="curve" smooth="yes"/>
      <point x="137" y="560"/>
      <point x="90" y="468"/>
      <point x="90" y="277" type="curve"/>
      <point x="113" y="320" type="line"/>
      <point x="113" y="441"/>
      <point x="148" y="507"/>
      <point x="186" y="507" type="curve" smooth="yes"/>
      <point x="206" y="507"/>
      <point x="212" y="486"/>
      <point x="212" y="437" type="curve" smooth="yes"/>
      <point x="212" y="393"/>
      <point x="212" y="337"/>
      <point x="212" y="239" type="curve" smooth="yes"/>
      <point x="212" y="118"/>
      <point x="208" y="59"/>
    </contour>
    <contour>
      <point x="51" y="1" type="curve"/>
      <point x="116" y="1" type="line"/>
      <point x="114" y="57"/>
      <point x="112" y="195"/>
      <point x="113" y="320" type="curve"/>
      <point x="111" y="427"/>
      <point x="112" y="515"/>
      <point x="113" y="559" type="curve"/>
      <point x="55" y="556" type="line"/>
      <point x="55" y="556"/>
      <point x="58" y="432"/>
      <point x="58" y="286" type="curve" smooth="yes"/>
      <point x="58" y="157"/>
      <point x="54" y="59"/>
    </contour>
    <contour>
      <point x="417" y="0" type="line"/>
      <point x="416" y="51"/>
      <point x="417" y="108"/>
      <point x="420" y="240" type="curve" smooth="yes"/>
      <point x="422" y="337"/>
      <point x="422" y="385"/>
      <point x="422" y="441" type="curve" smooth="yes"/>
      <point x="422" y="526"/>
      <point x="404" y="560"/>
      <point x="354" y="560" type="curve" smooth="yes"/>
      <point x="267" y="560"/>
      <point x="245" y="423"/>
      <point x="244" y="277" type="curve"/>
      <point x="267" y="320" type="line"/>
      <point x="267" y="441"/>
      <point x="302" y="507"/>
      <point x="340" y="507" type="curve" smooth="yes"/>
      <point x="360" y="507"/>
      <point x="366" y="486"/>
      <point x="366" y="437" type="curve" smooth="yes"/>
      <point x="366" y="403"/>
      <point x="364" y="322"/>
      <point x="362" y="233" type="curve" smooth="yes"/>
      <point x="360" y="152"/>
      <point x="357" y="78"/>
      <point x="355" y="8" type="curve"/>
    </contour>
  </outline>
</glyph>
<glyph name="n" format="2">
  <advance width="315"/>
  <unicode hex="006E"/>
  <anchor x="159" y="0" name="bottom"/>
  <anchor x="166" y="555" name="top"/>
  <anchor x="145" y="555" name="topright"/>
  <outline>
    <contour>
      <point x="273" y="0" type="line"/>
      <point x="270" y="51"/>
      <point x="268" y="108"/>
      <point x="268" y="240" type="curve" smooth="yes"/>
      <point x="268" y="337"/>
      <point x="268" y="385"/>
      <point x="268" y="441" type="curve" smooth="yes"/>
      <point x="268" y="526"/>
      <point x="244" y="560"/>
      <point x="196" y="560" type="curve" smooth="yes"/>
      <point x="99" y="560"/>
      <point x="84" y="390"/>
      <point x="84" y="277" type="curve"/>
      <point x="107" y="320" type="line"/>
      <point x="107" y="441"/>
      <point x="144" y="507"/>
      <point x="182" y="507" type="curve" smooth="yes"/>
      <point x="202" y="507"/>
      <point x="213" y="486"/>
      <point x="213" y="437" type="curve" smooth="yes"/>
      <point x="213" y="393"/>
      <point x="213" y="337"/>
      <point x="213" y="239" type="curve" smooth="yes"/>
      <point x="213" y="118"/>
      <point x="209" y="59"/>
      <point x="206" y="1" type="curve"/>
    </contour>
    <contour>
      <point x="45" y="1" type="curve"/>
      <point x="110" y="1" type="line"/>
      <point x="108" y="57"/>
      <point x="106" y="195"/>
      <point x="107" y="320" type="curve"/>
      <point x="105" y="427"/>
      <point x="107" y="515"/>
      <point x="108" y="559" type="curve"/>
      <point x="49" y="556" type="line"/>
      <point x="49" y="556"/>
      <point x="52" y="432"/>
      <point x="52" y="286" type="curve" smooth="yes"/>
      <point x="52" y="157"/>
      <point x="48" y="59"/>
    </contour>
  </outline>
</glyph>
<glyph name="o" format="2">
  <advance width="306"/>
  <unicode hex="006F"/>
  <anchor x="154" y="0" name="bottom"/>
  <anchor x="152" y="276" name="center"/>
  <anchor x="189" y="0" name="ogonek"/>
  <anchor x="159" y="555" name="top"/>
  <anchor x="183" y="555" name="topright"/>
  <outline>
    <contour>
      <point x="149" y="-10" type="curve"/>
      <point x="214" y="-10"/>
      <point x="241" y="33"/>
      <point x="252" y="80" type="curve"/>
      <point x="267" y="146"/>
      <point x="269" y="224"/>
      <point x="269" y="283" type="curve"/>
      <point x="269" y="348"/>
      <point x="269" y="400"/>
      <point x="263" y="456" type="curve"/>
      <point x="254" y="530"/>
      <point x="224" y="567"/>
      <point x="163" y="567" type="curve"/>
      <point x="101" y="567"/>
      <point x="65" y="537"/>
      <point x="50" y="450" type="curve"/>
      <point x="44" y="417"/>
      <point x="37" y="328"/>
      <point x="37" y="284" type="curve"/>
      <point x="37" y="241"/>
      <point x="37" y="167"/>
      <point x="45" y="114" type="curve"/>
      <point x="55" y="34"/>
      <point x="82" y="-10"/>
    </contour>
    <contour>
      <point x="151" y="47" type="curve"/>
      <point x="125" y="47"/>
      <point x="107" y="69"/>
      <point x="101" y="128" type="curve"/>
      <point x="94" y="194"/>
      <point x="95" y="223"/>
      <point x="95" y="264" type="curve"/>
      <point x="95" y="304"/>
      <point x="99" y="401"/>
      <point x="105" y="445" type="curve"/>
      <point x="110" y="482"/>
      <point x="121" y="514"/>
      <point x="159" y="514" type="curve"/>
      <point x="192" y="514"/>
      <point x="206" y="484"/>
      <point x="207" y="429" type="curve"/>
      <point x="208" y="402"/>
      <point x="211" y="355"/>
      <point x="211" y="287" type="curve"/>
      <point x="211" y="235"/>
      <point x="210" y="182"/>
      <point x="206" y="144" type="curve"/>
      <point x="199" y="77"/>
      <point x="189" y="47"/>
    </contour>
  </outline>
</glyph>
<glyph name="p" format="2">
  <advance width="315"/>
  <unicode hex="0070"/>
  <outline>
    <contour>
      <point x="38" y="-146" type="curve"/>
      <point x="106" y="-145" type="line"/>
      <point x="104" y="29" type="line"/>
      <point x="119" y="0"/>
      <point x="140" y="-12"/>
      <point x="167" y="-12" type="curve" smooth="yes"/>
      <point x="227" y="-12"/>
      <point x="260" y="37"/>
      <point x="269" y="107" type="curve" smooth="yes"/>
      <point x="274" y="144"/>
      <point x="278" y="226"/>
      <point x="278" y="274" type="curve" smooth="yes"/>
      <point x="278" y="338"/>
      <point x="275" y="415"/>
      <point x="267" y="466" type="curve" smooth="yes"/>
      <point x="257" y="529"/>
      <point x="226" y="560"/>
      <point x="180" y="560" type="curve" smooth="yes"/>
      <point x="145" y="560"/>
      <point x="121" y="536"/>
      <point x="105" y="500" type="curve"/>
      <point x="106" y="557" type="line"/>
      <point x="39" y="555" type="line"/>
      <point x="46" y="509"/>
      <point x="47" y="336"/>
      <point x="47" y="211" type="curve" smooth="yes"/>
      <point x="47" y="67"/>
      <point x="38" y="-146"/>
    </contour>
    <contour>
      <point x="103" y="234" type="curve" smooth="yes"/>
      <point x="104" y="349" type="line" smooth="yes"/>
      <point x="108" y="451"/>
      <point x="135" y="504"/>
      <point x="169" y="504" type="curve" smooth="yes"/>
      <point x="198" y="504"/>
      <point x="208" y="485"/>
      <point x="214" y="440" type="curve" smooth="yes"/>
      <point x="217" y="415"/>
      <point x="222" y="346"/>
      <point x="222" y="278" type="curve" smooth="yes"/>
      <point x="222" y="226"/>
      <point x="221" y="159"/>
      <point x="218" y="125" type="curve" smooth="yes"/>
      <point x="212" y="67"/>
      <point x="195" y="43"/>
      <point x="166" y="43" type="curve" smooth="yes"/>
      <point x="127" y="43"/>
      <point x="104" y="117"/>
    </contour>
  </outline>
</glyph>
<glyph name="q" format="2">
  <advance width="311"/>
  <unicode hex="0071"/>
  <outline>
    <contour>
      <point x="37" y="276" type="curve" smooth="yes"/>
      <point x="37" y="218"/>
      <point x="40" y="186"/>
      <point x="44" y="136" type="curve" smooth="yes"/>
      <point x="51" y="29"/>
      <point x="93" y="-9"/>
      <point x="144" y="-9" type="curve" smooth="yes"/>
      <point x="176" y="-9"/>
      <point x="197" y="7"/>
      <point x="211" y="34" type="curve"/>
      <point x="207" y="-146" type="line"/>
      <point x="274" y="-147" type="line"/>
      <point x="274" y="-147"/>
      <point x="269" y="59"/>
      <point x="269" y="205" type="curve" smooth="yes"/>
      <point x="269" y="351"/>
      <point x="280" y="567"/>
      <point x="280" y="567" type="curve"/>
      <point x="215" y="565" type="line"/>
      <point x="215" y="516" type="line"/>
      <point x="200" y="548"/>
      <point x="179" y="568"/>
      <point x="143" y="568" type="curve" smooth="yes"/>
      <point x="92" y="568"/>
      <point x="58" y="524"/>
      <point x="48" y="452" type="curve" smooth="yes"/>
      <point x="40" y="397"/>
      <point x="37" y="341"/>
    </contour>
    <contour>
      <point x="95" y="280" type="curve" smooth="yes"/>
      <point x="95" y="348"/>
      <point x="98" y="405"/>
      <point x="102" y="432" type="curve" smooth="yes"/>
      <point x="108" y="487"/>
      <point x="125" y="514"/>
      <point x="158" y="514" type="curve" smooth="yes"/>
      <point x="188" y="514"/>
      <point x="201" y="483"/>
      <point x="206" y="446" type="curve" smooth="yes"/>
      <point x="212" y="402"/>
      <point x="213" y="305"/>
      <point x="213" y="265" type="curve" smooth="yes"/>
      <point x="213" y="224"/>
      <point x="214" y="195"/>
      <point x="207" y="129" type="curve" smooth="yes"/>
      <point x="201" y="70"/>
      <point x="177" y="48"/>
      <point x="151" y="48" type="curve" smooth="yes"/>
      <point x="119" y="48"/>
      <point x="104" y="80"/>
      <point x="99" y="147" type="curve" smooth="yes"/>
      <point x="96" y="185"/>
      <point x="95" y="229"/>
    </contour>
  </outline>
</glyph>
<glyph name="r" format="2">
  <advance width="267"/>
  <unicode hex="0072"/>
  <anchor x="79" y="0" name="bottom"/>
  <anchor x="155" y="555" name="top"/>
  <outline>
    <contour>
      <point x="191" y="271" type="curve"/>
      <point x="244" y="271" type="line"/>
      <point x="254" y="345"/>
      <point x="258" y="405"/>
      <point x="258" y="452" type="curve" smooth="yes"/>
      <point x="258" y="536"/>
      <point x="234" y="571"/>
      <point x="192" y="571" type="curve" smooth="yes"/>
      <point x="102" y="571"/>
      <point x="86" y="413"/>
      <point x="80" y="284" type="curve"/>
      <point x="109" y="326" type="line"/>
      <point x="109" y="455"/>
      <point x="137" y="512"/>
      <point x="169" y="512" type="curve" smooth="yes"/>
      <point x="193" y="512"/>
      <point x="204" y="494"/>
      <point x="204" y="449" type="curve" smooth="yes"/>
      <point x="204" y="389"/>
      <point x="198" y="330"/>
    </contour>
    <contour>
      <point x="45" y="-2" type="curve"/>
      <point x="110" y="0" type="line"/>
      <point x="109" y="67"/>
      <point x="109" y="204"/>
      <point x="109" y="326" type="curve"/>
      <point x="106" y="412"/>
      <point x="110" y="525"/>
      <point x="110" y="560" type="curve"/>
      <point x="51" y="558" type="line"/>
      <point x="52" y="516"/>
      <point x="55" y="411"/>
      <point x="54" y="285" type="curve" smooth="yes"/>
      <point x="54" y="163"/>
      <point x="50" y="71"/>
    </contour>
  </outline>
</glyph>
<glyph name="s" format="2">
  <advance width="265"/>
  <unicode hex="0073"/>
  <anchor x="131" y="0" name="bottom"/>
  <anchor x="144" y="555" name="top"/>
  <outline>
    <contour>
      <point x="137" y="-10" type="curve"/>
      <point x="199" y="-10"/>
      <point x="243" y="30"/>
      <point x="243" y="113" type="curve"/>
      <point x="243" y="195"/>
      <point x="167" y="245"/>
      <point x="138" y="278" type="curve"/>
      <point x="109" y="311"/>
      <point x="86" y="345"/>
      <point x="86" y="409" type="curve"/>
      <point x="86" y="482"/>
      <point x="103" y="517"/>
      <point x="138" y="517" type="curve"/>
      <point x="171" y="517"/>
      <point x="182" y="486"/>
      <point x="182" y="430" type="curve"/>
      <point x="182" y="396"/>
      <point x="181" y="369"/>
      <point x="176" y="320" type="curve"/>
      <point x="237" y="320" type="line"/>
      <point x="241" y="361"/>
      <point x="242" y="378"/>
      <point x="242" y="438" type="curve"/>
      <point x="242" y="548"/>
      <point x="183" y="572"/>
      <point x="136" y="572" type="curve"/>
      <point x="81" y="572"/>
      <point x="26" y="526"/>
      <point x="26" y="424" type="curve"/>
      <point x="26" y="342"/>
      <point x="46" y="292"/>
      <point x="97" y="239" type="curve"/>
      <point x="149" y="184"/>
      <point x="185" y="162"/>
      <point x="185" y="107" type="curve"/>
      <point x="185" y="63"/>
      <point x="163" y="42"/>
      <point x="132" y="42" type="curve"/>
      <point x="111" y="42"/>
      <point x="89" y="57"/>
      <point x="86" y="108" type="curve"/>
      <point x="84" y="140"/>
      <point x="84" y="160"/>
      <point x="86" y="177" type="curve"/>
      <point x="30" y="177" type="line"/>
      <point x="28" y="161"/>
      <point x="27" y="133"/>
      <point x="27" y="111" type="curve"/>
      <point x="27" y="60"/>
      <point x="41" y="-10"/>
    </contour>
  </outline>
</glyph>
<glyph name="t" format="2">
  <advance width="275"/>
  <unicode hex="0074"/>
  <anchor x="138" y="0" name="bottom"/>
  <anchor x="119" y="401" name="center"/>
  <anchor x="156" y="555" name="topright"/>
  <outline>
    <contour>
      <point x="144" y="-10" type="curve"/>
      <point x="227" y="-10"/>
      <point x="249" y="56"/>
      <point x="249" y="127" type="curve"/>
      <point x="249" y="214"/>
      <point x="246" y="247"/>
      <point x="243" y="298" type="curve"/>
      <point x="187" y="299" type="line"/>
      <point x="195" y="218"/>
      <point x="193" y="176"/>
      <point x="193" y="136" type="curve"/>
      <point x="193" y="84"/>
      <point x="187" y="43"/>
      <point x="146" y="43" type="curve"/>
      <point x="109" y="43"/>
      <point x="100" y="62"/>
      <point x="100" y="133" type="curve"/>
      <point x="100" y="173"/>
      <point x="101" y="226"/>
      <point x="104" y="294" type="curve"/>
      <point x="107" y="356"/>
      <point x="116" y="516"/>
      <point x="125" y="628" type="curve"/>
      <point x="56" y="627" type="line"/>
      <point x="60" y="541"/>
      <point x="49" y="390"/>
      <point x="48" y="300" type="curve"/>
      <point x="46" y="236"/>
      <point x="40" y="176"/>
      <point x="40" y="105" type="curve"/>
      <point x="40" y="24"/>
      <point x="79" y="-10"/>
    </contour>
    <contour>
      <point x="11" y="500" type="line"/>
      <point x="11" y="500"/>
      <point x="80" y="505"/>
      <point x="130" y="506" type="curve"/>
      <point x="180" y="507"/>
      <point x="245" y="509"/>
      <point x="245" y="509" type="curve"/>
      <point x="249" y="556" type="line"/>
      <point x="249" y="556"/>
      <point x="165" y="553"/>
      <point x="116" y="553" type="curve"/>
      <point x="67" y="552"/>
      <point x="15" y="554"/>
      <point x="15" y="554" type="curve"/>
    </contour>
  </outline>
</glyph>
<glyph name="u" format="2">
  <advance width="303"/>
  <unicode hex="0075"/>
  <anchor x="157" y="0" name="bottom"/>
  <anchor x="244" y="-3" name="ogonek"/>
  <anchor x="156" y="555" name="top"/>
  <anchor x="215" y="555" name="topright"/>
  <outline>
    <contour>
      <point x="125" y="-8" type="curve" smooth="yes"/>
      <point x="226" y="-8"/>
      <point x="237" y="204"/>
      <point x="237" y="286" type="curve"/>
      <point x="207" y="244" type="line"/>
      <point x="207" y="123"/>
      <point x="174" y="45"/>
      <point x="136" y="45" type="curve" smooth="yes"/>
      <point x="103" y="45"/>
      <point x="97" y="70"/>
      <point x="97" y="115" type="curve" smooth="yes"/>
      <point x="97" y="159"/>
      <point x="99" y="242"/>
      <point x="100" y="265" type="curve" smooth="yes"/>
      <point x="106" y="417"/>
      <point x="111" y="564"/>
      <point x="111" y="564" type="curve"/>
      <point x="48" y="558" type="line"/>
      <point x="48" y="452"/>
      <point x="47" y="313"/>
      <point x="45" y="264" type="curve" smooth="yes"/>
      <point x="44" y="234"/>
      <point x="41" y="205"/>
      <point x="41" y="111" type="curve" smooth="yes"/>
      <point x="41" y="33"/>
      <point x="64" y="-8"/>
    </contour>
    <contour>
      <point x="208" y="0" type="line"/>
      <point x="268" y="0" type="line"/>
      <point x="266" y="95"/>
      <point x="264" y="189"/>
      <point x="262" y="284" type="curve" smooth="yes"/>
      <point x="261" y="314"/>
      <point x="263" y="499"/>
      <point x="265" y="564" type="curve"/>
      <point x="203" y="565" type="line"/>
      <point x="205" y="474"/>
      <point x="207" y="343"/>
      <point x="207" y="281" type="curve" smooth="yes"/>
      <point x="207" y="222"/>
      <point x="207" y="164"/>
      <point x="206" y="105" type="curve"/>
    </contour>
  </outline>
</glyph>
<glyph name="v" format="2">
  <advance width="274"/>
  <unicode hex="0076"/>
  <outline>
    <contour>
      <point x="8" y="559" type="line"/>
      <point x="8" y="559"/>
      <point x="37" y="418"/>
      <point x="59" y="274" type="curve" smooth="yes"/>
      <point x="82" y="126"/>
      <point x="95" y="-3"/>
      <point x="95" y="-3" type="curve"/>
      <point x="185" y="-6" type="line"/>
      <point x="185" y="-6"/>
      <point x="200" y="129"/>
      <point x="222" y="274" type="curve" smooth="yes"/>
      <point x="244" y="418"/>
      <point x="272" y="557"/>
      <point x="272" y="557" type="curve"/>
      <point x="206" y="554" type="line"/>
      <point x="206" y="554"/>
      <point x="188" y="424"/>
      <point x="167" y="282" type="curve" smooth="yes"/>
      <point x="158" y="224"/>
      <point x="149" y="130"/>
      <point x="140" y="71" type="curve"/>
      <point x="132" y="130"/>
      <point x="123" y="224"/>
      <point x="115" y="282" type="curve" smooth="yes"/>
      <point x="96" y="424"/>
      <point x="79" y="559"/>
      <point x="79" y="559" type="curve"/>
    </contour>
  </outline>
</glyph>
<glyph name="w" format="2">
  <advance width="451"/>
  <unicode hex="0077"/>
  <anchor x="228" y="555" name="top"/>
  <outline>
    <contour>
      <point x="95" y="-1" type="curve"/>
      <point x="167" y="1" type="line"/>
      <point x="185" y="102"/>
      <point x="198" y="202"/>
      <point x="209" y="288" type="curve" smooth="yes"/>
      <point x="216" y="342"/>
      <point x="222" y="387"/>
      <point x="228" y="425" type="curve"/>
      <point x="233" y="384"/>
      <point x="238" y="339"/>
      <point x="244" y="288" type="curve" smooth="yes"/>
      <point x="254" y="202"/>
      <point x="269" y="102"/>
      <point x="283" y="1" type="curve"/>
      <point x="360" y="-1" type="line"/>
      <point x="374" y="93"/>
      <point x="386" y="152"/>
      <point x="405" y="278" type="curve" smooth="yes"/>
      <point x="426" y="422"/>
      <point x="449" y="557"/>
      <point x="449" y="557" type="curve"/>
      <point x="390" y="558" type="line"/>
      <point x="390" y="558"/>
      <point x="372" y="408"/>
      <point x="350" y="266" type="curve" smooth="yes"/>
      <point x="343" y="220"/>
      <point x="334" y="147"/>
      <point x="325" y="90" type="curve"/>
      <point x="318" y="147"/>
      <point x="310" y="219"/>
      <point x="303" y="266" type="curve" smooth="yes"/>
      <point x="282" y="408"/>
      <point x="266" y="523"/>
      <point x="266" y="523" type="curve"/>
      <point x="196" y="524" type="line"/>
      <point x="196" y="524"/>
      <point x="178" y="408"/>
      <point x="157" y="266" type="curve" smooth="yes"/>
      <point x="150" y="219"/>
      <point x="141" y="145"/>
      <point x="133" y="86" type="curve"/>
      <point x="125" y="144"/>
      <point x="116" y="219"/>
      <point x="110" y="266" type="curve" smooth="yes"/>
      <point x="92" y="408"/>
      <point x="75" y="555"/>
      <point x="75" y="555" type="curve"/>
      <point x="8" y="555" type="line"/>
      <point x="8" y="555"/>
      <point x="30" y="422"/>
      <point x="52" y="278" type="curve" smooth="yes"/>
      <point x="73" y="143"/>
      <point x="84" y="86"/>
    </contour>
  </outline>
</glyph>
<glyph name="x" format="2">
  <advance width="246"/>
  <unicode hex="0078"/>
  <outline>
    <contour>
      <point x="56" y="-4" type="line"/>
      <point x="56" y="-4"/>
      <point x="96" y="140"/>
      <point x="145" y="281" type="curve"/>
      <point x="193" y="418"/>
      <point x="250" y="558"/>
      <point x="250" y="558" type="curve"/>
      <point x="184" y="558" type="line"/>
      <point x="184" y="558"/>
      <point x="142" y="434"/>
      <point x="96" y="299" type="curve"/>
      <point x="47" y="158"/>
      <point x="-13" y="-2"/>
      <point x="-13" y="-2" type="curve"/>
    </contour>
    <contour>
      <point x="193" y="-2" type="curve"/>
      <point x="260" y="1" type="line"/>
      <point x="260" y="1"/>
      <point x="205" y="158"/>
      <point x="157" y="299" type="curve"/>
      <point x="110" y="434"/>
      <point x="70" y="558"/>
      <point x="70" y="558" type="curve"/>
      <point x="-2" y="555" type="line"/>
      <point x="-2" y="555"/>
      <point x="55" y="418"/>
      <point x="103" y="281" type="curve"/>
      <point x="152" y="140"/>
      <point x="193" y="-2"/>
    </contour>
  </outline>
</glyph>
<glyph name="y" format="2">
  <advance width="269"/>
  <unicode hex="0079"/>
  <anchor x="221" y="30" name="bottom"/>
  <anchor x="137" y="555" name="top"/>
  <outline>
    <contour>
      <point x="146" y="-148" type="line"/>
      <point x="146" y="-148"/>
      <point x="191" y="128"/>
      <point x="218" y="272" type="curve"/>
      <point x="244" y="416"/>
      <point x="276" y="556"/>
      <point x="276" y="556" type="curve"/>
      <point x="210" y="556" type="line"/>
      <point x="210" y="556"/>
      <point x="190" y="426"/>
      <point x="166" y="282" type="curve"/>
      <point x="154" y="215"/>
      <point x="91" y="-95"/>
      <point x="79" y="-146" type="curve"/>
    </contour>
    <contour>
      <point x="109" y="-9" type="curve"/>
      <point x="159" y="38" type="line"/>
      <point x="147" y="88"/>
      <point x="129" y="215"/>
      <point x="116" y="283" type="curve"/>
      <point x="90" y="424"/>
      <point x="68" y="553"/>
      <point x="68" y="553" type="curve"/>
      <point x="0" y="550" type="line"/>
      <point x="0" y="550"/>
      <point x="29" y="415"/>
      <point x="57" y="272" type="curve"/>
      <point x="87" y="126"/>
      <point x="109" y="-9"/>
    </contour>
  </outline>
</glyph>
<glyph name="z" format="2">
  <advance width="227"/>
  <unicode hex="007A"/>
  <anchor x="121" y="555" name="top"/>
  <outline>
    <contour>
      <point x="53" y="10" type="line"/>
      <point x="70" y="69"/>
      <point x="104" y="170"/>
      <point x="137" y="267" type="curve" smooth="yes"/>
      <point x="170" y="363"/>
      <point x="201" y="454"/>
      <point x="220" y="498" type="curve"/>
      <point x="165" y="535" type="line"/>
      <point x="141" y="450"/>
      <point x="113" y="365"/>
      <point x="85" y="280" type="curve" smooth="yes"/>
      <point x="59" y="203"/>
      <point x="33" y="126"/>
      <point x="7" y="53" type="curve"/>
    </contour>
    <contour>
      <point x="8" y="-4" type="line"/>
      <point x="8" y="-4"/>
      <point x="67" y="0"/>
      <point x="117" y="0" type="curve"/>
      <point x="167" y="-1"/>
      <point x="229" y="0"/>
      <point x="229" y="0" type="curve"/>
      <point x="229" y="55" type="line"/>
      <point x="229" y="55"/>
      <point x="180" y="53"/>
      <point x="132" y="52" type="curve"/>
      <point x="83" y="52"/>
      <point x="7" y="53"/>
      <point x="7" y="53" type="curve"/>
    </contour>
    <contour>
      <point x="16" y="498" type="line"/>
      <point x="16" y="498"/>
      <point x="59" y="500"/>
      <point x="108" y="500" type="curve"/>
      <point x="136" y="500"/>
      <point x="220" y="498"/>
      <point x="220" y="498" type="curve"/>
      <point x="217" y="555" type="line"/>
      <point x="217" y="555"/>
      <point x="154" y="552"/>
      <point x="124" y="552" type="curve"/>
      <point x="74" y="551"/>
      <point x="16" y="552"/>
      <point x="16" y="552" type="curve"/>
    </contour>
  </outline>
</glyph>
<glyph name="braceleft" format="2">
  <advance width="387"/>
  <unicode hex="007B"/>
  <outline>
    <contour>
      <point x="250" y="-130" type="curve" smooth="yes"/>
      <point x="281" y="-130"/>
      <point x="303" y="-119"/>
      <point x="322" y="-106" type="curve"/>
      <point x="309" y="-57" type="line"/>
      <point x="292" y="-69"/>
      <point x="271" y="-77"/>
      <point x="252" y="-77" type="curve" smooth="yes"/>
      <point x="211" y="-77"/>
      <point x="198" y="-47"/>
      <point x="198" y="-2" type="curve" smooth="yes"/>
      <point x="198" y="32"/>
      <point x="219" y="140"/>
      <point x="219" y="187" type="curve" smooth="yes"/>
      <point x="219" y="232"/>
      <point x="180" y="271"/>
      <point x="147" y="278" type="curve"/>
      <point x="180" y="285"/>
      <point x="217" y="319"/>
      <point x="217" y="364" type="curve" smooth="yes"/>
      <point x="217" y="411"/>
      <point x="186" y="540"/>
      <point x="186" y="574" type="curve" smooth="yes"/>
      <point x="186" y="619"/>
      <point x="200" y="648"/>
      <point x="241" y="648" type="curve" smooth="yes"/>
      <point x="260" y="648"/>
      <point x="275" y="641"/>
      <point x="291" y="629" type="curve"/>
      <point x="308" y="679" type="line"/>
      <point x="289" y="692"/>
      <point x="267" y="703"/>
      <point x="236" y="703" type="curve" smooth="yes"/>
      <point x="155" y="703"/>
      <point x="128" y="652"/>
      <point x="128" y="582" type="curve" smooth="yes"/>
      <point x="128" y="526"/>
      <point x="160" y="428"/>
      <point x="160" y="374" type="curve" smooth="yes"/>
      <point x="160" y="321"/>
      <point x="102" y="302"/>
      <point x="65" y="302" type="curve"/>
      <point x="72" y="243" type="line"/>
      <point x="109" y="243"/>
      <point x="160" y="225"/>
      <point x="160" y="171" type="curve" smooth="yes"/>
      <point x="160" y="117"/>
      <point x="138" y="47"/>
      <point x="138" y="-9" type="curve" smooth="yes"/>
      <point x="138" y="-79"/>
      <point x="169" y="-130"/>
    </contour>
  </outline>
</glyph>
<glyph name="bar" format="2">
  <advance width="199"/>
  <unicode hex="007C"/>
  <outline>
    <contour>
      <point x="134" y="-136" type="line"/>
      <point x="134" y="-136"/>
      <point x="124" y="116"/>
      <point x="124" y="289" type="curve" smooth="yes"/>
      <point x="124" y="463"/>
      <point x="133" y="694"/>
      <point x="133" y="694" type="curve"/>
      <point x="66" y="693" type="line"/>
      <point x="66" y="693"/>
      <point x="68" y="458"/>
      <point x="68" y="288" type="curve" smooth="yes"/>
      <point x="68" y="117"/>
      <point x="65" y="-134"/>
      <point x="65" y="-134" type="curve"/>
    </contour>
  </outline>
</glyph>
<glyph name="braceright" format="2">
  <advance width="387"/>
  <unicode hex="007D"/>
  <outline>
    <contour>
      <point x="151" y="-130" type="curve" smooth="yes"/>
      <point x="232" y="-130"/>
      <point x="259" y="-79"/>
      <point x="259" y="-9" type="curve" smooth="yes"/>
      <point x="259" y="47"/>
      <point x="227" y="145"/>
      <point x="227" y="199" type="curve" smooth="yes"/>
      <point x="227" y="252"/>
      <point x="285" y="271"/>
      <point x="322" y="271" type="curve"/>
      <point x="315" y="330" type="line"/>
      <point x="278" y="330"/>
      <point x="227" y="348"/>
      <point x="227" y="402" type="curve" smooth="yes"/>
      <point x="227" y="456"/>
      <point x="249" y="526"/>
      <point x="249" y="582" type="curve" smooth="yes"/>
      <point x="249" y="652"/>
      <point x="218" y="703"/>
      <point x="137" y="703" type="curve" smooth="yes"/>
      <point x="106" y="703"/>
      <point x="84" y="692"/>
      <point x="65" y="679" type="curve"/>
      <point x="78" y="630" type="line"/>
      <point x="95" y="642"/>
      <point x="116" y="650"/>
      <point x="135" y="650" type="curve" smooth="yes"/>
      <point x="176" y="650"/>
      <point x="189" y="620"/>
      <point x="189" y="575" type="curve" smooth="yes"/>
      <point x="189" y="541"/>
      <point x="168" y="433"/>
      <point x="168" y="386" type="curve" smooth="yes"/>
      <point x="168" y="341"/>
      <point x="207" y="302"/>
      <point x="240" y="295" type="curve"/>
      <point x="207" y="288"/>
      <point x="170" y="254"/>
      <point x="170" y="209" type="curve" smooth="yes"/>
      <point x="170" y="162"/>
      <point x="201" y="33"/>
      <point x="201" y="-1" type="curve" smooth="yes"/>
      <point x="201" y="-46"/>
      <point x="187" y="-75"/>
      <point x="146" y="-75" type="curve" smooth="yes"/>
      <point x="127" y="-75"/>
      <point x="112" y="-68"/>
      <point x="96" y="-56" type="curve"/>
      <point x="79" y="-106" type="line"/>
      <point x="98" y="-119"/>
      <point x="120" y="-130"/>
    </contour>
  </outline>
</glyph>
<glyph name="exclamdown" format="2">
  <advance width="215"/>
  <unicode hex="00A1"/>
  <outline>
    <contour>
      <point x="66" y="-146" type="curve"/>
      <point x="150" y="-145" type="line"/>
      <point x="150" y="-145"/>
      <point x="144" y="23"/>
      <point x="141" y="133" type="curve"/>
      <point x="138" y="242"/>
      <point x="137" y="323"/>
      <point x="137" y="323" type="curve"/>
      <point x="76" y="321" type="line"/>
      <point x="76" y="321"/>
      <point x="75" y="208"/>
      <point x="73" y="132" type="curve"/>
      <point x="72" y="57"/>
      <point x="66" y="-146"/>
    </contour>
    <contour>
      <point x="69" y="423" type="line"/>
      <point x="138" y="422" type="line"/>
      <point x="145" y="557" type="line"/>
      <point x="65" y="552" type="line"/>
    </contour>
  </outline>
</glyph>
<glyph name="cent" format="2">
  <advance width="384"/>
  <unicode hex="00A2"/>
  <outline>
    <contour>
      <point x="189" y="27" type="curve"/>
      <point x="284" y="27"/>
      <point x="314" y="95"/>
      <point x="314" y="150" type="curve"/>
      <point x="314" y="167"/>
      <point x="314" y="181"/>
      <point x="313" y="193" type="curve"/>
      <point x="258" y="184" type="line"/>
      <point x="258" y="169"/>
      <point x="258" y="154"/>
      <point x="258" y="139" type="curve"/>
      <point x="256" y="109"/>
      <point x="239" y="80"/>
      <point x="195" y="80" type="curve"/>
      <point x="149" y="80"/>
      <point x="136" y="110"/>
      <point x="131" y="164" type="curve" smooth="yes"/>
      <point x="125" y="229"/>
      <point x="126" y="309"/>
      <point x="131" y="376" type="curve" smooth="yes"/>
      <point x="136" y="446"/>
      <point x="150" y="467"/>
      <point x="200" y="467" type="curve"/>
      <point x="244" y="467"/>
      <point x="256" y="442"/>
      <point x="256" y="385" type="curve"/>
      <point x="256" y="368"/>
      <point x="255" y="344"/>
      <point x="254" y="319" type="curve"/>
      <point x="310" y="319" type="line"/>
      <point x="311" y="341"/>
      <point x="312" y="365"/>
      <point x="312" y="398" type="curve"/>
      <point x="312" y="492"/>
      <point x="259" y="523"/>
      <point x="208" y="523" type="curve"/>
      <point x="133" y="523"/>
      <point x="83" y="499"/>
      <point x="74" y="390" type="curve" smooth="yes"/>
      <point x="65" y="279"/>
      <point x="71" y="217"/>
      <point x="78" y="139" type="curve" smooth="yes"/>
      <point x="85" y="66"/>
      <point x="123" y="27"/>
    </contour>
    <contour>
      <point x="217" y="-44" type="line"/>
      <point x="217" y="-44"/>
      <point x="208" y="162"/>
      <point x="208" y="311" type="curve"/>
      <point x="208" y="460"/>
      <point x="221" y="604"/>
      <point x="221" y="604" type="curve"/>
      <point x="170" y="607" type="line"/>
      <point x="170" y="607"/>
      <point x="173" y="541"/>
      <point x="173" y="322" type="curve"/>
      <point x="173" y="102"/>
      <point x="166" y="-43"/>
      <point x="166" y="-43" type="curve"/>
    </contour>
  </outline>
</glyph>
<glyph name="currency" format="2">
  <advance width="600"/>
  <unicode hex="00A4"/>
  <outline>
    <contour>
      <point x="293" y="40" type="curve" smooth="yes"/>
      <point x="448" y="40"/>
      <point x="505" y="150"/>
      <point x="505" y="304" type="curve" smooth="yes"/>
      <point x="505" y="431"/>
      <point x="439" y="517"/>
      <point x="310" y="517" type="curve" smooth="yes"/>
      <point x="169" y="517"/>
      <point x="105" y="409"/>
      <point x="105" y="260" type="curve" smooth="yes"/>
      <point x="105" y="128"/>
      <point x="157" y="40"/>
    </contour>
    <contour>
      <point x="115" y="4" type="line"/>
      <point x="190" y="99" type="line"/>
      <point x="142" y="141" type="line"/>
      <point x="61" y="50" type="line"/>
    </contour>
    <contour>
      <point x="156" y="400" type="line"/>
      <point x="191" y="452" type="line"/>
      <point x="113" y="549" type="line"/>
      <point x="60" y="501" type="line"/>
    </contour>
    <contour>
      <point x="298" y="98" type="curve" smooth="yes"/>
      <point x="207" y="98"/>
      <point x="175" y="180"/>
      <point x="175" y="277" type="curve" smooth="yes"/>
      <point x="175" y="354"/>
      <point x="201" y="457"/>
      <point x="306" y="457" type="curve" smooth="yes"/>
      <point x="398" y="457"/>
      <point x="430" y="385"/>
      <point x="430" y="284" type="curve" smooth="yes"/>
      <point x="430" y="194"/>
      <point x="391" y="98"/>
    </contour>
    <contour>
      <point x="486" y="4" type="line"/>
      <point x="540" y="50" type="line"/>
      <point x="453" y="146" type="line"/>
      <point x="415" y="96" type="line"/>
    </contour>
    <contour>
      <point x="455" y="415" type="line"/>
      <point x="538" y="501" type="line"/>
      <point x="486" y="549" type="line"/>
      <point x="412" y="457" type="line"/>
    </contour>
  </outline>
</glyph>
<glyph name="brokenbar" format="2">
  <advance width="199"/>
  <unicode hex="00A6"/>
  <outline>
    <contour>
      <point x="68" y="351" type="curve"/>
      <point x="124" y="351" type="line"/>
      <point x="126" y="513"/>
      <point x="133" y="694"/>
      <point x="133" y="694" type="curve"/>
      <point x="66" y="693" type="line"/>
      <point x="66" y="693"/>
      <point x="68" y="511"/>
    </contour>
    <contour>
      <point x="65" y="-134" type="curve"/>
      <point x="134" y="-136" type="line"/>
      <point x="134" y="-136"/>
      <point x="127" y="31"/>
      <point x="125" y="186" type="curve"/>
      <point x="68" y="186" type="line"/>
      <point x="68" y="46"/>
      <point x="69" y="-69"/>
    </contour>
  </outline>
</glyph>
<glyph name="ordfeminine" format="2">
  <advance width="327"/>
  <unicode hex="00AA"/>
  <outline>
    <contour>
      <point x="65" y="521" type="curve" smooth="yes"/>
      <point x="65" y="483"/>
      <point x="92" y="461"/>
      <point x="133" y="461" type="curve" smooth="yes"/>
      <point x="163" y="461"/>
      <point x="184" y="474"/>
      <point x="199" y="491" type="curve"/>
      <point x="203" y="480"/>
      <point x="210" y="468"/>
      <point x="219" y="461" type="curve"/>
      <point x="262" y="481" type="line"/>
      <point x="254" y="488"/>
      <point x="240" y="506"/>
      <point x="241" y="524" type="curve" smooth="yes"/>
      <point x="244" y="631" type="line" smooth="yes"/>
      <point x="245" y="659"/>
      <point x="230" y="703"/>
      <point x="161" y="703" type="curve" smooth="yes"/>
      <point x="110" y="703"/>
      <point x="74" y="679"/>
      <point x="74" y="635" type="curve"/>
      <point x="118" y="629" type="line"/>
      <point x="118" y="658"/>
      <point x="143" y="666"/>
      <point x="161" y="666" type="curve" smooth="yes"/>
      <point x="186" y="666"/>
      <point x="197" y="650"/>
      <point x="197" y="632" type="curve" smooth="yes"/>
      <point x="197" y="614"/>
      <point x="165" y="608"/>
      <point x="132" y="591" type="curve" smooth="yes"/>
      <point x="96" y="573"/>
      <point x="65" y="558"/>
    </contour>
    <contour>
      <point x="111" y="521" type="curve" smooth="yes"/>
      <point x="111" y="541"/>
      <point x="129" y="548"/>
      <point x="164" y="565" type="curve" smooth="yes"/>
      <point x="177" y="571"/>
      <point x="189" y="578"/>
      <point x="199" y="585" type="curve"/>
      <point x="198" y="550" type="line" smooth="yes"/>
      <point x="197" y="512"/>
      <point x="157" y="497"/>
      <point x="136" y="497" type="curve" smooth="yes"/>
      <point x="120" y="497"/>
      <point x="111" y="508"/>
    </contour>
  </outline>
</glyph>
<glyph name="guillemetleft" format="2">
  <advance width="542"/>
  <unicode hex="00AB"/>
  <outline>
    <contour>
      <point x="70" y="249" type="line"/>
      <point x="70" y="249"/>
      <point x="123" y="297"/>
      <point x="173" y="340" type="curve"/>
      <point x="219" y="378"/>
      <point x="275" y="415"/>
      <point x="275" y="415" type="curve"/>
      <point x="246" y="483" type="line"/>
      <point x="246" y="483"/>
      <point x="189" y="424"/>
      <point x="153" y="388" type="curve"/>
      <point x="113" y="352"/>
      <point x="65" y="313"/>
      <point x="65" y="313" type="curve"/>
    </contour>
    <contour>
      <point x="255" y="106" type="curve"/>
      <point x="277" y="180" type="line"/>
      <point x="277" y="180"/>
      <point x="232" y="209"/>
      <point x="184" y="240" type="curve"/>
      <point x="142" y="269"/>
      <point x="65" y="315"/>
      <point x="65" y="313" type="curve"/>
      <point x="70" y="249" type="line"/>
      <point x="70" y="249"/>
      <point x="117" y="223"/>
      <point x="161" y="189" type="curve"/>
      <point x="206" y="152"/>
      <point x="255" y="106"/>
    </contour>
    <contour>
      <point x="270" y="249" type="line"/>
      <point x="270" y="249"/>
      <point x="323" y="297"/>
      <point x="373" y="340" type="curve"/>
      <point x="419" y="378"/>
      <point x="475" y="415"/>
      <point x="475" y="415" type="curve"/>
      <point x="446" y="483" type="line"/>
      <point x="446" y="483"/>
      <point x="389" y="424"/>
      <point x="353" y="388" type="curve"/>
      <point x="313" y="352"/>
      <point x="265" y="313"/>
      <point x="265" y="313" type="curve"/>
    </contour>
    <contour>
      <point x="455" y="106" type="curve"/>
      <point x="477" y="180" type="line"/>
      <point x="477" y="180"/>
      <point x="432" y="209"/>
      <point x="384" y="240" type="curve"/>
      <point x="342" y="269"/>
      <point x="265" y="315"/>
      <point x="265" y="313" type="curve"/>
      <point x="270" y="249" type="line"/>
      <point x="270" y="249"/>
      <point x="317" y="223"/>
      <point x="361" y="189" type="curve"/>
      <point x="406" y="152"/>
      <point x="455" y="106"/>
    </contour>
  </outline>
</glyph>
<glyph name="logicalnot" format="2">
  <advance width="537"/>
  <unicode hex="00AC"/>
  <outline>
    <contour>
      <point x="69" y="313" type="line"/>
      <point x="69" y="313"/>
      <point x="219" y="316"/>
      <point x="271" y="317" type="curve" smooth="yes"/>
      <point x="326" y="318"/>
      <point x="465" y="316"/>
      <point x="465" y="316" type="curve"/>
      <point x="469" y="379" type="line"/>
      <point x="469" y="379"/>
      <point x="321" y="376"/>
      <point x="263" y="374" type="curve" smooth="yes"/>
      <point x="206" y="372"/>
      <point x="65" y="376"/>
      <point x="65" y="376" type="curve"/>
    </contour>
    <contour>
      <point x="409" y="159" type="curve"/>
      <point x="472" y="163" type="line"/>
      <point x="472" y="163"/>
      <point x="468" y="223"/>
      <point x="468" y="275" type="curve" smooth="yes"/>
      <point x="467" y="330"/>
      <point x="469" y="379"/>
      <point x="469" y="379" type="curve"/>
      <point x="407" y="358" type="line"/>
      <point x="408" y="330"/>
      <point x="410" y="304"/>
      <point x="411" y="267" type="curve" smooth="yes"/>
      <point x="413" y="210"/>
      <point x="409" y="159"/>
    </contour>
  </outline>
</glyph>
<glyph name="degree" format="2">
  <advance width="307"/>
  <unicode hex="00B0"/>
  <outline>
    <contour>
      <point x="156" y="501" type="curve"/>
      <point x="219" y="501"/>
      <point x="263" y="546"/>
      <point x="263" y="609" type="curve"/>
      <point x="263" y="664"/>
      <point x="219" y="703"/>
      <point x="153" y="703" type="curve"/>
      <point x="86" y="703"/>
      <point x="44" y="660"/>
      <point x="44" y="594" type="curve"/>
      <point x="44" y="572"/>
      <point x="53" y="501"/>
    </contour>
    <contour>
      <point x="157" y="530" type="curve"/>
      <point x="96" y="530"/>
      <point x="82" y="569"/>
      <point x="82" y="603" type="curve" smooth="yes"/>
      <point x="82" y="638"/>
      <point x="108" y="674"/>
      <point x="153" y="674" type="curve"/>
      <point x="186" y="674"/>
      <point x="225" y="653"/>
      <point x="225" y="611" type="curve" smooth="yes"/>
      <point x="225" y="566"/>
      <point x="206" y="530"/>
    </contour>
  </outline>
</glyph>
<glyph name="plusminus" format="2">
  <advance width="395"/>
  <unicode hex="00B1"/>
  <outline>
    <contour>
      <point x="235" y="218" type="line"/>
      <point x="235" y="218"/>
      <point x="226" y="285"/>
      <point x="226" y="352" type="curve"/>
      <point x="226" y="421"/>
      <point x="233" y="477"/>
      <point x="233" y="477" type="curve"/>
      <point x="164" y="473" type="line"/>
      <point x="164" y="473"/>
      <point x="168" y="416"/>
      <point x="169" y="351" type="curve"/>
      <point x="171" y="289"/>
      <point x="165" y="214"/>
      <point x="165" y="214" type="curve"/>
    </contour>
    <contour>
      <point x="70" y="103" type="line"/>
      <point x="70" y="103"/>
      <point x="150" y="107"/>
      <point x="202" y="107" type="curve"/>
      <point x="257" y="108"/>
      <point x="326" y="106"/>
      <point x="326" y="106" type="curve"/>
      <point x="330" y="169" type="line"/>
      <point x="330" y="169"/>
      <point x="252" y="166"/>
      <point x="194" y="164" type="curve"/>
      <point x="137" y="162"/>
      <point x="66" y="166"/>
      <point x="66" y="166" type="curve"/>
    </contour>
    <contour>
      <point x="65" y="308" type="line"/>
      <point x="65" y="308"/>
      <point x="152" y="314"/>
      <point x="211" y="314" type="curve"/>
      <point x="272" y="314"/>
      <point x="319" y="309"/>
      <point x="319" y="309" type="curve"/>
      <point x="335" y="374" type="line"/>
      <point x="335" y="374"/>
      <point x="267" y="371"/>
      <point x="210" y="370" type="curve"/>
      <point x="155" y="370"/>
      <point x="72" y="371"/>
      <point x="72" y="371" type="curve"/>
    </contour>
  </outline>
</glyph>
<glyph name="twosuperior" format="2">
  <advance width="225"/>
  <unicode hex="00B2"/>
  <outline>
    <contour>
      <point x="84" y="590" type="line"/>
      <point x="126" y="617"/>
      <point x="178" y="678"/>
      <point x="178" y="743" type="curve" smooth="yes"/>
      <point x="178" y="785"/>
      <point x="153" y="804"/>
      <point x="115" y="805" type="curve" smooth="yes"/>
      <point x="81" y="806"/>
      <point x="46" y="785"/>
      <point x="46" y="740" type="curve" smooth="yes"/>
      <point x="46" y="727"/>
      <point x="47" y="712"/>
      <point x="49" y="702" type="curve"/>
      <point x="91" y="703" type="line"/>
      <point x="89" y="713"/>
      <point x="87" y="724"/>
      <point x="87" y="736" type="curve" smooth="yes"/>
      <point x="87" y="763"/>
      <point x="98" y="771"/>
      <point x="112" y="771" type="curve" smooth="yes"/>
      <point x="128" y="771"/>
      <point x="135" y="761"/>
      <point x="135" y="731" type="curve" smooth="yes"/>
      <point x="135" y="673"/>
      <point x="88" y="641"/>
      <point x="40" y="601" type="curve"/>
    </contour>
    <contour>
      <point x="39" y="563" type="line"/>
      <point x="39" y="563"/>
      <point x="90" y="564"/>
      <point x="111" y="565" type="curve"/>
      <point x="132" y="565"/>
      <point x="182" y="565"/>
      <point x="182" y="565" type="curve"/>
      <point x="181" y="604" type="line"/>
      <point x="181" y="604"/>
      <point x="136" y="603"/>
      <point x="116" y="602" type="curve"/>
      <point x="95" y="602"/>
      <point x="40" y="601"/>
      <point x="40" y="601" type="curve"/>
    </contour>
  </outline>
</glyph>
<glyph name="threesuperior" format="2">
  <advance width="225"/>
  <unicode hex="00B3"/>
  <outline>
    <contour>
      <point x="109" y="559" type="curve" smooth="yes"/>
      <point x="159" y="559"/>
      <point x="177" y="587"/>
      <point x="177" y="622" type="curve" smooth="yes"/>
      <point x="177" y="649"/>
      <point x="159" y="663"/>
      <point x="150" y="667" type="curve"/>
      <point x="169" y="681"/>
      <point x="181" y="710"/>
      <point x="181" y="740" type="curve" smooth="yes"/>
      <point x="181" y="784"/>
      <point x="156" y="806"/>
      <point x="113" y="806" type="curve" smooth="yes"/>
      <point x="74" y="806"/>
      <point x="46" y="779"/>
      <point x="46" y="737" type="curve" smooth="yes"/>
      <point x="46" y="726"/>
      <point x="47" y="715"/>
      <point x="49" y="708" type="curve"/>
      <point x="91" y="709" type="line"/>
      <point x="88" y="719"/>
      <point x="88" y="727"/>
      <point x="88" y="734" type="curve" smooth="yes"/>
      <point x="88" y="752"/>
      <point x="95" y="771"/>
      <point x="113" y="771" type="curve" smooth="yes"/>
      <point x="134" y="771"/>
      <point x="139" y="755"/>
      <point x="139" y="724" type="curve" smooth="yes"/>
      <point x="139" y="680"/>
      <point x="116" y="682"/>
      <point x="98" y="682" type="curve"/>
      <point x="92" y="682"/>
      <point x="78" y="682"/>
      <point x="73" y="683" type="curve"/>
      <point x="73" y="651" type="line"/>
      <point x="78" y="651"/>
      <point x="95" y="651"/>
      <point x="100" y="651" type="curve"/>
      <point x="116" y="651"/>
      <point x="135" y="649"/>
      <point x="135" y="627" type="curve" smooth="yes"/>
      <point x="135" y="608"/>
      <point x="128" y="595"/>
      <point x="110" y="595" type="curve" smooth="yes"/>
      <point x="88" y="595"/>
      <point x="84" y="610"/>
      <point x="84" y="626" type="curve"/>
      <point x="43" y="625" type="line"/>
      <point x="43" y="603"/>
      <point x="48" y="559"/>
    </contour>
  </outline>
</glyph>
<glyph name="acute" format="2">
  <advance width="212"/>
  <unicode hex="00B4"/>
  <anchor x="95" y="555" name="_top"/>
  <outline>
    <contour>
      <point x="56" y="613" type="line"/>
      <point x="67" y="619"/>
      <point x="101" y="640"/>
      <point x="123" y="652" type="curve"/>
      <point x="146" y="665"/>
      <point x="182" y="686"/>
      <point x="182" y="686" type="curve"/>
      <point x="148" y="735" type="line"/>
      <point x="148" y="735"/>
      <point x="112" y="702"/>
      <point x="88" y="684" type="curve"/>
      <point x="62" y="664"/>
      <point x="33" y="643"/>
      <point x="33" y="643" type="curve"/>
    </contour>
  </outline>
</glyph>
<glyph name="paragraph" format="2">
  <advance width="501"/>
  <unicode hex="00B6"/>
  <outline>
    <contour>
      <point x="267" y="211" type="curve"/>
      <point x="315" y="710" type="line"/>
      <point x="283" y="712"/>
      <point x="255" y="713"/>
      <point x="218" y="713" type="curve"/>
      <point x="121" y="713"/>
      <point x="70" y="654"/>
      <point x="70" y="457" type="curve"/>
      <point x="70" y="261"/>
      <point x="139" y="211"/>
    </contour>
    <contour>
      <point x="249" y="-103" type="curve"/>
      <point x="316" y="-100" type="line"/>
      <point x="316" y="-100"/>
      <point x="312" y="186"/>
      <point x="312" y="357" type="curve"/>
      <point x="312" y="528"/>
      <point x="315" y="710"/>
      <point x="315" y="710" type="curve"/>
      <point x="247" y="703" type="line"/>
      <point x="247" y="703"/>
      <point x="253" y="475"/>
      <point x="253" y="359" type="curve"/>
      <point x="253" y="243"/>
      <point x="249" y="-103"/>
    </contour>
    <contour>
      <point x="364" y="-103" type="curve"/>
      <point x="431" y="-100" type="line"/>
      <point x="431" y="-100"/>
      <point x="427" y="186"/>
      <point x="427" y="357" type="curve"/>
      <point x="427" y="528"/>
      <point x="430" y="710"/>
      <point x="430" y="710" type="curve"/>
      <point x="362" y="703" type="line"/>
      <point x="362" y="703"/>
      <point x="368" y="475"/>
      <point x="368" y="359" type="curve"/>
      <point x="368" y="243"/>
      <point x="364" y="-103"/>
    </contour>
  </outline>
</glyph>
<glyph name="periodcentered" format="2">
  <advance width="210"/>
  <unicode hex="00B7"/>
  <outline>
    <contour>
      <point x="145" y="237" type="line"/>
      <point x="143" y="372" type="line"/>
      <point x="65" y="367" type="line"/>
      <point x="69" y="239" type="line"/>
    </contour>
  </outline>
</glyph>
<glyph name="onesuperior" format="2">
  <advance width="225"/>
  <unicode hex="00B9"/>
  <outline>
    <contour>
      <point x="105" y="567" type="curve"/>
      <point x="154" y="567" type="line"/>
      <point x="151" y="645"/>
      <point x="151" y="721"/>
      <point x="155" y="801" type="curve"/>
      <point x="132" y="801" type="line"/>
      <point x="107" y="751" type="line"/>
      <point x="109" y="691"/>
      <point x="108" y="621"/>
    </contour>
    <contour>
      <point x="53" y="727" type="line"/>
      <point x="78" y="727"/>
      <point x="107" y="734"/>
      <point x="128" y="742" type="curve"/>
      <point x="132" y="801" type="line"/>
      <point x="112" y="781"/>
      <point x="76" y="761"/>
      <point x="50" y="756" type="curve"/>
    </contour>
  </outline>
</glyph>
<glyph name="ordmasculine" format="2">
  <advance width="312"/>
  <unicode hex="00BA"/>
  <outline>
    <contour>
      <point x="154" y="469" type="curve" smooth="yes"/>
      <point x="221" y="469"/>
      <point x="247" y="514"/>
      <point x="247" y="590" type="curve" smooth="yes"/>
      <point x="247" y="659"/>
      <point x="226" y="703"/>
      <point x="159" y="703" type="curve" smooth="yes"/>
      <point x="99" y="703"/>
      <point x="65" y="665"/>
      <point x="65" y="590" type="curve" smooth="yes"/>
      <point x="65" y="507"/>
      <point x="97" y="469"/>
    </contour>
    <contour>
      <point x="154" y="514" type="curve" smooth="yes"/>
      <point x="129" y="514"/>
      <point x="111" y="535"/>
      <point x="111" y="589" type="curve" smooth="yes"/>
      <point x="111" y="638"/>
      <point x="125" y="661"/>
      <point x="158" y="661" type="curve" smooth="yes"/>
      <point x="184" y="661"/>
      <point x="201" y="646"/>
      <point x="201" y="593" type="curve" smooth="yes"/>
      <point x="201" y="552"/>
      <point x="196" y="514"/>
    </contour>
  </outline>
</glyph>
<glyph name="guillemetright" format="2">
  <advance width="542"/>
  <unicode hex="00BB"/>
  <outline>
    <contour>
      <point x="477" y="276" type="curve"/>
      <point x="472" y="340" type="line"/>
      <point x="442" y="360"/>
      <point x="411" y="380"/>
      <point x="381" y="400" type="curve"/>
      <point x="350" y="428"/>
      <point x="318" y="455"/>
      <point x="287" y="483" type="curve"/>
      <point x="265" y="409" type="line"/>
      <point x="296" y="389"/>
      <point x="327" y="369"/>
      <point x="358" y="349" type="curve"/>
      <point x="398" y="325"/>
      <point x="437" y="300"/>
    </contour>
    <contour>
      <point x="277" y="276" type="curve"/>
      <point x="272" y="340" type="line"/>
      <point x="242" y="360"/>
      <point x="211" y="380"/>
      <point x="181" y="400" type="curve"/>
      <point x="150" y="428"/>
      <point x="118" y="455"/>
      <point x="87" y="483" type="curve"/>
      <point x="65" y="409" type="line"/>
      <point x="96" y="389"/>
      <point x="127" y="369"/>
      <point x="158" y="349" type="curve"/>
      <point x="198" y="325"/>
      <point x="237" y="300"/>
    </contour>
    <contour>
      <point x="296" y="106" type="line"/>
      <point x="327" y="138"/>
      <point x="358" y="169"/>
      <point x="389" y="201" type="curve"/>
      <point x="418" y="226"/>
      <point x="448" y="251"/>
      <point x="477" y="276" type="curve"/>
      <point x="472" y="340" type="line"/>
      <point x="438" y="310"/>
      <point x="403" y="279"/>
      <point x="369" y="249" type="curve"/>
      <point x="335" y="224"/>
      <point x="301" y="199"/>
      <point x="267" y="174" type="curve"/>
    </contour>
    <contour>
      <point x="96" y="106" type="line"/>
      <point x="127" y="138"/>
      <point x="158" y="169"/>
      <point x="189" y="201" type="curve"/>
      <point x="218" y="226"/>
      <point x="248" y="251"/>
      <point x="277" y="276" type="curve"/>
      <point x="272" y="340" type="line"/>
      <point x="238" y="310"/>
      <point x="203" y="279"/>
      <point x="169" y="249" type="curve"/>
      <point x="135" y="224"/>
      <point x="101" y="199"/>
      <point x="67" y="174" type="curve"/>
    </contour>
  </outline>
</glyph>
<glyph name="onequarter" format="2">
  <advance width="536"/>
  <unicode hex="00BC"/>
  <outline>
    <contour>
      <point x="75" y="-1" type="curve"/>
      <point x="142" y="0" type="line"/>
      <point x="179" y="87"/>
      <point x="244" y="239"/>
      <point x="289" y="340" type="curve" smooth="yes"/>
      <point x="336" y="445"/>
      <point x="409" y="604"/>
      <point x="451" y="695" type="curve"/>
      <point x="383" y="697" type="line"/>
      <point x="347" y="606"/>
      <point x="281" y="446"/>
      <point x="233" y="339" type="curve" smooth="yes"/>
      <point x="187" y="237"/>
      <point x="116" y="85"/>
    </contour>
    <contour>
      <point x="143" y="461" type="curve"/>
      <point x="192" y="461" type="line"/>
      <point x="189" y="539"/>
      <point x="189" y="615"/>
      <point x="193" y="695" type="curve"/>
      <point x="170" y="695" type="line"/>
      <point x="150" y="675"/>
      <point x="114" y="655"/>
      <point x="88" y="650" type="curve"/>
      <point x="91" y="621" type="line"/>
      <point x="109" y="621"/>
      <point x="128" y="624"/>
      <point x="145" y="629" type="curve"/>
      <point x="147" y="573"/>
      <point x="146" y="510"/>
    </contour>
    <contour>
      <point x="371" y="-1" type="line"/>
      <point x="416" y="0" type="line"/>
      <point x="415" y="49" type="line"/>
      <point x="439" y="49" type="line"/>
      <point x="439" y="91" type="line"/>
      <point x="415" y="90" type="line"/>
      <point x="415" y="137" type="line" smooth="yes"/>
      <point x="415" y="170"/>
      <point x="416" y="202"/>
      <point x="416" y="235" type="curve"/>
      <point x="339" y="236" type="line"/>
      <point x="330" y="212"/>
      <point x="322" y="189"/>
      <point x="313" y="165" type="curve" smooth="yes"/>
      <point x="284" y="89" type="line"/>
      <point x="289" y="48" type="line"/>
      <point x="372" y="49" type="line"/>
    </contour>
    <contour>
      <point x="328" y="88" type="line"/>
      <point x="371" y="211" type="line"/>
      <point x="372" y="88" type="line"/>
    </contour>
  </outline>
</glyph>
<glyph name="onehalf" format="2">
  <advance width="536"/>
  <unicode hex="00BD"/>
  <outline>
    <contour>
      <point x="75" y="-1" type="curve"/>
      <point x="142" y="0" type="line"/>
      <point x="179" y="87"/>
      <point x="244" y="239"/>
      <point x="289" y="340" type="curve" smooth="yes"/>
      <point x="336" y="445"/>
      <point x="409" y="604"/>
      <point x="451" y="695" type="curve"/>
      <point x="383" y="697" type="line"/>
      <point x="347" y="606"/>
      <point x="281" y="446"/>
      <point x="233" y="339" type="curve" smooth="yes"/>
      <point x="187" y="237"/>
      <point x="116" y="85"/>
    </contour>
    <contour>
      <point x="301" y="-2" type="line"/>
      <point x="323" y="-2"/>
      <point x="358" y="-1"/>
      <point x="373" y="0" type="curve" smooth="yes"/>
      <point x="444" y="0" type="line"/>
      <point x="443" y="39" type="line"/>
      <point x="423" y="39"/>
      <point x="388" y="38"/>
      <point x="362" y="37" type="curve"/>
      <point x="400" y="68"/>
      <point x="440" y="121"/>
      <point x="440" y="178" type="curve" smooth="yes"/>
      <point x="440" y="220"/>
      <point x="415" y="239"/>
      <point x="377" y="240" type="curve" smooth="yes"/>
      <point x="343" y="241"/>
      <point x="308" y="220"/>
      <point x="308" y="175" type="curve" smooth="yes"/>
      <point x="308" y="162"/>
      <point x="309" y="147"/>
      <point x="311" y="137" type="curve"/>
      <point x="353" y="138" type="line"/>
      <point x="351" y="148"/>
      <point x="349" y="159"/>
      <point x="349" y="171" type="curve" smooth="yes"/>
      <point x="349" y="198"/>
      <point x="360" y="206"/>
      <point x="374" y="206" type="curve" smooth="yes"/>
      <point x="390" y="206"/>
      <point x="397" y="196"/>
      <point x="397" y="166" type="curve" smooth="yes"/>
      <point x="397" y="108"/>
      <point x="350" y="76"/>
      <point x="302" y="36" type="curve"/>
    </contour>
    <contour>
      <point x="143" y="461" type="curve"/>
      <point x="192" y="461" type="line"/>
      <point x="189" y="539"/>
      <point x="189" y="615"/>
      <point x="193" y="695" type="curve"/>
      <point x="170" y="695" type="line"/>
      <point x="150" y="675"/>
      <point x="114" y="655"/>
      <point x="88" y="650" type="curve"/>
      <point x="91" y="621" type="line"/>
      <point x="109" y="621"/>
      <point x="128" y="624"/>
      <point x="145" y="629" type="curve"/>
      <point x="147" y="573"/>
      <point x="146" y="510"/>
    </contour>
  </outline>
</glyph>
<glyph name="threequarters" format="2">
  <advance width="536"/>
  <unicode hex="00BE"/>
  <outline>
    <contour>
      <point x="75" y="-1" type="curve"/>
      <point x="142" y="0" type="line"/>
      <point x="179" y="87"/>
      <point x="244" y="239"/>
      <point x="289" y="340" type="curve" smooth="yes"/>
      <point x="336" y="445"/>
      <point x="409" y="604"/>
      <point x="451" y="695" type="curve"/>
      <point x="383" y="697" type="line"/>
      <point x="347" y="606"/>
      <point x="281" y="446"/>
      <point x="233" y="339" type="curve" smooth="yes"/>
      <point x="187" y="237"/>
      <point x="116" y="85"/>
    </contour>
    <contour>
      <point x="144" y="453" type="curve" smooth="yes"/>
      <point x="194" y="453"/>
      <point x="212" y="481"/>
      <point x="212" y="516" type="curve" smooth="yes"/>
      <point x="212" y="543"/>
      <point x="194" y="557"/>
      <point x="185" y="561" type="curve"/>
      <point x="204" y="575"/>
      <point x="216" y="604"/>
      <point x="216" y="634" type="curve" smooth="yes"/>
      <point x="216" y="678"/>
      <point x="191" y="700"/>
      <point x="148" y="700" type="curve" smooth="yes"/>
      <point x="109" y="700"/>
      <point x="81" y="673"/>
      <point x="81" y="631" type="curve" smooth="yes"/>
      <point x="81" y="620"/>
      <point x="82" y="609"/>
      <point x="84" y="602" type="curve"/>
      <point x="126" y="603" type="line"/>
      <point x="123" y="613"/>
      <point x="123" y="621"/>
      <point x="123" y="628" type="curve" smooth="yes"/>
      <point x="123" y="646"/>
      <point x="130" y="665"/>
      <point x="148" y="665" type="curve" smooth="yes"/>
      <point x="169" y="665"/>
      <point x="174" y="649"/>
      <point x="174" y="618" type="curve" smooth="yes"/>
      <point x="174" y="574"/>
      <point x="151" y="576"/>
      <point x="133" y="576" type="curve"/>
      <point x="127" y="576"/>
      <point x="113" y="576"/>
      <point x="108" y="577" type="curve"/>
      <point x="108" y="545" type="line"/>
      <point x="113" y="545"/>
      <point x="130" y="545"/>
      <point x="135" y="545" type="curve"/>
      <point x="151" y="545"/>
      <point x="170" y="543"/>
      <point x="170" y="521" type="curve" smooth="yes"/>
      <point x="170" y="502"/>
      <point x="163" y="489"/>
      <point x="145" y="489" type="curve" smooth="yes"/>
      <point x="123" y="489"/>
      <point x="119" y="504"/>
      <point x="119" y="520" type="curve"/>
      <point x="78" y="519" type="line"/>
      <point x="78" y="497"/>
      <point x="83" y="453"/>
    </contour>
    <contour>
      <point x="371" y="-1" type="line"/>
      <point x="416" y="0" type="line"/>
      <point x="415" y="49" type="line"/>
      <point x="439" y="49" type="line"/>
      <point x="439" y="91" type="line"/>
      <point x="415" y="90" type="line"/>
      <point x="415" y="137" type="line" smooth="yes"/>
      <point x="415" y="170"/>
      <point x="416" y="202"/>
      <point x="416" y="235" type="curve"/>
      <point x="339" y="236" type="line"/>
      <point x="330" y="212"/>
      <point x="322" y="189"/>
      <point x="313" y="165" type="curve" smooth="yes"/>
      <point x="284" y="89" type="line"/>
      <point x="289" y="48" type="line"/>
      <point x="372" y="49" type="line"/>
    </contour>
    <contour>
      <point x="328" y="88" type="line"/>
      <point x="371" y="211" type="line"/>
      <point x="372" y="88" type="line"/>
    </contour>
  </outline>
</glyph>
<glyph name="questiondown" format="2">
  <advance width="395"/>
  <unicode hex="00BF"/>
  <outline>
    <contour>
      <point x="168" y="347" type="line"/>
      <point x="174" y="321"/>
      <point x="174" y="306"/>
      <point x="174" y="280" type="curve"/>
      <point x="174" y="226"/>
      <point x="146" y="207"/>
      <point x="119" y="177" type="curve" smooth="yes"/>
      <point x="92" y="148"/>
      <point x="65" y="108"/>
      <point x="65" y="13" type="curve"/>
      <point x="65" y="-82"/>
      <point x="111" y="-158"/>
      <point x="195" y="-158" type="curve"/>
      <point x="255" y="-158"/>
      <point x="330" y="-139"/>
      <point x="330" y="-4" type="curve" smooth="yes"/>
      <point x="330" y="36"/>
      <point x="325" y="72"/>
      <point x="321" y="93" type="curve"/>
      <point x="257" y="92" type="line"/>
      <point x="261" y="75"/>
      <point x="265" y="42"/>
      <point x="265" y="6" type="curve" smooth="yes"/>
      <point x="265" y="-72"/>
      <point x="242" y="-98"/>
      <point x="201" y="-98" type="curve"/>
      <point x="141" y="-98"/>
      <point x="129" y="-26"/>
      <point x="129" y="16" type="curve"/>
      <point x="129" y="80"/>
      <point x="147" y="115"/>
      <point x="168" y="142" type="curve" smooth="yes"/>
      <point x="200" y="182"/>
      <point x="239" y="204"/>
      <point x="239" y="276" type="curve"/>
      <point x="239" y="301"/>
      <point x="237" y="332"/>
      <point x="234" y="347" type="curve"/>
    </contour>
    <contour>
      <point x="242" y="561" type="line"/>
      <point x="162" y="555" type="line"/>
      <point x="171" y="428" type="line"/>
      <point x="236" y="430" type="line"/>
    </contour>
  </outline>
</glyph>
<glyph name="AE" format="2">
  <advance width="500"/>
  <unicode hex="00C6"/>
  <anchor x="300" y="693" name="top"/>
  <outline>
    <contour>
      <point x="22" y="1" type="curve"/>
      <point x="93" y="-1" type="line"/>
      <point x="106" y="52"/>
      <point x="118" y="104"/>
      <point x="131" y="157" type="curve"/>
      <point x="235" y="161" type="line"/>
      <point x="233" y="0" type="line"/>
      <point x="463" y="3" type="line"/>
      <point x="459" y="61" type="line"/>
      <point x="302" y="66" type="line"/>
      <point x="300" y="211" type="line"/>
      <point x="458" y="214" type="line"/>
      <point x="460" y="271" type="line"/>
      <point x="300" y="274" type="line"/>
      <point x="299" y="393" type="line" smooth="yes"/>
      <point x="299" y="467"/>
      <point x="300" y="567"/>
      <point x="301" y="630" type="curve"/>
      <point x="450" y="632" type="line"/>
      <point x="448" y="690" type="line"/>
      <point x="196" y="698" type="line"/>
      <point x="181" y="621"/>
      <point x="149" y="473"/>
      <point x="116" y="346" type="curve" smooth="yes"/>
      <point x="83" y="220"/>
      <point x="43" y="75"/>
    </contour>
    <contour>
      <point x="235" y="216" type="line"/>
      <point x="145" y="218" type="line"/>
      <point x="154" y="255"/>
      <point x="163" y="293"/>
      <point x="172" y="330" type="curve" smooth="yes"/>
      <point x="197" y="432"/>
      <point x="217" y="525"/>
      <point x="234" y="588" type="curve"/>
      <point x="235" y="535"/>
      <point x="236" y="466"/>
      <point x="236" y="391" type="curve" smooth="yes"/>
    </contour>
  </outline>
</glyph>
<glyph name="Eth" format="2">
  <advance width="346"/>
  <unicode hex="00D0"/>
  <outline>
    <contour>
      <point x="-15" y="314" type="line"/>
      <point x="9" y="315"/>
      <point x="58" y="316"/>
      <point x="105" y="316" type="curve"/>
      <point x="136" y="316"/>
      <point x="184" y="315"/>
      <point x="212" y="314" type="curve"/>
      <point x="210" y="376" type="line"/>
      <point x="187" y="374"/>
      <point x="144" y="372"/>
      <point x="110" y="373" type="curve"/>
      <point x="60" y="374"/>
      <point x="12" y="375"/>
      <point x="-11" y="376" type="curve"/>
    </contour>
    <component base="D"/>
  </outline>
</glyph>
<glyph name="multiply" format="2">
  <advance width="400"/>
  <unicode hex="00D7"/>
  <outline>
    <contour>
      <point x="330" y="207" type="line"/>
      <point x="290" y="245"/>
      <point x="266" y="268"/>
      <point x="228.767" y="303.782" type="curve"/>
      <point x="200" y="331"/>
      <point x="134" y="402"/>
      <point x="112" y="427" type="curve"/>
      <point x="62" y="387" type="line"/>
      <point x="62" y="387"/>
      <point x="148.156" y="305.196"/>
      <point x="189.876" y="263.477" type="curve"/>
      <point x="253" y="199"/>
      <point x="283" y="163"/>
      <point x="283" y="163" type="curve"/>
    </contour>
    <contour>
      <point x="117.044" y="156.704" type="line"/>
      <point x="117.044" y="156.704"/>
      <point x="179.976" y="232.364"/>
      <point x="227.352" y="279.74" type="curve"/>
      <point x="276.143" y="328.53"/>
      <point x="327.054" y="369.543"/>
      <point x="327.054" y="369.543" type="curve"/>
      <point x="283.214" y="423.283" type="line"/>
      <point x="283.214" y="423.283"/>
      <point x="231.595" y="366.007"/>
      <point x="186.34" y="319.338" type="curve"/>
      <point x="143.914" y="274.083"/>
      <point x="72.496" y="211.151"/>
      <point x="72.496" y="211.151" type="curve"/>
    </contour>
  </outline>
</glyph>
<glyph name="Thorn" format="2">
  <advance width="313"/>
  <unicode hex="00DE"/>
  <outline>
    <contour>
      <point x="102" y="141" type="line"/>
      <point x="230" y="141"/>
      <point x="299" y="191"/>
      <point x="299" y="347" type="curve" smooth="yes"/>
      <point x="299" y="504"/>
      <point x="248" y="563"/>
      <point x="151" y="563" type="curve" smooth="yes"/>
      <point x="130" y="563"/>
      <point x="111" y="563"/>
      <point x="92" y="562" type="curve"/>
      <point x="92" y="503" type="line"/>
      <point x="110" y="505"/>
      <point x="127" y="506"/>
      <point x="147" y="506" type="curve" smooth="yes"/>
      <point x="208" y="506"/>
      <point x="236" y="451"/>
      <point x="236" y="344" type="curve" smooth="yes"/>
      <point x="236" y="218"/>
      <point x="193" y="202"/>
      <point x="98" y="202" type="curve"/>
    </contour>
    <contour>
      <point x="48" y="0" type="curve"/>
      <point x="120" y="-3" type="line"/>
      <point x="118" y="103"/>
      <point x="116" y="274"/>
      <point x="116" y="359" type="curve" smooth="yes"/>
      <point x="116" y="456"/>
      <point x="119" y="637"/>
      <point x="122" y="703" type="curve"/>
      <point x="49" y="698" type="line"/>
      <point x="50" y="625"/>
      <point x="52" y="482"/>
      <point x="52" y="357" type="curve"/>
      <point x="52" y="232"/>
      <point x="50" y="80"/>
    </contour>
  </outline>
</glyph>
<glyph name="germandbls" format="2">
  <advance width="384"/>
  <unicode hex="00DF"/>
  <outline>
    <contour>
      <point x="51" y="-3" type="curve"/>
      <point x="121" y="0" type="line"/>
      <point x="118" y="55"/>
      <point x="114" y="167"/>
      <point x="114" y="271" type="curve"/>
      <point x="114" y="415"/>
      <point x="118" y="494"/>
      <point x="120" y="558" type="curve"/>
      <point x="122" y="627"/>
      <point x="158" y="647"/>
      <point x="199" y="647" type="curve"/>
      <point x="235" y="647"/>
      <point x="261" y="618"/>
      <point x="261" y="570" type="curve"/>
      <point x="261" y="502"/>
      <point x="175" y="451"/>
      <point x="175" y="374" type="curve"/>
      <point x="175" y="317"/>
      <point x="203" y="286"/>
      <point x="254" y="233" type="curve" smooth="yes"/>
      <point x="288" y="198"/>
      <point x="306" y="179"/>
      <point x="306" y="130" type="curve"/>
      <point x="306" y="79"/>
      <point x="259" y="52"/>
      <point x="185" y="52" type="curve"/>
      <point x="180" y="-1" type="line"/>
      <point x="301" y="-1"/>
      <point x="364" y="48"/>
      <point x="364" y="132" type="curve"/>
      <point x="364" y="202"/>
      <point x="326" y="234"/>
      <point x="295" y="270" type="curve" smooth="yes"/>
      <point x="269" y="301"/>
      <point x="232" y="325"/>
      <point x="232" y="374" type="curve"/>
      <point x="232" y="439"/>
      <point x="317" y="477"/>
      <point x="317" y="577" type="curve"/>
      <point x="317" y="635"/>
      <point x="278" y="701"/>
      <point x="198" y="701" type="curve"/>
      <point x="114" y="701"/>
      <point x="59" y="650"/>
      <point x="60" y="562" type="curve"/>
      <point x="60" y="471"/>
      <point x="59" y="416"/>
      <point x="59" y="270" type="curve"/>
      <point x="59" y="163"/>
      <point x="54" y="52"/>
    </contour>
  </outline>
</glyph>
<glyph name="ae" format="2">
  <advance width="439"/>
  <unicode hex="00E6"/>
  <anchor x="233" y="555" name="top"/>
  <outline>
    <contour>
      <point x="104" y="-10" type="curve" smooth="yes"/>
      <point x="153" y="-10"/>
      <point x="184" y="26"/>
      <point x="202" y="77" type="curve"/>
      <point x="215" y="15"/>
      <point x="252" y="-9"/>
      <point x="298" y="-9" type="curve" smooth="yes"/>
      <point x="394" y="-9"/>
      <point x="410" y="63"/>
      <point x="410" y="116" type="curve" smooth="yes"/>
      <point x="410" y="143"/>
      <point x="407" y="175"/>
      <point x="405" y="190" type="curve"/>
      <point x="348" y="188" type="line"/>
      <point x="351" y="174"/>
      <point x="355" y="145"/>
      <point x="353" y="113" type="curve" smooth="yes"/>
      <point x="351" y="76"/>
      <point x="341" y="44"/>
      <point x="303" y="44" type="curve" smooth="yes"/>
      <point x="274" y="44"/>
      <point x="258" y="64"/>
      <point x="252" y="118" type="curve" smooth="yes"/>
      <point x="250" y="141"/>
      <point x="248" y="202"/>
      <point x="247" y="261" type="curve"/>
      <point x="301" y="264"/>
      <point x="366" y="266"/>
      <point x="400" y="266" type="curve"/>
      <point x="404" y="309"/>
      <point x="408" y="368"/>
      <point x="408" y="429" type="curve" smooth="yes"/>
      <point x="408" y="542"/>
      <point x="355" y="568"/>
      <point x="313" y="568" type="curve" smooth="yes"/>
      <point x="274" y="568"/>
      <point x="242" y="555"/>
      <point x="221" y="521" type="curve"/>
      <point x="206" y="548"/>
      <point x="180" y="565"/>
      <point x="140" y="565" type="curve" smooth="yes"/>
      <point x="79" y="565"/>
      <point x="35" y="514"/>
      <point x="35" y="443" type="curve" smooth="yes"/>
      <point x="35" y="406"/>
      <point x="38" y="390"/>
      <point x="42" y="368" type="curve"/>
      <point x="95" y="371" type="line"/>
      <point x="91" y="388"/>
      <point x="89" y="411"/>
      <point x="89" y="439" type="curve" smooth="yes"/>
      <point x="89" y="498"/>
      <point x="119" y="516"/>
      <point x="140" y="516" type="curve" smooth="yes"/>
      <point x="169" y="516"/>
      <point x="192" y="491"/>
      <point x="192" y="412" type="curve" smooth="yes"/>
      <point x="192" y="351"/>
      <point x="144" y="314"/>
      <point x="104" y="274" type="curve" smooth="yes"/>
      <point x="62" y="231"/>
      <point x="24" y="180"/>
      <point x="24" y="105" type="curve" smooth="yes"/>
      <point x="24" y="20"/>
      <point x="62" y="-10"/>
    </contour>
    <contour>
      <point x="112" y="47" type="curve" smooth="yes"/>
      <point x="91" y="47"/>
      <point x="80" y="64"/>
      <point x="80" y="107" type="curve" smooth="yes"/>
      <point x="80" y="156"/>
      <point x="102" y="205"/>
      <point x="143" y="247" type="curve" smooth="yes"/>
      <point x="160" y="264"/>
      <point x="176" y="279"/>
      <point x="189" y="296" type="curve"/>
      <point x="189" y="276"/>
      <point x="188" y="257"/>
      <point x="188" y="237" type="curve" smooth="yes"/>
      <point x="188" y="116"/>
      <point x="144" y="47"/>
    </contour>
    <contour>
      <point x="247" y="318" type="line"/>
      <point x="248" y="354"/>
      <point x="250" y="379"/>
      <point x="252" y="410" type="curve" smooth="yes"/>
      <point x="259" y="480"/>
      <point x="262" y="511"/>
      <point x="302" y="511" type="curve" smooth="yes"/>
      <point x="337" y="511"/>
      <point x="347" y="473"/>
      <point x="346" y="414" type="curve" smooth="yes"/>
      <point x="346" y="387"/>
      <point x="344" y="354"/>
      <point x="341" y="319" type="curve"/>
    </contour>
  </outline>
</glyph>
<glyph name="eth" format="2">
  <advance width="330"/>
  <unicode hex="00F0"/>
  <outline>
    <contour>
      <point x="157" y="-10" type="curve" smooth="yes"/>
      <point x="267" y="-10"/>
      <point x="287" y="80"/>
      <point x="287" y="321" type="curve"/>
      <point x="287" y="622"/>
      <point x="202" y="670"/>
      <point x="124" y="715" type="curve"/>
      <point x="90" y="657" type="line"/>
      <point x="191" y="623"/>
      <point x="223" y="496"/>
      <point x="223" y="370" type="curve"/>
      <point x="224" y="297"/>
      <point x="223" y="270"/>
      <point x="223" y="243" type="curve"/>
      <point x="223" y="115"/>
      <point x="216" y="50"/>
      <point x="165" y="50" type="curve" smooth="yes"/>
      <point x="116" y="50"/>
      <point x="99" y="78"/>
      <point x="99" y="211" type="curve" smooth="yes"/>
      <point x="99" y="300"/>
      <point x="105" y="364"/>
      <point x="161" y="364" type="curve" smooth="yes"/>
      <point x="208" y="364"/>
      <point x="223" y="317"/>
      <point x="223" y="243" type="curve"/>
      <point x="247" y="352" type="line"/>
      <point x="233" y="379"/>
      <point x="226" y="425"/>
      <point x="159" y="425" type="curve" smooth="yes"/>
      <point x="61" y="425"/>
      <point x="36" y="342"/>
      <point x="36" y="203" type="curve" smooth="yes"/>
      <point x="36" y="40"/>
      <point x="83" y="-10"/>
    </contour>
    <contour>
      <point x="135" y="489" type="line"/>
      <point x="135" y="489"/>
      <point x="172" y="518"/>
      <point x="225" y="556" type="curve"/>
      <point x="260" y="580"/>
      <point x="324" y="622"/>
      <point x="324" y="622" type="curve"/>
      <point x="286" y="672" type="line"/>
      <point x="286" y="672"/>
      <point x="236" y="631"/>
      <point x="197" y="605" type="curve"/>
      <point x="141" y="567"/>
      <point x="102" y="543"/>
      <point x="102" y="543" type="curve"/>
    </contour>
  </outline>
</glyph>
<glyph name="divide" format="2">
  <advance width="394"/>
  <unicode hex="00F7"/>
  <outline>
    <contour>
      <point x="66" y="259" type="line"/>
      <point x="66" y="259"/>
      <point x="146" y="262"/>
      <point x="198" y="263" type="curve"/>
      <point x="253" y="264"/>
      <point x="322" y="262"/>
      <point x="322" y="262" type="curve"/>
      <point x="329" y="324" type="line"/>
      <point x="329" y="324"/>
      <point x="251" y="321"/>
      <point x="193" y="320" type="curve"/>
      <point x="136" y="318"/>
      <point x="65" y="322"/>
      <point x="65" y="322" type="curve"/>
    </contour>
    <contour>
      <point x="198" y="116" type="curve"/>
      <point x="227" y="116"/>
      <point x="247" y="139"/>
      <point x="247" y="165" type="curve"/>
      <point x="247" y="193"/>
      <point x="224" y="218"/>
      <point x="189" y="218" type="curve"/>
      <point x="162" y="218"/>
      <point x="141" y="200"/>
      <point x="141" y="171" type="curve"/>
      <point x="141" y="138"/>
      <point x="169" y="116"/>
    </contour>
    <contour>
      <point x="198" y="371" type="curve"/>
      <point x="227" y="371"/>
      <point x="247" y="394"/>
      <point x="247" y="420" type="curve"/>
      <point x="247" y="448"/>
      <point x="224" y="473"/>
      <point x="189" y="473" type="curve"/>
      <point x="162" y="473"/>
      <point x="141" y="455"/>
      <point x="141" y="426" type="curve"/>
      <point x="141" y="393"/>
      <point x="169" y="371"/>
    </contour>
  </outline>
</glyph>
<glyph name="idotless" format="2">
  <advance width="172"/>
  <unicode hex="0131"/>
  <anchor x="87" y="0" name="bottom"/>
  <anchor x="86" y="555" name="top"/>
  <outline>
    <contour>
      <point x="122" y="0" type="line"/>
      <point x="122" y="0"/>
      <point x="115" y="141"/>
      <point x="115" y="285" type="curve"/>
      <point x="115" y="428"/>
      <point x="119" y="562"/>
      <point x="119" y="562" type="curve"/>
      <point x="53" y="561" type="line"/>
      <point x="53" y="561"/>
      <point x="60" y="432"/>
      <point x="60" y="286" type="curve"/>
      <point x="60" y="140"/>
      <point x="53" y="1"/>
      <point x="53" y="1" type="curve"/>
    </contour>
  </outline>
</glyph>
<glyph name="kgreenlandic" format="2">
  <advance width="287"/>
  <unicode hex="0138"/>
  <outline>
    <contour>
      <point x="232" y="0" type="curve"/>
      <point x="308" y="3" type="line"/>
      <point x="246" y="103"/>
      <point x="197" y="183"/>
      <point x="150" y="277" type="curve"/>
      <point x="191" y="373"/>
      <point x="232" y="478"/>
      <point x="276" y="559" type="curve"/>
      <point x="211" y="561" type="line"/>
      <point x="181" y="485"/>
      <point x="146" y="390"/>
      <point x="86" y="269" type="curve"/>
      <point x="140" y="177"/>
      <point x="195" y="88"/>
    </contour>
    <contour>
      <point x="41" y="0" type="curve"/>
      <point x="109" y="1" type="line"/>
      <point x="106" y="92"/>
      <point x="102" y="252"/>
      <point x="102" y="359" type="curve"/>
      <point x="102" y="424"/>
      <point x="103" y="499"/>
      <point x="105" y="561" type="curve"/>
      <point x="46" y="559" type="line"/>
      <point x="46" y="496"/>
      <point x="47" y="421"/>
      <point x="47" y="357" type="curve"/>
      <point x="47" y="253"/>
      <point x="44" y="92"/>
    </contour>
  </outline>
</glyph>
<glyph name="lcaron" format="2">
  <advance width="206"/>
  <unicode hex="013E"/>
  <outline>
    <contour>
      <point x="45" y="2" type="curve"/>
      <point x="113" y="0" type="line"/>
      <point x="109" y="91"/>
      <point x="103" y="251"/>
      <point x="103" y="358" type="curve"/>
      <point x="103" y="465"/>
      <point x="109" y="615"/>
      <point x="113" y="698" type="curve"/>
      <point x="46" y="697" type="line"/>
      <point x="47" y="612"/>
      <point x="48" y="461"/>
      <point x="48" y="357" type="curve"/>
      <point x="48" y="223"/>
      <point x="44" y="44"/>
    </contour>
    <contour>
      <point x="184" y="493" type="line"/>
      <point x="205" y="527"/>
      <point x="217" y="578"/>
      <point x="217" y="615" type="curve"/>
      <point x="218" y="642"/>
      <point x="219" y="680"/>
      <point x="219" y="701" type="curve"/>
      <point x="150" y="695" type="line"/>
      <point x="154" y="609" type="line"/>
      <point x="183" y="608" type="line"/>
      <point x="184" y="578"/>
      <point x="172" y="535"/>
      <point x="156" y="507" type="curve"/>
    </contour>
  </outline>
</glyph>
<glyph name="ldot" format="2">
  <advance width="182"/>
  <unicode hex="0140"/>
  <outline>
    <contour>
      <point x="45" y="2" type="curve"/>
      <point x="113" y="0" type="line"/>
      <point x="113" y="0"/>
      <point x="103" y="212"/>
      <point x="103" y="358" type="curve"/>
      <point x="103" y="504"/>
      <point x="113" y="698"/>
      <point x="113" y="698" type="curve"/>
      <point x="46" y="697" type="line"/>
      <point x="46" y="697"/>
      <point x="48" y="500"/>
      <point x="48" y="357" type="curve"/>
      <point x="48" y="222"/>
      <point x="45" y="51"/>
    </contour>
    <contour>
      <point x="199" y="310" type="line"/>
      <point x="197" y="402" type="line"/>
      <point x="133" y="397" type="line"/>
      <point x="137" y="312" type="line"/>
    </contour>
  </outline>
</glyph>
<glyph name="napostrophe" format="2">
  <advance width="315"/>
  <unicode hex="0149"/>
  <outline>
    <contour>
      <point x="41" y="590" type="line"/>
      <point x="60" y="611"/>
      <point x="71" y="656"/>
      <point x="71" y="682" type="curve"/>
      <point x="72" y="722"/>
      <point x="74" y="770"/>
      <point x="74" y="770" type="curve"/>
      <point x="7" y="763" type="line"/>
      <point x="11" y="680" type="line"/>
      <point x="38" y="679" type="line"/>
      <point x="37" y="652"/>
      <point x="31" y="628"/>
      <point x="16" y="606" type="curve"/>
    </contour>
    <component base="n"/>
  </outline>
</glyph>
<glyph name="Eng" format="2">
  <advance width="373"/>
  <unicode hex="014A"/>
  <outline>
    <contour>
      <point x="211" y="-156" type="line"/>
      <point x="287" y="-156"/>
      <point x="322" y="-108"/>
      <point x="322" y="-17" type="curve"/>
      <point x="321" y="116"/>
      <point x="320" y="250"/>
      <point x="319" y="383" type="curve"/>
      <point x="319" y="508"/>
      <point x="322" y="646"/>
      <point x="325" y="715" type="curve"/>
      <point x="262" y="715" type="line"/>
      <point x="263" y="621"/>
      <point x="265" y="466"/>
      <point x="265" y="381" type="curve" smooth="yes"/>
      <point x="265" y="332"/>
      <point x="265" y="282"/>
      <point x="265" y="233" type="curve"/>
      <point x="254" y="272"/>
      <point x="241" y="317"/>
      <point x="228" y="369" type="curve" smooth="yes"/>
      <point x="196" y="497"/>
      <point x="158" y="636"/>
      <point x="138" y="704" type="curve"/>
      <point x="48" y="704" type="line"/>
      <point x="51" y="628"/>
      <point x="54" y="481"/>
      <point x="54" y="356" type="curve" smooth="yes"/>
      <point x="54" y="231"/>
      <point x="52" y="80"/>
      <point x="51" y="1" type="curve"/>
      <point x="111" y="0" type="line"/>
      <point x="110" y="102"/>
      <point x="108" y="269"/>
      <point x="108" y="354" type="curve" smooth="yes"/>
      <point x="108" y="423"/>
      <point x="107" y="492"/>
      <point x="107" y="561" type="curve"/>
      <point x="128" y="496"/>
      <point x="157" y="406"/>
      <point x="172" y="344" type="curve" smooth="yes"/>
      <point x="217" y="176"/>
      <point x="237" y="104"/>
      <point x="262" y="10" type="curve"/>
      <point x="262" y="-75"/>
      <point x="252" y="-102"/>
      <point x="205" y="-102" type="curve"/>
    </contour>
  </outline>
</glyph>
<glyph name="eng" format="2">
  <advance width="309"/>
  <unicode hex="014B"/>
  <outline>
    <contour>
      <point x="152" y="-156" type="line"/>
      <point x="230" y="-156"/>
      <point x="267" y="-111"/>
      <point x="267" y="-20" type="curve" smooth="yes"/>
      <point x="267" y="71"/>
      <point x="268" y="154"/>
      <point x="268" y="300" type="curve" smooth="yes"/>
      <point x="268" y="441" type="line" smooth="yes"/>
      <point x="268" y="526"/>
      <point x="244" y="560"/>
      <point x="196" y="560" type="curve" smooth="yes"/>
      <point x="149" y="560"/>
      <point x="122" y="520"/>
      <point x="105" y="467" type="curve"/>
      <point x="105" y="498"/>
      <point x="106" y="528"/>
      <point x="106" y="559" type="curve"/>
      <point x="49" y="556" type="line"/>
      <point x="50" y="503"/>
      <point x="52" y="393"/>
      <point x="52" y="286" type="curve" smooth="yes"/>
      <point x="52" y="157"/>
      <point x="48" y="59"/>
      <point x="45" y="1" type="curve"/>
      <point x="110" y="1" type="line"/>
      <point x="108" y="57"/>
      <point x="106" y="195"/>
      <point x="107" y="320" type="curve" smooth="yes"/>
      <point x="107" y="441"/>
      <point x="144" y="507"/>
      <point x="182" y="507" type="curve" smooth="yes"/>
      <point x="202" y="507"/>
      <point x="213" y="486"/>
      <point x="213" y="437" type="curve" smooth="yes"/>
      <point x="213" y="299" type="line" smooth="yes"/>
      <point x="213" y="155"/>
      <point x="211" y="42"/>
      <point x="210" y="-23" type="curve" smooth="yes"/>
      <point x="209" y="-85"/>
      <point x="193" y="-110"/>
      <point x="150" y="-110" type="curve"/>
    </contour>
  </outline>
</glyph>
<glyph name="OE" format="2">
  <advance width="504"/>
  <unicode hex="0152"/>
  <outline>
    <contour>
      <point x="170" y="-5" type="curve" smooth="yes"/>
      <point x="234" y="-5"/>
      <point x="260" y="0"/>
      <point x="320" y="0" type="curve" smooth="yes"/>
      <point x="479" y="0" type="line"/>
      <point x="474" y="57" type="line"/>
      <point x="319" y="61" type="line"/>
      <point x="317" y="206" type="line"/>
      <point x="474" y="209" type="line"/>
      <point x="476" y="266" type="line"/>
      <point x="317" y="269" type="line"/>
      <point x="316" y="393" type="line" smooth="yes"/>
      <point x="315" y="466"/>
      <point x="317" y="566"/>
      <point x="318" y="629" type="curve"/>
      <point x="467" y="630" type="line"/>
      <point x="467" y="693" type="line"/>
      <point x="319" y="693" type="line" smooth="yes"/>
      <point x="267" y="693"/>
      <point x="223" y="703"/>
      <point x="185" y="703" type="curve" smooth="yes"/>
      <point x="38" y="703"/>
      <point x="37" y="548"/>
      <point x="37" y="357" type="curve" smooth="yes"/>
      <point x="37" y="148"/>
      <point x="33" y="-5"/>
    </contour>
    <contour>
      <point x="189" y="52" type="curve" smooth="yes"/>
      <point x="118" y="52"/>
      <point x="104" y="101"/>
      <point x="104" y="345" type="curve" smooth="yes"/>
      <point x="104" y="600"/>
      <point x="119" y="651"/>
      <point x="195" y="651" type="curve" smooth="yes"/>
      <point x="212" y="651"/>
      <point x="230" y="647"/>
      <point x="250" y="639" type="curve"/>
      <point x="251" y="586"/>
      <point x="252" y="496"/>
      <point x="252" y="391" type="curve" smooth="yes"/>
      <point x="251" y="282"/>
      <point x="250" y="172"/>
      <point x="249" y="63" type="curve"/>
      <point x="227" y="56"/>
      <point x="206" y="52"/>
    </contour>
  </outline>
</glyph>
<glyph name="oe" format="2">
  <advance width="467"/>
  <unicode hex="0153"/>
  <outline>
    <contour>
      <point x="149" y="-10" type="curve"/>
      <point x="214" y="-10"/>
      <point x="241" y="33"/>
      <point x="252" y="80" type="curve"/>
      <point x="267" y="146"/>
      <point x="269" y="224"/>
      <point x="269" y="283" type="curve"/>
      <point x="269" y="348"/>
      <point x="269" y="400"/>
      <point x="263" y="456" type="curve"/>
      <point x="254" y="530"/>
      <point x="224" y="567"/>
      <point x="163" y="567" type="curve"/>
      <point x="101" y="567"/>
      <point x="65" y="537"/>
      <point x="50" y="450" type="curve"/>
      <point x="44" y="417"/>
      <point x="37" y="328"/>
      <point x="37" y="284" type="curve"/>
      <point x="37" y="241"/>
      <point x="37" y="167"/>
      <point x="45" y="114" type="curve"/>
      <point x="55" y="34"/>
      <point x="82" y="-10"/>
    </contour>
    <contour>
      <point x="151" y="47" type="curve"/>
      <point x="125" y="47"/>
      <point x="108" y="69"/>
      <point x="102" y="128" type="curve"/>
      <point x="95" y="194"/>
      <point x="96" y="223"/>
      <point x="96" y="264" type="curve"/>
      <point x="96" y="304"/>
      <point x="100" y="401"/>
      <point x="106" y="445" type="curve"/>
      <point x="111" y="482"/>
      <point x="126" y="514"/>
      <point x="164" y="514" type="curve"/>
      <point x="192" y="514"/>
      <point x="206" y="484"/>
      <point x="207" y="429" type="curve"/>
      <point x="208" y="402"/>
      <point x="211" y="355"/>
      <point x="211" y="287" type="curve"/>
      <point x="211" y="235"/>
      <point x="210" y="192"/>
      <point x="206" y="154" type="curve"/>
      <point x="199" y="84"/>
      <point x="189" y="47"/>
    </contour>
    <contour>
      <point x="326" y="-12" type="curve"/>
      <point x="422" y="-12"/>
      <point x="438" y="60"/>
      <point x="438" y="113" type="curve"/>
      <point x="438" y="139"/>
      <point x="436" y="170"/>
      <point x="433" y="185" type="curve"/>
      <point x="377" y="185" type="line"/>
      <point x="380" y="171"/>
      <point x="384" y="142"/>
      <point x="382" y="110" type="curve"/>
      <point x="380" y="73"/>
      <point x="370" y="41"/>
      <point x="332" y="41" type="curve"/>
      <point x="296" y="41"/>
      <point x="281" y="61"/>
      <point x="276" y="115" type="curve"/>
      <point x="273" y="141"/>
      <point x="270" y="219"/>
      <point x="270" y="288" type="curve"/>
      <point x="270" y="339"/>
      <point x="272" y="369"/>
      <point x="276" y="407" type="curve"/>
      <point x="282" y="477"/>
      <point x="291" y="508"/>
      <point x="331" y="508" type="curve"/>
      <point x="366" y="508"/>
      <point x="375" y="470"/>
      <point x="375" y="410" type="curve" smooth="yes"/>
      <point x="375" y="382"/>
      <point x="373" y="350"/>
      <point x="370" y="314" type="curve"/>
      <point x="428" y="263" type="line"/>
      <point x="432" y="305"/>
      <point x="436" y="364"/>
      <point x="436" y="426" type="curve"/>
      <point x="436" y="539"/>
      <point x="384" y="564"/>
      <point x="342" y="564" type="curve"/>
      <point x="277" y="564"/>
      <point x="228" y="530"/>
      <point x="218" y="421" type="curve"/>
      <point x="214" y="372"/>
      <point x="211" y="337"/>
      <point x="211" y="289" type="curve"/>
      <point x="211" y="224"/>
      <point x="215" y="145"/>
      <point x="223" y="89" type="curve"/>
      <point x="232" y="16"/>
      <point x="270" y="-12"/>
    </contour>
    <contour>
      <point x="232" y="256" type="line"/>
      <point x="314" y="261"/>
      <point x="428" y="263"/>
      <point x="428" y="263" type="curve"/>
      <point x="428" y="316" type="line"/>
      <point x="231" y="314" type="line"/>
    </contour>
  </outline>
</glyph>
<glyph name="Schwa" format="2">
  <advance width="341"/>
  <unicode hex="018F"/>
  <outline>
    <contour>
      <point x="157" y="-10" type="curve"/>
      <point x="229" y="-10"/>
      <point x="270" y="35"/>
      <point x="283" y="90" type="curve"/>
      <point x="303" y="175"/>
      <point x="304" y="278"/>
      <point x="304" y="351" type="curve"/>
      <point x="304" y="430"/>
      <point x="306" y="495"/>
      <point x="299" y="564" type="curve"/>
      <point x="290" y="655"/>
      <point x="252" y="701"/>
      <point x="165" y="701" type="curve" smooth="yes"/>
      <point x="92" y="701"/>
      <point x="47" y="645"/>
      <point x="47" y="569" type="curve"/>
      <point x="47" y="547"/>
      <point x="49" y="507"/>
      <point x="53" y="483" type="curve"/>
      <point x="113" y="487" type="line"/>
      <point x="110" y="523"/>
      <point x="109" y="546"/>
      <point x="109" y="566" type="curve"/>
      <point x="109" y="610"/>
      <point x="129" y="642"/>
      <point x="163" y="642" type="curve"/>
      <point x="217" y="642"/>
      <point x="232" y="608"/>
      <point x="236" y="539" type="curve"/>
      <point x="238" y="506"/>
      <point x="239" y="439"/>
      <point x="239" y="355" type="curve"/>
      <point x="239" y="292"/>
      <point x="234" y="169"/>
      <point x="225" y="123" type="curve"/>
      <point x="214" y="65"/>
      <point x="196" y="49"/>
      <point x="159" y="49" type="curve"/>
      <point x="139" y="49"/>
      <point x="105" y="60"/>
      <point x="105" y="136" type="curve"/>
      <point x="105" y="215"/>
      <point x="109" y="263"/>
      <point x="118" y="338" type="curve"/>
      <point x="56" y="339" type="line"/>
      <point x="46" y="271"/>
      <point x="42" y="201"/>
      <point x="42" y="135" type="curve"/>
      <point x="42" y="41"/>
      <point x="90" y="-10"/>
    </contour>
    <contour>
      <point x="62" y="281" type="line"/>
      <point x="259" y="283" type="line"/>
      <point x="258" y="346" type="line"/>
      <point x="176" y="341"/>
      <point x="56" y="339"/>
      <point x="56" y="339" type="curve"/>
    </contour>
  </outline>
</glyph>
